<?xml version="1.0" encoding="utf-8"?>
<!-- Generator: Adobe Illustrator 25.2.1, SVG Export Plug-In . SVG Version: 6.00 Build 0)  -->
<svg version="1.1" id="Layer_1" xmlns="http://www.w3.org/2000/svg" xmlns:xlink="http://www.w3.org/1999/xlink" x="0px" y="0px"
	 width="36px" height="36px" viewBox="0 0 36 36" enable-background="new 0 0 36 36" xml:space="preserve">
<path fill="#E6E7E8" d="M32,32c0,2.209-1.791,4-4,4H8c-2.209,0-4-1.791-4-4V4c0-2.209,1.791-4,4-4h20c2.209,0,4,1.791,4,4V32z"/>
<path fill="#DD2E44" d="M11,7c-2.519,0-4.583,1.87-4.929,4.293C6.802,10.503,7.839,10,9,10c2.209,0,4,1.791,4,4
	c0,0.546,0.112,0.958,0.258,1.283h1.352V8.541C13.7,7.591,12.419,7,11,7z"/>
<path fill="#55ACEE" d="M23,14c0-2.209,1.791-4,4-4c1.161,0,2.198,0.503,2.929,1.293C29.583,8.87,27.52,7,25,7
	c-1.419,0-2.7,0.591-3.61,1.54v6.743h1.352C22.888,14.958,23,14.546,23,14z"/>
<path fill="#FFAC33" d="M14,12c0-4.971,4-9,4-9s4,4.029,4,9c0,0.686-0.034,1.354-0.099,1.996l-7.803,0
	C14.034,13.354,14,12.686,14,12z"/>
<path fill="#553788" d="M11.707,21.071C12.497,21.802,13,22.839,13,24c0,2.209-1.791,4-4,4c-1.161,0-2.198-0.503-2.929-1.293
	C6.417,29.131,8.481,31,11,31c2.761,0,5-2.238,5-5C16,23.48,14.13,21.417,11.707,21.071z M27,28c-2.209,0-4-1.791-4-4
	c0-1.161,0.503-2.198,1.293-2.929C21.869,21.417,20,23.48,20,26c0,2.762,2.238,5,5,5c2.52,0,4.583-1.869,4.929-4.293
	C29.198,27.497,28.161,28,27,28z"/>
<path fill="#9266CC" d="M14,24c0,4.971,3,9,4,9s4-4.029,4-9c0-0.874-0.055-1.719-0.159-2.519h-7.682C14.055,22.281,14,23.126,14,24z
	"/>
<path fill="#EDBB9F" d="M13,17c0-3.866,3-4,5-4s5,0.134,5,4c0,3.865-2.238,7-5,7C15.239,24,13,20.865,13,17z"/>
<circle fill="#662113" cx="16" cy="17" r="1"/>
<circle fill="#662113" cx="20" cy="17" r="1"/>
<path fill="#662113" d="M18,22c1.104,0,2-0.896,2-2h-4C16,21.104,16.896,22,18,22z"/>
<circle fill="#A0041E" cx="6" cy="11" r="1"/>
<circle fill="#226699" cx="30" cy="11" r="1"/>
<circle fill="#DD2E44" cx="18" cy="3" r="1"/>
</svg>
