<?xml version="1.0" encoding="utf-8"?>
<!-- Generator: Adobe Illustrator 25.2.1, SVG Export Plug-In . SVG Version: 6.00 Build 0)  -->
<svg version="1.1" id="Layer_1" xmlns="http://www.w3.org/2000/svg" xmlns:xlink="http://www.w3.org/1999/xlink" x="0px" y="0px"
	 width="440px" height="440px" viewBox="0 0 440 440" enable-background="new 0 0 440 440" xml:space="preserve">
<path fill="#4B92DB" d="M440,330c0,26.999-21.89,48.889-48.889,48.889H48.889C21.89,378.889,0,356.999,0,330V110
	c0-26.999,21.89-48.889,48.889-48.889h342.223C418.11,61.111,440,83.001,440,110V330z"/>
<path fill="#FFFFFF" d="M128.993,189.811c1.821-3.728,4.804-7.284,8.312-9.937c7.822-5.903,16.377-13.542,16.5-23.589
	c-2.591,7.223-10.462,10.218-15.706,15.155c-2.775,2.616-4.889,5.757-6.136,9.02l-0.184-0.146c0.648-2.896,1.882-5.512,2.713-8.311
	c2.286-7.651,1.87-16.806,9.326-21.915c-3.838,0.978-7.052,3.459-9.924,6.649c-6.013,6.661-5.488,16.5-4.693,25.275
	C129.445,184.727,129.299,187.037,128.993,189.811z M168.312,284.301c-8.678-7.003-9.985-17.502-13.86-26.717
	c-2.408-5.721-6.319-10.866-10.499-15.865c4.596,9.18,2.616,21.022,8.568,29.676c1.87,2.713,4.474,5.306,6.869,7.48l-0.11,0.109
	c-2.175-1.016-4.143-2.529-6.123-4.18c-10.426-8.666-26.107-9.777-32.352-23.906c1.687,10.375,9.924,19.565,18.822,25.385
	C148.084,281.82,158.913,281.197,168.312,284.301z M138.099,168.031c4.167-3.911,9.007-6.808,12.54-11.477
	c4.241-5.61,7.933-11.856,13.457-16.696c-7.529,2.933-15.596,5.928-20.484,13.652C140.763,158.021,140.348,163.362,138.099,168.031z
	 M190.703,289.898c1.577-0.392,3.496-0.27,4.962-0.795c-6.086-1.233-11.965-3.08-16.683-7.395
	c-6.771-6.195-12.772-12.797-20.02-17.611c5.671,7.639,7.284,18.725,17.649,22.635c1.833,0.697,3.936,0.808,5.524,1.81
	c-1.992,0.306-3.74-0.306-5.598-0.708c-13.359-2.85-29.675,0.818-39.686-10.572c3.801,7.443,11.624,13.322,19.128,15.803
	C167.628,296.891,179.765,292.611,190.703,289.898z M129.177,255.188c5.879,4.633,12.895,8.25,18.248,12.32
	c-1.051-2.664-2.774-5.121-3.471-7.943c-3.153-12.713-1.393-27.416-6.844-39.172c1.015,6.685-1.638,12.588-2.249,18.945
	c-0.501,5.229,0.416,10.304,2.445,14.703c0.599,1.295,1.687,2.469,1.992,3.801c-1.956-1.76-3.349-4.021-4.693-6.209
	c-6.319-10.229-19.58-16.891-20.485-29.333c-0.452,5.536,0.037,11.415,1.882,16.329
	C118.568,245.459,123.493,250.715,129.177,255.188z M131.071,242.501l0.562,0.452c-0.599-4.105-0.904-8.531,0.257-12.454
	c1.772-6.271,3.984-12.369,5.158-18.871c0.904-5.048,1.943-10.719,1.356-15.62c-0.672,2.64-1.369,5.243-2.823,7.492
	c-5.5,8.519-11.159,18.518-7.296,29.334c-0.086,0.121-0.22,0.268-0.354,0.184c-1.552-3.569-1.895-7.64-2.897-11.478
	c-2.665-10.157-10.486-18.651-8.189-30.396c-1.21,2.554-1.699,5.426-2.334,8.201c-1.356,7.187,0,14.801,1.956,21.401
	C118.886,229.02,126.977,234.936,131.071,242.501z M141.252,187.807c1.821-3.691,2.958-7.859,3.458-11.929
	c-0.672,1.735-1.735,3.336-3.166,4.706c-6.074,5.756-13.236,11.44-14.618,19.592c-0.195,1.161-0.293,2.359-0.636,3.495
	c-0.269,0.11-0.269-0.183-0.378-0.256l0.757-10.12c0.733-9.863-4.461-20.839,1.247-29.529c-0.196-0.037-0.306,0.11-0.453,0.195
	c-5.194,6.625-8.653,13.873-8.653,22.758c0,10.976,6.319,18.639,7.102,28.955C127.539,204.918,136.571,197.279,141.252,187.807z
	 M314.991,221.553c-1.002,3.825-1.345,7.896-2.896,11.477c-0.146,0.072-0.27-0.073-0.354-0.184
	c3.85-10.816-1.797-20.813-7.298-29.333c-1.441-2.237-2.139-4.852-2.822-7.492c-0.6,4.901,0.452,10.56,1.355,15.62
	c1.162,6.502,3.387,12.601,5.158,18.873c1.161,3.922,0.855,8.348,0.256,12.453l0.563-0.451c4.095-7.566,12.186-13.481,14.63-21.731
	c1.956-6.6,3.301-14.227,1.956-21.401c-0.636-2.775-1.125-5.659-2.335-8.201C325.478,202.901,317.655,211.383,314.991,221.553z
	 M286.855,274.805c-1.98,1.65-3.947,3.166-6.123,4.18l-0.11-0.108c2.407-2.176,5.011-4.769,6.869-7.479
	c5.964-8.653,3.972-20.496,8.567-29.677c-4.181,4.999-8.092,10.146-10.498,15.865c-3.875,9.215-5.184,19.714-13.86,26.717
	c9.387-3.092,20.228-2.479,28.673-8.018c8.886-5.817,17.124-15.009,18.822-25.386C312.962,265.027,297.281,266.127,286.855,274.805z
	 M313.341,193.307l0.758,10.12c-0.108,0.073-0.108,0.379-0.379,0.256c-0.342-1.124-0.438-2.322-0.636-3.495
	c-1.381-8.152-8.543-13.836-14.617-19.592c-1.441-1.369-2.494-2.97-3.166-4.706c0.502,4.07,1.639,8.226,3.459,11.929
	c4.682,9.472,13.714,17.111,15.327,27.867c0.782-10.315,7.102-17.979,7.102-28.955c0-8.885-3.459-16.133-8.653-22.758
	c-0.146-0.073-0.257-0.22-0.452-0.195C317.814,172.468,312.607,183.443,313.341,193.307z M263.475,287.809
	c-1.856,0.416-3.604,1.027-5.598,0.721c1.588-1.002,3.691-1.122,5.523-1.809c10.365-3.91,11.979-14.996,17.648-22.635
	c-7.247,4.814-13.249,11.415-20.021,17.611c-4.717,4.313-10.584,6.16-16.682,7.395c1.467,0.538,3.373,0.416,4.961,0.795
	c10.939,2.713,23.076,7.004,34.725,3.153c7.517-2.481,15.339-8.349,19.128-15.804C293.15,288.628,276.834,284.961,263.475,287.809z
	 M305.396,251.631c-1.332,2.188-2.727,4.449-4.683,6.209c0.308-1.32,1.396-2.506,1.993-3.801c2.027-4.389,2.945-9.473,2.443-14.703
	c-0.61-6.355-3.264-12.26-2.248-18.945c-5.451,11.757-3.69,26.46-6.846,39.171c-0.695,2.813-2.406,5.28-3.471,7.944
	c5.354-4.069,12.369-7.688,18.248-12.319c5.683-4.474,10.608-9.729,13.175-16.562c1.847-4.926,2.322-10.793,1.87-16.329
	C324.977,234.752,311.728,241.4,305.396,251.631z M259.416,297.488c-8.995-3.727-18.148-8.689-28.404-8.689
	c-3.727,0-7.418,0.637-11.012,1.711c-3.593-1.088-7.272-1.711-11.012-1.711c-10.254,0-19.409,4.963-28.404,8.689
	c-8.14,3.373-18.933,2.714-26.144-2.262c3.569,4.475,8.335,7.235,13.273,9.106c9.154,3.653,19.849,0.854,27.646-4.132
	c5.61-3.594,10.426-8.678,17.111-8.678c1.198,0,2.408,0.184,3.605,0.439c-9.399,3.752-17.955,10.327-24.628,16.695
	c1.222,1.404,2.811,2.713,4.302,3.91c7.431-7.676,15.853-15.938,24.237-19.371c8.397,3.434,16.819,11.695,24.237,19.371
	c1.49-1.209,3.08-2.519,4.303-3.91c-6.662-6.368-15.229-12.932-24.629-16.695c1.211-0.257,2.408-0.439,3.605-0.439
	c6.686,0,11.502,5.084,17.111,8.678c7.799,4.986,18.479,7.785,27.646,4.132c4.927-1.871,9.705-4.621,13.273-9.106
	C278.361,300.202,267.557,300.861,259.416,297.488z M305.531,172.016c0.831,2.799,2.053,5.415,2.713,8.311l-0.184,0.146
	c-1.234-3.263-3.36-6.404-6.136-9.02c-5.231-4.938-13.114-7.932-15.704-15.155c0.12,10.046,8.678,17.673,16.5,23.589
	c3.506,2.652,6.488,6.209,8.311,9.937c-0.307-2.774-0.44-5.084-0.195-7.798c0.807-8.775,1.319-18.614-4.693-25.275
	c-2.873-3.19-6.1-5.671-9.924-6.649C303.648,155.21,303.246,164.364,305.531,172.016z M289.361,156.542
	c3.545,4.681,8.385,7.578,12.552,11.489c-2.249-4.669-2.664-10.01-5.524-14.532c-4.889-7.725-12.955-10.719-20.484-13.652
	C281.43,144.699,285.12,150.932,289.361,156.542z"/>
<path fill="#FFFFFF" d="M186.499,216.101c0.073,0.843,0.684-0.538,0.684-0.538v-5.219l-1.356-0.159l0.073,0.538h0.379
	c0.599,1.076,0.073,3.679,0.073,3.679s-0.904,0.073-1.063-0.379c-0.147-0.464-0.526,1.002-0.232,1.234
	C185.362,215.49,186.426,215.258,186.499,216.101z M160.258,242.195l-0.379-1.075l-1.137-0.524l0.538,1.381l0.293,0.685l0.611,0.844
	l0.831,0.771l0.306-0.539l-0.538-1.147L160.258,242.195z M226.416,212.801c0.393,0.232,1.003-0.269,0.611-0.538
	c-1.137-0.77-1.063-1.76-1.356-2.457c-0.134-0.293-0.452-0.538-0.685,0.073v1.002C224.986,210.882,226.05,212.569,226.416,212.801z
	 M260.773,215.258c0.293,0.085,0.599,0.232,0.293-0.685c-0.305-0.917-2.14-0.134-1.81,0.306
	C259.71,215.49,260.468,215.185,260.773,215.258z M252.45,183.639c0,0-0.147,1.455-0.599,1.76h-1.076v0.012
	c0,0,0.231,0.379,0.451,0.611c0.232,0.232,0.758,0.696,0.232,1.002s0.073,0.232,0.073,0.232s-0.073,1.613-0.759,1.381
	c-0.684-0.232-0.903,0.843-0.903,1.149s2.688,0.428,2.272,0c-0.231-0.232,0.307-0.77,0.307-0.77s1.82,0.159,2.199,0.159
	s0.685-0.074,0.451-0.465c-0.23-0.379-0.904-0.305-0.904-0.305s-0.903,0.232-1.733-0.232c-0.832-0.464,0.146-0.611,0.306-0.611
	c0.158,0,0.832-0.538,0.524-0.917c-0.306-0.379,0-1.076,0-0.77s0.832,0.464,0.989,0.232c0.146-0.232,0-0.917-0.379-1.149
	s0.686-0.379,0.379-0.77c-0.329-0.391-0.477-0.855-0.477-0.855S253.354,183.944,252.45,183.639z M222.113,212.801
	c0.307,0.073,0.074-1.076,0.074-1.076l-1.356,0.99c0.685,0.098,0.758,0.782,0.831,1.087
	C221.82,214.476,221.809,212.728,222.113,212.801z M215.686,218.179l-0.685,0.074l0.074,1.075l0.452,0.379l0.831,0.232
	c0,0,1.137-0.306,1.21-1.222l-1.736-0.073L215.686,218.179z M214.255,204.209l-0.831-0.073l-0.159,0.379h-0.367l-0.085,0.611h0.452
	l0.085,0.464l-0.306,0.306l-0.146,0.391l-0.611,0.146l-1.356,1.308l-0.085,0.611l-0.367,0.538l-0.452,1.149l-1.601,0.073
	l-0.293,1.393l0.22,1.149l1.357,0.538l0.159-0.77l0.452-0.232l0.074-0.77l0.305-0.538l0.453-0.538l0.159-0.611l0.746-0.452
	l0.917-0.159l0.379-0.464l0.147-0.917l0.061-0.685l0.317-0.464l0.905-0.391v-1.455h-0.452L214.255,204.209z M233.311,189.396
	c0,0.232,0.525,0.464,0.83,0.464c0.308,0,1.137-0.611,1.137-0.611s0.38-1.076,0.074-1.002c-0.307,0.073-0.903,0.538-0.979,0.073
	c-0.073-0.464-0.979-0.232-0.979-0.232l-1.209,0.159l-0.074,0.538l0.832,0.073C232.932,188.858,233.311,189.176,233.311,189.396z
	 M238.468,163.509l1.81,1.54v-0.611c-0.012,0.012-0.086-0.599-0.465-0.599s-1.063-0.464-0.903-0.77
	c0.146-0.306-1.283-0.611-1.283-0.611s-1.283-1.234-0.832-1.076c0.453,0.159,0.231-0.538,0.231-0.538s-0.903,0.159-1.137,0.073
	c-0.231-0.073-0.146-0.77-0.146-0.77s-0.904-0.232-0.904,0s0.306,0.232,0.452,0.684c0.146,0.465,0.072,1.235,0.758,1.381
	c0.686,0.159,0.831,0.306,0.904,0.611c0.072,0.306,0.904,0.379,0.904,0.379L238.468,163.509z M260.993,181.109l0.758-0.232
	c0,0,0.073-0.771-0.231-0.538c-0.307,0.232-0.525-0.538-0.832-0.464c-0.305,0.073-0.451-0.306-0.758-0.685
	c-0.305-0.379-0.231-0.464-0.611-0.697c-0.379-0.232-0.609-0.232-0.609,0.074c0,0.305,0.379,0.464,0.23,0.843
	c-0.146,0.391,0.16,0.696,0.466,0.696s0.524,0.159,0.831,0.306C260.541,180.571,260.762,180.791,260.993,181.109z M187.636,218.252
	l-0.538-0.232l0.085-1.149l0.453-0.073l0.073-0.538l-1.137,0.771l-0.758-0.464v1.846l1.21,1.613l0.452-1.076L187.636,218.252z
	 M217.274,224.314c-0.452-0.465-0.855,1.039-1.027,1.381c0.012,0.013,0.184,0.636,0.514,0.587c0.342-0.062,0.562-0.232,0.843-0.294
	c0.281-0.062,0.403-0.514,0.513-0.978c0.11-0.465-0.11-0.696-0.11-0.696S217.727,224.779,217.274,224.314z M211.982,156.762
	c0,0,1.137,0.098,1.21,0.318c0.073,0.232,0.831,0.306,0.904,0.073c0.073-0.233,0.379-0.697-0.306-0.697s-0.525-0.379-0.758-0.611
	c-0.232-0.232-1.796-0.196-1.735,0.073C211.371,156.298,211.982,156.762,211.982,156.762z M231.867,154.012
	c0.025,0.024,0.074-0.061,0.098-0.061C231.709,153.829,231.55,153.768,231.867,154.012z M233.689,153.633
	c0,0-0.832-0.073-0.832-0.306c0-0.208-0.551,0.66-0.881,0.636c0.366,0.183,0.955,0.513,0.955,0.513c0.598,0,0.977,0.465,0.977,0.697
	s0.832,0.159,0.832,0.159l0.072-0.538l-0.599-0.782L233.689,153.633z M263.107,185.937c0,0.232,0.453-0.843,0.453-0.843
	c-0.379-0.306-0.687-1.002-0.687-1.002s-0.379-1.076-0.379-1.222c0-0.159-0.524-0.306-0.759-0.379
	c-0.23-0.074-0.609-0.77-0.609-0.77l-0.893,0.073c0.22,0.306,0.685,0.538,0.685,0.843c0,0.305-0.146,0.538,0.306,0.611
	s0.758-0.074,0.904,0.305s0.146,1.002,0.073,1.308c-0.073,0.305,0.073,0.77,0.452,0.77
	C263.034,185.631,263.107,185.705,263.107,185.937z M260.614,184.874c0,0,0.049-0.037,0-0.049V184.874z M234.766,141.032
	c-0.393,0.159-1.149,0.085-1.149,0.085h-1.356c-0.072-0.538-1.283-0.305-1.355,0c-0.073,0.306-0.525,0.379-0.525,0.379l-1.736,0.159
	c-0.146,0.464-1.063,0.77-1.137,0.464c-0.17-0.672-1.137,0.843-0.146,1.149c0.979,0.305,1.97,0,1.97,0l0.231-0.464l3.775,0.073
	c0.307-0.306,0.453-0.77,0.453-0.77s0.904-0.306,1.283-0.159C235.449,142.108,235.145,140.874,234.766,141.032z M265.613,192.695
	c-0.379-0.073-0.221-1.148-0.221-1.148s0.379-1.455-0.231-1.455c-0.611,0-0.146-0.77-0.524-1.002
	c-0.38-0.232-0.147-1.308-0.307-1.613c-0.146-0.306-0.146-0.696-0.525-0.917c-0.379-0.232,0.073,0.843-0.146,1.002
	c-0.231,0.159-0.379,0.464-0.611,0.696c-0.243,0.22,0.438,0.526,0.438,0.758s0.16,1.381,0.16,1.381s0.524,0.232,0.599,0.538
	c0.073,0.306,0,0.917,0.231,1.002c0.222,0.073,0.686,0.379,0.525,0.684c-0.146,0.306-0.146,0.917-0.146,0.917l0.307,0.696l0.6,0.379
	C265.76,194.614,265.992,192.769,265.613,192.695z M226.648,144.882v-0.843l-0.293-0.306l-0.307-1.076l-0.979-0.306l-0.979,0.379
	l-1.063,0.697l-1.137,0.159l-0.611,0.684l2.42,0.232l0.453,0.77l1.734,0.159l1.137,1.149c0.99,0.306,1.211-0.159,0.61-0.685
	L226.648,144.882z M254.699,153.414l1.148,0.379c0,0,1.418,1.674,1.356,0.843c-0.147-2.298-1.211-2.383-1.59-2.836
	c-0.38-0.464-2.005,0.086-1.896,0.697C253.795,152.875,254.1,153.267,254.699,153.414z M294.959,207.558
	c0-9.802-1.883-19.299-5.439-28.111c-3.715-9.204-9.289-17.661-16.512-24.897c-7.26-7.26-15.754-12.833-25.007-16.561v0.012
	c-8.774-3.557-18.247-5.414-28.001-5.414c-12.051,0-23.442,2.872-33.538,7.957c-14.593,7.333-26.486,19.287-33.721,33.941
	c-4.926,9.986-7.712,21.206-7.712,33.073c0,7.26,1.039,14.349,3.019,21.131c3.483,11.93,9.9,22.931,18.932,31.961
	c6.111,6.111,13.102,11.037,20.68,14.668c9.961,4.767,20.973,7.199,32.352,7.199c11.919,0,23.412-2.783,33.757-8.019l0.013,0.024
	c7.016-3.545,13.505-8.213,19.226-13.935c6.014-6.014,10.865-12.882,14.483-20.313l-0.013-0.012
	C292.367,230.193,294.959,219.083,294.959,207.558z M287.857,180.156c3.36,8.323,5.183,17.269,5.293,26.497h-13.519
	c-0.11-7.358-1.553-14.495-4.205-21.144c-0.354-0.88-0.903-1.65-1.295-2.518c0.085-0.416,0.257-1.234,0.929-1.027
	c0.758,0.232,0.231-1.687,0.231-1.687s-1.063-0.77-0.99-1.149c0.074-0.379-1.063-1.149-0.977-1.455
	c0.071-0.305-0.979-0.917-0.905-1.222s-0.525-1.149-0.525-1.149l-1.137-1.076l-0.146-0.696l-0.903-0.073l-1.81-2.225l0.074-0.611
	l-0.525-0.073v-0.843l-0.525-0.306l-0.832-0.073l-1.699-1.882l-0.146-0.843h-0.83l0.121-1.308l8.837-8.837
	C279.119,163.387,284.338,171.429,287.857,180.156z M259.025,241.059c-0.146,0.307-1.137,0.074-1.137,0.379
	c0,0.307-0.6,1.847-0.306,2.385v0.049l-4.719-4.719c3.702-3.85,6.649-8.25,8.774-13.004c2.457-5.5,3.814-11.478,3.937-17.675h12.233
	c-0.121,8.409-2.063,16.366-5.426,23.542c-2.738,5.842-6.43,11.17-10.878,15.767l-0.33-0.33l-0.11-1.943l-0.379-0.379l-0.072-1.919
	C260.92,242.208,259.172,240.754,259.025,241.059z M251.229,252.646c-0.979-0.123-0.525-1.149,0.379-1.309l0.525-0.232v-0.696
	l1.734-1.613v-1.233l-3.775-3.152c-0.832-0.307-0.832-1.369-0.49-2.359c0.648-0.563,1.357-1.039,1.992-1.638l5.317,5.315
	c-0.208,0.403-0.392,0.795-0.306,1.053l0.685,0.305l0.073,1.309c0.514,0.525,1.638,0.488,2.555,0.33l0.316,0.317
	c-2.773,2.726-5.892,5.011-9.153,7.101v-0.574C252.438,254.564,252.523,252.805,251.229,252.646z M247.902,232.54l0.525-0.464
	v-0.771l0.452-0.158l0.074-1.688l0.379-0.073v-3.679l-1.138-1.075c-0.073,0.379-1.283,0.379-1.283,0.379s-0.307,0.537-0.525,0.537
	s0.307,0.697,0.147,1.147c-0.147,0.466-0.759,0.466-0.759,0.466l-1.137,0.306l-0.307,0.379h-1.209L243,227.039l0.195-0.245
	l1.137-0.317l0.758-0.379l0.379-0.77c0.074-0.771,0.979-0.686,0.979-0.686s1.735-1.455,1.809-2.15
	c0.074-0.696,0.685-2.615,1.735-2.615h1.968c0.758-0.306,0.524-1.308,0.524-1.308l0.979-0.159l0.146,0.538
	c0,0,1.356,0.159,1.517-0.073c0.146-0.232,0.452-0.77,0.831-0.538s1.589-0.538,1.589-0.538c0.073-0.538,1.968-0.305,1.968-0.305
	l0.231-0.685c0,0-1.283-1.76-1.517-1.76c-0.23,0-1.44-1.075-1.588-0.696c-1.211-0.306-1.137-1.992-1.137-1.992l-0.453-1.076
	c0-0.611-1.137-1.919-1.355-1.76c-0.478-0.354-0.563-0.721-0.538-1.051h10.571c-0.084,5.952-1.416,11.623-3.703,16.781
	c-2.063,4.656-4.912,8.886-8.396,12.517c-0.146-1.554-0.478-3.252-0.478-3.252l-0.61-0.306l0.146-1.846h-0.83l-1.356,1.771
	l-0.146,0.489l-0.771-0.771l0.392-0.402L247.902,232.54z M226.063,235.29h-0.013l-0.831-0.231l-0.072-1.148
	c-0.146-0.771-1.59-0.771-1.517-0.232s-2.7,0.232-2.714,0.232v-2.114l0.746-0.795l1.736-0.379c0.146-0.771,0.903,0.158,0.903,0.158
	c0.759-0.072,0.904,0.465,0.904,0.465l0.989,0.159c0.83,0.231,0.33,0.316,0.38,0.611c0.071,0.463,0.45,0.305,0.45,0.305l0.146-1.002
	l0.453,0.072l-0.453-0.537l-0.83-0.379l-0.904-0.379c-0.6-0.844,0.146-0.697,0.758-0.611h0.978c0,0,1.138,1.527,1.138,1.92
	c0,0.379,0.524,0.464,0.524,0.464l0.687-0.072l0.231,0.537h0.685l0.231,0.465h1.356l0.072-0.696l-1.283-0.232l-0.072-0.77
	l-0.904-0.232c-0.306-1.309,0.221-1.688,0.6-1.075l0.453,0.073l-0.147-1.148l0.526-0.158l-0.147-1.613l-0.452-0.147v-0.562
	l1.895,0.072c-0.146-1.002,0.074-1.453,0.074-1.453h0.524l0.073,0.377l2.311,0.222l0.109,0.012c0.904,0.538,0.453,1.234,0.146,1.382
	c-0.305,0.159-0.829,0.159-0.829,0.159l-0.146,0.306l-1.969,0.146l-0.146,0.771c-0.979-0.158-1.355,0.918-1.137,1.455
	c0.232,0.537,0,1.002,0,1.002l0.832,0.379l1.063-0.306c0.146-0.77,0.831-0.93,1.442-1.381c0.55-0.416,1.296,0.586,1.222,1.246
	c-1.222,0.854-2.322,1.87-3.666,2.53C230.463,234.129,228.299,234.801,226.063,235.29z M226.086,250.652
	c-1.723,0.246-3.385,0.647-5.17,0.686v-1.724c0.393-0.429,1.871-0.478,2.566,0.036c0.832,0.61,1.969,0.231,1.969,0.231
	L226.086,250.652z M224.62,223.496l0.062-0.575c0.379-0.11,0.781-0.122,1.148-0.257c-0.073,0.208-0.012,0.502-0.012,0.502
	l0.379,0.158l-0.687,0.537l-0.598,0.697l-0.759-0.232l-0.904-0.072l-0.307-0.538l-0.524-0.073l-0.073,1.075l-0.379,0.464
	l-0.904,0.93c0.953,0,0.317,0.515-0.146,0.732v-3.066c0.93-0.049,1.761-0.403,2.652-0.6l0.367,0.318H224.62L224.62,223.496z
	 M224.303,221.111v-1.466l0.758-0.843c0.808-0.281,0.672,1.417,0.623,1.993C225.256,220.979,224.754,220.966,224.303,221.111z
	 M236.182,221.088c-0.072-0.306,1.283-0.77,1.064-0.072c-0.232,0.695,0,1.002,0,1.002c0.977-0.918,1.809,0.072,1.734,0.306
	c-0.072,0.231,0.525,0.465,0.904,0.231c0.379-0.232,0.831,0.696,0.686,1.148c-0.146,0.465-1.516,0.379-1.59-0.073
	c-0.072-0.464-0.306-0.306-0.451-0.073c-0.135,0.209-0.697,0.318-1.076,0.172l-0.281-0.28c0.037-0.087,0.11-0.16-0.012-0.281
	c-0.086-0.099-0.244-0.086-0.367-0.099l-0.623-0.623C236.133,221.968,236.23,221.32,236.182,221.088z M253.721,179.948l0.637,0.819
	c0.05,0.318,0.207,0.55,0.5,0.648c1.224,1.625,2.336,3.288,3.302,5.048c-0.086,0.098-0.123,0.183-0.123,0.183l-1.209,0.159v1.222
	l-0.611,0.232l0.072,0.77l0.832-0.073c0,0,0,0.917,0.231,0.538c0.232-0.379,2.114,0.073,1.967,1.002
	c-0.061,0.379,1.896,1.381,1.662,2.603c0.209,0.037,0.196,0.171,0.318,0.269c0.367,1.063,0.66,2.151,0.941,3.251l-0.049,0.098
	l0.108,0.122c0.271,1.039,0.552,2.065,0.734,3.129c-0.074,0.77-0.245,1.503-0.624,1.735c-0.904,0.538,0.072,0.232,0.072,0.232
	l-0.146,1.687c0.231,0.77,0.599,0.379,0.831,0c0.073-0.122,0.159-0.183,0.232-0.256c0.109,1.112,0.328,2.163,0.354,3.287h-9.143
	l0.158-0.183l0.379-1.076l1.283-0.379l0.146-1.002l-0.686-0.073c0,0,0.758-1.381,1.137-1.381c0.38,0,2.873,0,3.104-0.159
	c0.232-0.159,0.685-1.381,0.685-1.613s0.611-0.306,0.832-0.379c0.231-0.073,0.758-0.685,0.903-1.002
	c0.147-0.306-0.379-2.225-0.685-1.919c-0.305,0.305-0.979,0.464-0.979,0.464l-0.23,0.843l-0.379,0.306c0,0,0.072,0.232,0,0.77
	c-0.074,0.538-0.758,0.843-0.758,0.843l-0.308,0.379c0,0-1.819,0.098-2.041,0c-0.684-0.306-0.22-1.222,0.232-1.149
	s-0.073-1.308-0.073-1.308l0.611-0.074c0,0,0.072-1.381,0.306-1.381s-0.074-0.464-0.379-0.685c-0.306-0.232-0.685-1.002-0.99-0.917
	c-0.306,0.073-1.516,0-1.516,0l-0.232,0.464l-0.831,0.159c0,0,0.073,0.599-0.072,0.77c-0.453,0.538-2.188,1.687-1.442-0.232
	l0.22-0.464v-0.697l-1.355-0.073c0,0-0.686-0.232-0.686-0.538s-0.072-0.685-0.072-0.685l-1.59-1.76l-1.895-0.232l-0.146-0.379
	l-1.137-0.159c-0.146-0.073-0.244,0.012-0.391-0.037c-0.502-0.807-1.161-1.503-1.748-2.273l-0.135-0.538
	c-0.062-0.269-0.855-1.283-1.309-1.345c-0.208-0.232-0.342-0.501-0.563-0.721l9.388-9.387c0.256,0.256,0.342,0.416,0.731,0.697
	c0.063,0.037,0.099,0,0.159,0.024c0.354,0.317,0.611,0.721,0.917,1.087l-0.062,0.085
	C253.122,180.058,253.402,180.021,253.721,179.948z M242.171,195.066c0.22,0.306-0.306,0.771-0.524,0.538s-0.832-0.917-0.686-1.149
	s-1.063-1.687,0.146-1.919c1.211-0.232-0.072-0.917,0.379-1.076l0.6-0.305h0.6l0.269-0.22c0.342,0.477,0.758,0.904,1.075,1.394
	c-0.036,0.171-0.243,0.232-0.207,0.44c0.23,1.161,0.599,1.613-0.147,1.613c-0.758,0-0.903-0.611-0.903-0.611s-0.6-0.232-0.6,0.073
	C242.171,194.15,241.939,194.761,242.171,195.066z M242.867,190.826l-0.781-0.123l-0.6-0.073l-1.137-0.073
	c-1.138,0.77-1.356,1.687-1.356,1.687c-0.55,1.039-1.711-0.159-1.54-0.855l1.968-1.98c0.099,0.012,0.22,0.073,0.317,0.073
	c0.453,0,1.443-0.159,1.443-0.159l0.646,0.146C242.195,189.909,242.537,190.374,242.867,190.826z M237.186,233.371l-0.246-0.916
	l1.97,1.002c0.231,0.305,1.209,0.232,1.209,0.232l0.307,0.379c0,0,0.61-0.074,0.989,0.379c0.379,0.464,2.348,0.072,2.348,0.072
	l0.524,0.465l0.832,0.306l1.403,0.049l0.856,0.854c-1.369,0.637-4.119,0.429-4.302,0.246c-0.232-0.232-1.811-0.918-1.811-0.918
	s-1.209-1.002-1.441-0.685s-1.283-0.379-1.283-0.159c0,0.221-0.979-0.537-0.979-0.537l-1.516-0.537L237.186,233.371z
	 M265.564,206.653c-0.037-2.078-0.342-4.106-0.66-6.124c0.123-0.428,0.221-0.843,0.074-0.99c-0.222-0.232,0.23-1.308,0.23-1.308
	s0.307-0.611,0-1.234c-0.307-0.611,0.073-1.308,0.307-1.614l-0.601-0.305l-0.599-0.074l-0.623,0.11l-0.379-1.296l0.098-0.195
	l0.379,0.073v-0.464l-0.696-0.196c-0.061-0.183-0.098-0.379-0.172-0.574l-0.121-1.919l-0.524-0.379l0.146-0.611l-0.601-0.232
	l0.307-1.002l-0.525-1.075h-1.015c-0.33-0.648-0.623-1.32-0.989-1.956c0-0.11,0.036-0.245,0.416-0.354
	c0.402-0.11,0.549-0.135,0.598-0.123l-0.072-0.794l-0.686-0.464l-0.23-0.917c0,0-0.832,0.159-0.758,0.611
	c0.012,0.085-0.172,0.098-0.232,0.159c-0.477-0.77-1.1-1.442-1.626-2.188c0.036-0.122,0.05-0.244,0.11-0.354
	c0.305-0.538,0.146-0.843-0.379-1.002s-0.525-0.159-0.686-0.77c-0.146-0.611-0.758-0.77-0.758-0.77l-0.232-0.917l-0.707,0.44
	c-0.281-0.33-0.502-0.697-0.795-1.015l0.305-0.965c-0.316-0.061-0.402-0.269-0.488-0.464l2.249-2.2
	c1.075,0.611,1.942,1.956,1.81,2.225c-0.146,0.305,0.904,0.232,0.904,0.232c0.146-1.381,1.441-0.917,1.516-0.464
	c0.072,0.464,0.306,1.455,0.306,1.455l0.379,0.684l0.524,0.538l0.832-0.073l0.231,0.464l0.978,0.159c0,0,0.832,0.917,0.904,1.149
	c0.074,0.232,1.211,0.159,1.516,0.232c0.308,0.073,0.759,0.305,0.832,0.696c0.072,0.379,0.525,1.002,0.525,1.002
	s0.904,0.232,0.979,0.538c0.072,0.306,0.451,1.002,0.451,1.002l0.758,0.611l0.074,0.696l0.83,0.073l0.232,0.917l1.355-0.073
	l0.758-0.538c0.197-0.11,0.317-0.232,0.49-0.342c0.28,0.636,0.695,1.198,0.94,1.833c2.554,6.429,3.946,13.322,4.058,20.436H265.564
	L265.564,206.653z M220.904,134.42c9.203,0.11,18.138,1.931,26.449,5.268v-0.012c8.737,3.52,16.793,8.739,23.734,15.51l-8.055,8.055
	c-0.293,0.073-0.61,0.159-0.831,0.061c-0.524-0.232,0.221-0.77,0.221-0.77v-0.611l-0.452-0.464c0,0-1.283,0.159-1.356-0.073
	s-0.306-1.234-0.306-1.234l-0.074-1.308l-0.524-0.232l-0.073-0.464l-0.83,0.073V157.3l-0.453-0.159l-0.465-0.208l-0.072-0.917
	l-1.662-0.073l-0.525-0.77l-0.599-0.917l-1.896-0.159l-0.453-0.464l-0.758-0.159l-0.525-0.232l-0.231,0.379l-1.44,0.073
	l-0.074,0.464c-0.549,0.281-2.248,0.196-3.201,0.22c-1.434-0.973-2.23-1.379-4.033-2.102c-6.747-2.738-14.02-4.229-21.512-4.339
	V134.42H220.904z M220.908,155.173c0.428-0.012,0.705-0.122,0.754-0.318c0.072-0.306,0.146-0.379,0.6-0.464
	c0.451-0.073-0.074-1.002-0.525-0.917c-0.393,0.061-0.683-0.171-0.829-0.452v-3.276c7.261,0.11,14.298,1.564,20.837,4.217
	c1.234,0.501,2.484,1.156,3.568,1.858c-0.062,0.098-0.098,0.269-0.194,0.269c-0.379,0-0.231,1.002-0.231,1.002s0.989,0,1.282,0.073
	c0.306,0.073,0.306,0.843,0.306,0.843c1.137-0.073,1.59,1.455,1.442,1.846c-0.146,0.379,0.451,0.379,0.451,0.379s0,1.222-0.146,1.54
	c-0.146,0.306,0.989,0.538,1.282,1.002c0.308,0.465-0.146,1.992-0.379,2.078c-0.231,0.073,0.601,0.305,0.524,0.696
	c-0.071,0.379,0.232,0,0.308,0.611l0.231,1.919l1.063,0.073c0.146-1.002,2.103-1.039,2.42-0.917
	c1.283,0.464,2.272,2.457,2.272,2.921s-0.83,0.538-0.83,0.538l0.035,0.501l-2.7,2.701c-0.244-0.147-0.513-0.293-0.659-0.208
	c-0.379,0.232-0.232-1.613-0.232-1.613s0.686-0.464,0.99-0.232c0.307,0.232-2.566-3.838-3.178-3.459
	c-0.6,0.379-1.969-0.379-1.895-1.076c0.072-0.685-2.727-2.995-2.727-2.995s-0.904-0.611-1.063-0.146
	c-0.146,0.464-0.453,0.77,0,1.002c0.451,0.232,0.379-0.379,0.903,0.159c0.526,0.538,1.517,1.222,1.138,1.687
	s-0.832,0.611-0.832,0.611l0.525,0.611h0.832l0.146,1.308c0,0,0.904,0.464,1.137,1.002c0.184,0.44,0.121,0.685,0,0.954
	c-1.688-1.284-3.41-2.457-5.244-3.483c0.037-0.196,0.135-0.391,0.098-0.538c-0.146-0.538,0.611-0.77,0.979-0.159l0.758-0.073
	l0.146-0.697l-1.051-0.868h-0.832c0,0-0.072,0.611-0.599,0.379c-0.524-0.232-0.231-0.159-0.685-0.232
	c-0.452-0.073-0.305,1.002-0.232,1.308l-0.023,0.086c-1.197-0.624-2.334-1.369-3.582-1.87c-5.133-2.102-10.665-3.263-16.359-3.374
	l-0.004-6.807H220.908z M220.908,163.79c5.476,0.11,10.775,1.222,15.701,3.239c3.826,1.577,7.334,3.862,10.608,6.478
	c0.173,0.171,0.33,0.269,0.354,0.281c0.354,0.293,0.732,0.563,1.088,0.868v0.464c0.55-0.135,1.332,0.55,1.431,1.075l-9.338,9.338
	c-2.688-2.53-5.771-4.522-9.082-5.916c-3.373-1.405-7.01-2.2-10.762-2.31l-0.007-13.517H220.908z M220.908,179.153
	c3.52,0.073,6.926,0.819,10.103,2.151c3.092,1.295,5.965,3.153,8.471,5.512l-0.525,0.526c-0.208-0.257-1.027-0.416-1.027-0.697
	c0-0.306-0.758-0.697-0.684-0.232c0.072,0.465-0.525,0.697-0.686,0.538c-0.146-0.159-0.599,0.464-0.599,0.464
	c0,0.232-0.147,0.538,0.306,0.611s1.282-0.306,1.356,0.159c0.022,0.159,0.062,0.281,0.099,0.403l-2.972,2.97
	c-0.428,0.024-0.831,0.012-0.831,0.012c-0.23,0.696-1.283-0.073-0.979-0.538c0.307-0.464,0.307-0.771,0.307-0.771l-0.379-0.073
	l-0.452,0.843c-1.063,0-1.356,0.611-1.138,1.002c0.232,0.379-0.305-0.073-0.451,0.464c-0.146,0.538,0.072,0.538,0.525,0.77
	c0.451,0.232-0.232,0.232,0.072,0.611c0.221,0.281,0.588,0.245,0.66,0.354l-0.293,0.293c-0.551,0.269-1.283,0.196-1.283,0.196
	c-0.025,0.208-0.281,0.22-0.477,0.293c-0.746-0.599-1.564-1.063-2.396-1.503l-0.072-0.098h-0.086
	c-0.379-0.208-0.709-0.525-1.101-0.696c0.231-0.159,0.55-0.257,0.722-0.758c0.305-0.843,0.451-2.225,0.451-2.225
	s-1.209-0.073-1.283,0.306c-0.072,0.379-0.83,0.611-0.83,0.611s-0.61,0.232-0.379,0.538c0.231,0.305-0.453,0.464-0.453,0.464
	s0.063,0.354-0.049,0.586c-1.197-0.354-2.376-0.758-3.647-0.831l-0.007-12.256h0.003L220.908,179.153z M214.182,191.009
	l-0.452,0.611l-0.146,0.697l-0.758,0.159v0.379H212.3v0.672c-1.076,0.599-2.176,1.149-3.092,1.956l-8.678-8.678
	c2.236-2.103,4.767-3.813,7.492-5.072c3.446-1.602,7.199-2.506,11.085-2.616v12.259c-1.43,0.085-2.75,0.513-4.058,0.941h-0.563
	l-0.073-0.844l0.379-0.232L214.182,191.009z M218.68,224.645c0.342,0.109,0.22,0.172,0.391,0.342l-0.171,0.404
	c-0.281-0.379-0.452,0.293-0.281,0.465c0.171,0.17-0.391,0.062-0.391,0.293s-0.171,0.343,0,0.465
	c0.171,0.109-0.061,0.171-0.281,0.343c-0.232,0.17,0.965,0.231,0.965,0.231s-0.22-0.465,0.061-0.465l0.123,0.023v0.588
	c-0.135-0.025-0.159,0.023-0.318-0.014v0.539l-0.611,0.072l0.526,0.61l0.403,0.049v1.261l-0.024,0.071
	c0,1.003-2.494,0.308-2.726,0.074l-0.073,1.381l-0.453,0.073l0.074,0.917l-0.074,1.308l0.831-0.158v0.537l2.042,0.073l0.403-0.416
	v1.418l-0.024,0.074l-1.357,0.157l-0.562,0.294l-0.049-0.013l-0.208-0.428h-0.599l-0.184,0.244
	c-1.846-0.133-2.848,0.102-5.451-0.893c-3.74-1.295-7.187-3.373-10.145-6.147l8.666-8.678c2.64,2.358,5.928,3.704,9.448,3.997
	l-0.012,0.098C218.619,223.838,218.338,224.534,218.68,224.645z M179.532,215.722c0.452,0.306-1.21,0.232-1.21-0.232
	c0-0.465-0.904-0.844-1.137-0.685c-0.122,0.085-0.281-0.11-0.403-0.33c-0.318-1.98-0.525-3.971-0.562-6h5.316l0.049,0.415
	l-1.137,1.234l0.147,1.222l-0.685,0.232l-0.146,0.538l-0.306,1.613l0.758,0.073c0.379-0.159,0.306,1.002,0,1.149
	C179.911,215.111,179.08,215.417,179.532,215.722z M179.642,246.656l-1.161,1.162c-0.684-0.723-1.271-1.504-1.919-2.237h0.184
	c0.379-1.308,2.188,0.073,2.347,0.538C179.153,246.29,179.41,246.473,179.642,246.656z M170.476,218.289
	c0.22,0.232-0.379,0.305-0.379,0.305v1.688l-0.379,0.537l0.073,1.846c0.452,0,0.379,0.844,0.379,0.844
	c-0.758,0.073-0.611,1.076-0.611,1.076l-1.589,0.537l-0.306,0.465l-1.968-0.074l-0.477,0.489c-0.159-0.489-0.391-0.99-0.538-1.491
	c-1.564-5.133-2.42-10.524-2.505-16.036h12.247c0.037,1.809,0.257,3.582,0.489,5.354c-0.88,0.098-1.723,0.379-1.723,0.379
	l-0.379,1.234c-0.831,0.159-1.357,1.54-1.357,1.54C170.769,217.213,170.243,218.057,170.476,218.289z M174.423,206.654h-12.247
	c0.122-8.458,2.065-16.611,5.622-24.03c2.677-5.573,6.246-10.743,10.67-15.302l8.678,8.666c-3.496,3.63-6.392,7.847-8.531,12.479
	C176.037,194.016,174.545,200.177,174.423,206.654z M191.351,195.714c0.611-0.073-0.232,1.308-0.599,1.222l-1.063,0.073
	l-0.379,0.379h-0.978L187.855,198l-1.43-0.073c0,0-0.832,0.696-0.758,0.917c0.073,0.232-0.147,0.917-0.379,0.917
	s-0.685,0.697-0.526,0.917c0.147,0.232-0.452,1.002-0.452,1.002l-0.146,0.77l-0.452,0.159v2.078l-0.905,0.611v0.917l-0.416,0.439
	h-6.147c0.122-6.086,1.491-11.94,3.96-17.33c2.017-4.4,4.779-8.482,8.226-12.063l9.545,9.558c-1.98,2.103-3.569,4.547-4.889,7.15
	c-0.354-0.012-0.746,0-0.844,0.269c-0.22,0.611-1.21,0.465-1.21,0.465l-0.146,0.305l-0.758,0.159l-0.146,0.464l-0.905,0.159
	L191.351,195.714z M186.792,233.298c0.147-0.929-0.525-1.991-0.525-1.991c-1.356-0.918-0.978-2.688-0.978-2.688v-1.224
	c-1.137-1.076,0.452-1.233,0.452-1.233c0.525-0.917-0.379-1.613-0.379-1.613l-0.073-1.002l-1.21-0.159l-0.147-3.605l-2.726-3.911
	c-0.525-0.159-0.146-1.076-0.146-1.076c0.685-0.379-0.147-1.308-0.147-1.308l-0.073-1.687l1.589-0.159l0.379-0.611h0.758
	l-0.073-1.992c0.184-0.477,0.489-0.586,0.758-0.586h0.098c0.22,0.037,0.428,0.122,0.428,0.122l1.063,0.073l0.11-0.173h3.606
	l0.305,1.946l-0.978,0.843c-0.831,0.464-0.831,1.54,0.073,1.76c0.599,0.073,0.379,1.54-0.525,0.538
	c-1.141,0,0.167,0.869,0.251,0.958c1.222,0.562,0.959-0.653,0.959-0.653l0.697-0.55c0.293,1.503,0.684,2.982,1.198,4.424
	c1.393,3.886,3.569,7.48,6.478,10.56l-9.606,9.57c-0.66-0.686-1.1-1.516-1.711-2.236c0.135-0.379,0.33-0.722,0.33-0.722
	C188.002,234.3,186.792,233.298,186.792,233.298z M185.741,206.507c-0.905-0.538-0.452-2.53-0.452-2.53
	c1.442-2.151,3.104-0.917,3.104-0.917l1.063-0.073c0.367,0.244,0.55,0.55,0.648,0.868c-0.073,0.55-0.171,1.088-0.208,1.65
	c-0.146,0.318-0.293,0.55-0.293,0.55c-0.086,0.123-0.074,0.379-0.098,0.599h-2.933l0.012-0.061L185.741,206.507z M179.777,166.039
	c4.375-4.241,9.313-7.712,14.63-10.34c7.602-3.764,15.986-5.83,24.7-5.952v12.247c-6.808,0.135-13.26,1.772-19.029,4.583
	c-4.302,2.102-8.225,4.84-11.635,8.128L179.777,166.039z M181.427,247.488c0.11,0.183,0.256,0.256,0.293,0.562
	c0.146,1.149,0.684,0.917,0.684,0.917l4.314-0.072l1.516-1.309l3.862-0.074c1.968-0.072,0.758-2.762,0.379-2.762
	c-0.257-0.208-0.257-0.66-0.196-1.137c3.092,2.383,6.344,4.498,9.888,6.014c5.292,2.249,11.013,3.385,16.929,3.495v12.247
	c-8.055-0.123-15.866-1.796-22.991-5.035c-5.989-2.714-11.525-6.467-16.365-11.16L181.427,247.488z M203.06,248.05
	c-4.718-1.979-9.057-4.84-12.895-8.409l-0.452-0.414l9.521-9.521c3.068,2.896,6.649,5.084,10.523,6.465
	c1.648,0.58,2.273,0.721,3.435,0.818c-0.184,0.16-0.501,0.343-0.452,0.453c0.146,0.379-0.599,0.77-0.599,0.77l-0.685,0.232
	l-0.452,0.697l-0.904,0.305l-0.147,1.613l-0.452,0.306v0.696l-0.525,0.146v0.379l-0.758,0.073l0.452,1.147l0.611,0.307
	c1.063,0.146,0.599,1.453,0.599,1.453l0.599,0.074l0.306,0.844l0.599,1.223c0.232,0.917,0.904,0.695,1.21,0.609
	c0.306-0.071,0.599,0.918,0.599,0.918l3.019,0.072c0,0-0.146,0.307,0.379,0.465c0.293,0.086,1.466,0.158,2.505,0.185v1.356
	C213.497,251.203,208.083,250.152,203.06,248.05z M199.247,227.04c-2.677-2.849-4.706-6.147-6.001-9.729
	c-0.575-1.589-0.978-3.239-1.259-4.925c0.635,0.244,1.32,1.247,1.32,1.43c0,0.232,3.019,0.073,3.019,0.073
	c0.831,0.538,1.137,1.919,1.137,1.919c0.831-1.075,2.566-0.073,1.283,0.538c1.21,0.77,1.21,1.454,1.21,1.454
	c0.99-0.305,0.99,0.465,0.99,0.697s0.306-1.149,0.306-1.149c-1.137-0.843,1.516-1.149,0.758,0.379l-0.464,0.685l0.758,0.611
	l0.073,1.76c1.662-0.159,1.21-2.225,1.21-2.225l0.758-0.146c0-0.697,0.526-0.306,0.526-0.306c-0.416-2.078,0.562-2.774,1.002-2.982
	c0.599,1.125,1.173,2.273,2.041,3.239L199.247,227.04z M201.728,209.819l0.807-0.232l0.305-0.465l0.123-0.66h0.855
	c0.024,0.452,0.232,0.843,0.293,1.283l-0.062,0.293l-0.525,0.159l-0.146-0.306l-0.22,0.843h-1.356L201.728,209.819z
	 M204.869,195.384c-0.147-0.464-1.21,0-1.21,0c0,0.843-1.442-0.379-1.442-0.379l-2.652-1.918c-1.516-1.381-3.777,0.379-3.85,0.77
	c0.037,0.538-0.391,0.587-0.831,0.514c1.186-2.249,2.567-4.388,4.351-6.282l7.419,7.395l-0.721-0.024
	C205.626,196.154,204.869,195.384,204.869,195.384z M207.191,180.144c-2.921,1.369-5.598,3.202-7.92,5.39l-9.57-9.57
	c3.361-3.227,7.138-5.842,11.22-7.822c5.61-2.726,11.769-4.217,18.186-4.351v13.518C214.853,177.43,210.833,178.444,207.191,180.144
	z M187.281,142.12c9.778-4.901,20.594-7.565,31.826-7.7v13.518c-9.154,0.134-17.796,2.359-25.52,6.184
	c-5.573,2.762-10.658,6.368-15.07,10.658l-9.583-9.583C174.423,149.832,180.596,145.469,187.281,142.12z M154.318,175.328
	c3.361-6.856,7.834-13.224,13.322-18.859l9.582,9.583c-4.461,4.595-8.177,9.888-10.988,15.718
	c-3.642,7.553-5.732,15.986-5.854,24.884h-13.518C146.997,195.617,149.576,184.971,154.318,175.328z M149.82,228.25
	c-1.857-6.355-2.872-12.992-2.958-19.775h13.518c0.085,5.659,0.954,11.195,2.555,16.476c0.049,0.184,0.134,0.392,0.195,0.563h-2.261
	l-0.146-0.38l-0.758-0.157l-0.073-0.845l-1.137,0.074l-0.232,0.464l-1.21,0.073c0.074,0.771-1.21,1.919-1.356,1.612
	c-0.159-0.306-0.99-1.147-0.611-1.308c0.379-0.159,1.357-0.306,1.357-0.306v-0.537l-2.799-0.074l-0.306,0.465l-1.137,0.073v1.233
	l-0.525,0.16c-0.379,0.231,0.073,1.074,0.073,1.074c0.525,0.538-0.073,1.383-0.073,1.383c-0.452,0.463,0.379,1.307,0.379,1.307
	c0.611,0.146-0.379,0.611-0.379,0.611c0.146,0.771,0.599,1.002,0.599,1.002c-0.452,0.771,0.306,1.148,0.306,1.148l0.073,1.309
	l0.526,0.306v0.843l0.305,0.539h1.21l-0.073-1.92c-1.063-1.234,0.904-1.539,0.99-1.075c0.073,0.464,0.904,0.696,0.904,0.696
	c0.146,1.148,1.442,1.846,1.809,0.697c0.379-1.148,0.684-0.465,0.904,0.072c0.232,0.538,1.662,1.846,1.662,1.846h1.137l0.146,1.076
	c1.284-0.074,1.663,0.072,2.188,1.846c0.525,1.76,1.968,2.225,1.968,2.225l1.063-0.074c0-0.916,1.063,0.16,1.063,0.611
	c0,0.465,2.042,2.225,2.042,2.225l2.041,0.465l0.586,0.478c1.21,1.517,2.433,3.007,3.801,4.412l-9.558,9.558
	C159.17,250.055,153.132,239.58,149.82,228.25z M219.096,280.684c-10.744-0.135-21.108-2.469-30.544-6.955
	c-7.174-3.422-13.799-8.018-19.653-13.725l9.558-9.559c4.962,4.815,10.633,8.666,16.757,11.465
	c7.407,3.385,15.509,5.133,23.882,5.256l0.012,13.518H219.096z M210.589,218.265c0.012-0.013,0.037,0,0.049-0.025
	c0.379-0.611,0.978-0.696,0.978-0.696l0.232-0.538l2.041,0.074c0.147-0.844,1.137-0.538,1.137-0.159s0.758,0.073,0.758,0.073
	l0.526-0.843h0.831l0.073-0.917l0.379-0.232v-1.381c1.21-0.379,1.063-1.54,1.063-1.54l0.305-0.379l-0.146-0.538
	c-0.611-0.232-0.306-0.77,0.073-0.611c0.379,0.159-0.525-0.697-0.525-0.697c-0.452,0.379-0.831-0.464-0.831-0.464h-1.137v-1.076
	l-0.146-1.002l-1.137-0.538l-0.831,0.77l-0.147,1.076v0.685l-0.758,0.159l-0.146,2.065l-0.599,0.232l0.074,0.77l-1.663,0.464
	l-0.146,1.002l-0.599,0.379l-0.305,0.917l-0.354,2.09c-1.125-1.087-1.968-2.396-2.616-3.776c0.098-0.464,0.122-0.88,0.122-0.88
	c-0.684-0.305-0.305-1.381,0.452-0.464c0.758,0.917-0.452-1.845-0.452-1.845l-0.599-0.538l-0.514-0.049
	c-0.122-0.77-0.452-1.491-0.452-2.286c0-0.367,0.184-0.684,0.208-1.039c0.146-0.037,0.306-0.012,0.306-0.012l0.452,0.379
	l0.684,0.538l0.074,0.464l-0.452,0.232l-0.074,0.611l0.232,0.843h0.599c0.232-1.234,1.821-1.234,2.273-0.464l0.452-1.075
	c-1.063-0.538-0.024-1.381,0.281-1.002c0.305,0.379,1.002-1.002,1.002-1.002s0.525,0.697,0-0.232
	c-0.526-0.917,0.379-1.381,0.379-1.381c-0.147-0.917,0.978-0.77,0.978-0.77l0.073-1.222l-1.063-0.073
	c-0.22,1.076-1.137,0.159-0.685-0.073s0.904-0.697,0.904-0.697v-0.77l0.452-0.159l0.074-0.77h1.136l0.978-0.464l0.232-0.379
	l1.063-0.074l1.516-1.381l-0.146-0.611c-0.905,0,0-0.696,0-0.696l0.146-1.149h-0.831l-0.122-1.369
	c1.039-0.245,2.053-0.611,3.153-0.611l0.146,1.845l-0.831-0.281h-0.525l-0.22-0.465l-0.452-0.073v1.687l0.452,0.379l0.379,0.379
	l0.758,0.074l0.146,0.917l1.896,0.073l0.231,0.379l1.138,0.073l2.188,2.225l-0.146,0.697l-0.379,0.232
	c0.146,0.538-0.979,0.232-0.979,0.232v0.464l0.525,0.073l0.524,0.306l0.758-1.308c0.832-0.538,1.211,0.232,1.283,0.696
	c0.073,0.465-0.379,0.379-0.379,0.379v1.076l0.452,0.159c0.759,0.917-0.305,1.454-0.305,1.454l-0.232,0.77
	c-0.232,0.697-1.063,0.538-1.063,0.538l-0.305,0.464l-0.905,0.232l1.797,0.232c0.172-0.611,0.623-0.77,0.855-0.464
	s0.232,0.843,0.232,0.843l0.451,0.073l-0.072,0.843l0.451,0.159v2.457l0.525,0.611c0.904-0.379,0.904,0.232,0.452,0.538
	s-0.146,1.687-0.146,1.687l-0.38,0.379v0.611l-0.464,0.33v0.843c-0.758-0.379-1.663-0.232-1.895,0
	c-0.687-0.465-2.115-0.306-2.115,0.073c0.453,0.611-0.525,0.77-0.525,0.77l-0.525,0.611c0.379,0.77-0.379,0.843-0.379,0.843v1.455
	l-0.903,0.843l0.049,1.138c-0.489,0.049-0.903,0.281-1.406,0.281C216.48,221.968,213.217,220.574,210.589,218.265z M227.053,252.34
	l0.27,0.6l1.283,0.379l0.903,0.231l0.306,1.308l0.686,0.074l0.23,0.844c0.832,0.611-0.23,1.918-0.23,1.918v1.688l0.609,0.307
	l-0.071,0.61l0.989,0.99l1.137,0.071l1.846,1.97c-4.51,1.222-9.218,1.942-14.095,2.028l0.002-12.211h-0.002
	C223.018,253.109,225.012,252.658,227.053,252.34z M252.952,272.848l-0.013-0.022c-9.656,4.889-20.521,7.713-32.023,7.858v-13.518
	c5.477-0.086,10.793-0.99,15.914-2.494l1.467,0.453l0.379,1.234l0.611-0.074l0.451-0.379l1.81-0.072l0.904-0.844l0.978-0.146
	l7.92-6.734c3.594-2.236,7.064-4.719,10.17-7.736l9.533,9.534C265.743,265.093,259.627,269.464,252.952,272.848z M272.336,258.609
	l-9.533-9.533c4.668-4.814,8.434-10.278,11.207-16.182c3.557-7.565,5.488-15.83,5.61-24.42h13.519
	c-0.135,11.061-2.738,21.524-7.285,30.885C282.395,246.498,277.811,252.988,272.336,258.609z"/>
</svg>
