<?xml version="1.0" encoding="utf-8"?>
<!-- Generator: Adobe Illustrator 25.2.1, SVG Export Plug-In . SVG Version: 6.00 Build 0)  -->
<svg version="1.1" id="Layer_1" xmlns="http://www.w3.org/2000/svg" xmlns:xlink="http://www.w3.org/1999/xlink" x="0px" y="0px"
	 width="36px" height="36px" viewBox="0 0 36 36" enable-background="new 0 0 36 36" xml:space="preserve">
<path fill="#FFD983" d="M18,0v36C8.059,36,0,27.941,0,18S8.059,0,18,0z"/>
<path fill="#66757F" d="M36,18c0,9.941-8.059,18-18,18c-0.294,0-0.58-0.029-0.87-0.043C11.239,33.393,7,26.332,7,18
	C7,9.669,11.239,2.607,17.13,0.044C17.42,0.03,17.706,0,18,0C27.941,0,36,8.059,36,18z"/>
<circle fill="#FFCC4D" cx="6" cy="9" r="1"/>
<circle fill="#FFCC4D" cx="4" cy="19" r="2"/>
<circle fill="#5B6876" cx="25.5" cy="8.5" r="3.5"/>
<circle fill="#5B6876" cx="16" cy="16" r="3"/>
<circle fill="#5B6876" cx="14.5" cy="27.5" r="3.5"/>
<circle fill="#5B6876" cx="15" cy="6" r="2"/>
<circle fill="#5B6876" cx="33" cy="18" r="1"/>
<circle fill="#5B6876" cx="21" cy="31" r="1"/>
<circle fill="#5B6876" cx="26" cy="23" r="2"/>
</svg>
