<?xml version="1.0" encoding="utf-8"?>
<!-- Generator: Adobe Illustrator 25.2.1, SVG Export Plug-In . SVG Version: 6.00 Build 0)  -->
<svg version="1.1" id="Layer_1" xmlns="http://www.w3.org/2000/svg" xmlns:xlink="http://www.w3.org/1999/xlink" x="0px" y="0px"
	 width="36px" height="36px" viewBox="0 0 36 36" enable-background="new 0 0 36 36" xml:space="preserve">
<path fill="#FFD983" d="M0,18c0,9.941,8.059,18,18,18c0.295,0,0.58-0.029,0.87-0.043C24.761,33.393,29,26.332,29,18
	c0-8.331-4.239-15.393-10.13-17.956C18.58,0.03,18.295,0,18,0C8.059,0,0,8.059,0,18z"/>
<path fill="#66757F" d="M29,18c0-8.331-4.239-15.393-10.13-17.956C28.404,0.501,36,8.353,36,18c0,9.646-7.594,17.498-17.128,17.956
	C24.762,33.391,29,26.331,29,18z"/>
<circle fill="#FFCC4D" cx="10.5" cy="8.5" r="3.5"/>
<circle fill="#FFCC4D" cx="20" cy="16" r="3"/>
<circle fill="#FFCC4D" cx="21.5" cy="27.5" r="3.5"/>
<circle fill="#FFCC4D" cx="21" cy="6" r="2"/>
<circle fill="#FFCC4D" cx="3" cy="18" r="1"/>
<circle fill="#FFCC4D" cx="15" cy="31" r="1"/>
<circle fill="#FFCC4D" cx="10" cy="23" r="2"/>
<circle fill="#5B6876" cx="30" cy="9" r="1"/>
<circle fill="#5B6876" cx="32" cy="19" r="2"/>
</svg>
