<?xml version="1.0" encoding="utf-8"?>
<!-- Generator: Adobe Illustrator 25.2.1, SVG Export Plug-In . SVG Version: 6.00 Build 0)  -->
<svg version="1.1" id="Layer_1" xmlns="http://www.w3.org/2000/svg" xmlns:xlink="http://www.w3.org/1999/xlink" x="0px" y="0px"
	 width="36px" height="36px" viewBox="0 0 36 36" enable-background="new 0 0 36 36" xml:space="preserve">
<path fill="#CCD6DD" d="M33.536,2.464c-1.953-1.953-5.118-1.953-7.071,0l-1.197,1.199v1.415h-1.413l-2.11,2.112v1.415h-1.413
	l-2.12,2.122v1.415h-1.414l-2.12,2.123v1.415h-1.413l-2.12,2.123v1.415H9.731L7.95,21.003C4.107,21.03,1,24.151,1,28
	c0,3.866,3.134,7,7,7c3.832,0,6.941-3.081,6.995-6.9L33.536,9.536C35.488,7.583,35.488,4.417,33.536,2.464z"/>
<path fill="#DD2E44" d="M30.938,5.091c-0.781-0.781-2.047-0.781-2.828,0L9.045,24.156c-1.338-0.362-2.823-0.035-3.873,1.015
	c-1.562,1.562-1.562,4.095,0,5.657s4.095,1.562,5.657,0C11.867,29.79,12.2,28.326,11.858,27l19.08-19.08
	C31.719,7.139,31.719,5.872,30.938,5.091z"/>
<path fill="#292F33" d="M13.272,22.343c0.256,0,0.512-0.098,0.707-0.293c0.391-0.391,0.391-1.023,0-1.414l-2.833-2.833l-1.413,1.415
	l2.833,2.832C12.76,22.245,13.016,22.343,13.272,22.343z M16.808,18.808c0.256,0,0.512-0.098,0.707-0.293
	c0.391-0.391,0.391-1.023,0-1.414l-2.836-2.836l-1.413,1.415l2.835,2.835C16.296,18.71,16.552,18.808,16.808,18.808z M20.343,15.272
	c0.256,0,0.512-0.098,0.707-0.293c0.391-0.39,0.391-1.023,0-1.414l-2.837-2.838L16.8,12.142l2.837,2.837
	C19.831,15.174,20.087,15.272,20.343,15.272z M23.879,11.736c0.256,0,0.512-0.098,0.707-0.293c0.391-0.391,0.391-1.024,0-1.414
	l-2.841-2.84l-1.413,1.415l2.84,2.839C23.367,11.639,23.623,11.736,23.879,11.736z M27.402,8.213c0.256,0,0.512-0.098,0.707-0.293
	c0.391-0.39,0.391-1.023,0-1.414l-2.842-2.843l-1.413,1.415l2.841,2.842C26.891,8.115,27.146,8.213,27.402,8.213z"/>
</svg>
