<?xml version="1.0" encoding="utf-8"?>
<!-- Generator: Adobe Illustrator 25.2.1, SVG Export Plug-In . SVG Version: 6.00 Build 0)  -->
<svg version="1.1" id="Layer_1" xmlns="http://www.w3.org/2000/svg" xmlns:xlink="http://www.w3.org/1999/xlink" x="0px" y="0px"
	 width="36px" height="36px" viewBox="0 0 36 36" enable-background="new 0 0 36 36" xml:space="preserve">
<path fill="#A6D388" d="M31.924,10.982c4.418,7.652,1.99,17.326-5.424,21.607c-7.414,4.28-16.505,2.413-20.924-5.241
	c-2.968-5.141-3.289-10.59-1.509-15.064c1.883-2.841,4.406-4.687,7.427-6.41c7.058-4.025,14.43-0.797,20.23,4.775
	C31.793,10.759,31.86,10.87,31.924,10.982z"/>
<path fill="#77B255" d="M31.724,10.649C28.038,4.765,17.777,0.675,10.5,4.876c-3.01,1.738-5.214,4.349-6.433,7.408
	C4.788,11.471,5.52,11,6,11c1,0-1.896,3.279,1,11c1.213,3.234,1.935,4.506,2.365,4.875c0.037,0.124,0.095,0.265,0.187,0.433
	C10.234,28.557,11,30,11.961,30.533c0.557,0.309,1.045,0.726,0.363-0.523c-0.682-1.249-1.205-1.612-1.886-2.861
	c-0.152-0.279-0.326-0.486-0.491-0.621C10,26.269,10,26,10,26s-2-9-1-12s2-5,3-4s5,9,7,14c0.281,0.703,0.523,1.215,0.726,1.56
	c0.03,0.077,0.059,0.154,0.092,0.232c0.874,2.057,0.812,3.055,1.686,5.114c0,0,0.061-0.997,0.125-1.996
	c0.048-0.783-0.482-2.221-1.134-3.799C20.428,23.401,19.608,19.752,18,16c-2.841-6.628-3-8-2-8s3.465,1.464,7,5c2,2,3,5,4,6
	c1,3,0,2,1,5s1,5,1,0c0-2.383-0.568-4.58-1.276-5.947C27.651,17.297,27.412,16.236,27,15c-0.707-2.121-3-6-6-8c-2.496-1.664,0-2,3-1
	s6,4,8,7C32.836,14.254,32.747,12.919,31.724,10.649z"/>
<path fill="#5C913B" d="M11.934,6.358c-0.479,0.276-1.091,0.112-1.367-0.366c-1.104-1.914-1.26-4.303-1.266-4.404
	c-0.033-0.55,0.387-1.022,0.937-1.058c0.552-0.034,1.025,0.385,1.061,0.936C11.3,1.487,11.436,3.493,12.3,4.991
	C12.575,5.47,12.412,6.082,11.934,6.358z"/>
</svg>
