<?xml version="1.0" encoding="utf-8"?>
<!-- Generator: Adobe Illustrator 25.2.1, SVG Export Plug-In . SVG Version: 6.00 Build 0)  -->
<svg version="1.1" id="Layer_1" xmlns="http://www.w3.org/2000/svg" xmlns:xlink="http://www.w3.org/1999/xlink" x="0px" y="0px"
	 width="36px" height="36px" viewBox="0 0 36 36" enable-background="new 0 0 36 36" xml:space="preserve">
<path fill="#99AAB5" d="M27,33c0,2.209-1.791,3-4,3H13c-2.209,0-4-0.791-4-3s3-7,3-13h12C24,26,27,30.791,27,33z"/>
<path fill="#DD2E44" d="M34.666,11.189l-0.001-0.002c-0.96-2.357-2.404-4.453-4.208-6.182h-0.003C27.222,1.904,22.839,0,18,0
	C13.638,0,9.639,1.541,6.524,4.115c-2.19,1.809-3.941,4.13-5.076,6.785C0.518,13.075,0,15.473,0,18c0,2.209,1.791,4,4,4h28
	c2.209,0,4-1.791,4-4C36,15.583,35.52,13.287,34.666,11.189z"/>
<g>
	<path fill="#F4ABBA" d="M7.708,16.583c3.475,0,6.292-2.817,6.292-6.292S11.184,4,7.708,4c-0.405,0-0.8,0.042-1.184,0.115
		c-2.19,1.809-3.941,4.13-5.076,6.785C1.754,14.089,4.439,16.583,7.708,16.583z"/>
	<path fill="#F4ABBA" d="M7.708,4.25c3.331,0,6.041,2.71,6.041,6.042s-2.71,6.042-6.041,6.042c-3.107,0-5.678-2.314-6.006-5.394
		c1.097-2.541,2.8-4.817,4.931-6.59C6.997,4.283,7.359,4.25,7.708,4.25 M7.708,4c-0.405,0-0.8,0.042-1.184,0.115
		c-2.19,1.809-3.941,4.13-5.076,6.785c0.306,3.189,2.992,5.683,6.261,5.683c3.475,0,6.291-2.817,6.291-6.292S11.184,4,7.708,4z
		 M26,9.5c0,2.485,2.015,4.5,4.5,4.5c1.887,0,3.497-1.164,4.166-2.811l-0.001-0.002c-0.96-2.357-2.404-4.453-4.208-6.182
		C27.992,5.028,26,7.029,26,9.5z"/>
	<circle fill="#F4ABBA" cx="21.5" cy="16" r="4.5"/>
	<circle fill="#F4ABBA" cx="20" cy="5" r="3"/>
</g>
</svg>
