<?xml version="1.0" encoding="utf-8"?>
<!-- Generator: Adobe Illustrator 25.2.1, SVG Export Plug-In . SVG Version: 6.00 Build 0)  -->
<svg version="1.1" id="Layer_1" xmlns="http://www.w3.org/2000/svg" xmlns:xlink="http://www.w3.org/1999/xlink" x="0px" y="0px"
	 width="36px" height="36px" viewBox="0 0 36 36" enable-background="new 0 0 36 36" xml:space="preserve">
<path fill="#5C913B" d="M19,5.062c0,0,0.625-4,5-4s6.938,3.125,6.938,3.125s-3.562,2.125-4.625,2.562h-10.41L19,5.062z"/>
<path fill="#FF886C" d="M18,6c0,0,1.042-0.896,6-0.896c6.542,0,12,4.812,12,12.927c0,11.531-14.958,17.881-14.958,17.881
	S1,34.833,1,17.977C1,8.018,7.75,5,12,5C16.958,5,18,6,18,6z"/>
<path fill="#77B255" d="M1.062,5.125c0,0,4.875-5,10-5C17.188,0.125,19,5.062,19,5.062s-4.062,5.25-8.062,4.25
	S1.062,5.125,1.062,5.125z"/>
<path fill="#DD2E44" d="M22.999,30c-0.19,0-0.383-0.055-0.554-0.168c-0.46-0.307-0.584-0.927-0.277-1.387
	C22.183,28.423,24,25.538,24,19c0-6.445-4.578-10.182-4.625-10.219c-0.431-0.345-0.501-0.974-0.156-1.405
	c0.346-0.431,0.975-0.501,1.406-0.156C20.844,7.395,26,11.604,26,19c0,7.22-2.079,10.422-2.168,10.555
	C23.64,29.844,23.322,30,22.999,30z"/>
</svg>
