<?xml version="1.0" encoding="utf-8"?>
<!-- Generator: Adobe Illustrator 25.2.1, SVG Export Plug-In . SVG Version: 6.00 Build 0)  -->
<svg version="1.1" id="Layer_1" xmlns="http://www.w3.org/2000/svg" xmlns:xlink="http://www.w3.org/1999/xlink" x="0px" y="0px"
	 width="36px" height="36px" viewBox="0 0 36 36" enable-background="new 0 0 36 36" xml:space="preserve">
<path fill="#D99E82" d="M1.743,23.863c-0.462,0.795-0.71,1.773-0.71,2.975C1.033,33.487,8.629,35,18,35s16.967-1.513,16.967-8.162
	c0-1.202-0.248-2.18-0.71-2.975L1.743,23.863z"/>
<path fill="#662113" d="M1.464,21.875C1.414,27.655,8.003,30.057,18,30.057c9.999,0,16.589-2.404,16.536-8.186L1.464,21.875z"/>
<path fill="#FFCC4D" d="M0.911,19.811c-0.383,0.696-0.429,1.628,0.266,1.975c8.708,2.708,15.708,5.448,15.708,5.448
	c0.962,0.532,1.287,0.534,2.25,0.003c0,0,9.666-3.868,15.875-5.493c0.471-0.123,0.431-1.091,0.124-1.965L0.911,19.811z"/>
<path fill="#77B255" d="M34.725,18.412c-0.418-0.386-0.739-0.641-1.001-0.809L2.24,17.55c-0.276,0.166-0.621,0.434-1.085,0.862
	c-0.872,0.804-1.108,1.222-0.188,1.43c1.386,0.313,1.26,1.152,2.253,1.444c1.202,0.353,1.696-0.292,3.634-0.028
	c1.653,0.225,1.761,2.369,3.429,2.369s1.668-0.8,3.335-0.8s2.653,2.146,4.321,2.146s2.653-2.146,4.321-2.146s1.668,0.8,3.335,0.8
	c1.668,0,1.776-2.144,3.429-2.369c1.938-0.263,2.433,0.381,3.634,0.028c0.993-0.292,0.867-1.13,2.253-1.444
	C35.833,19.635,35.598,19.216,34.725,18.412z"/>
<path fill="#DD2E44" d="M34.077,16.52c0,2.984-7.198,4.393-16.077,4.393S1.923,19.504,1.923,16.52c0-0.685,0.016-1.283,0.073-1.805
	l32.007,0C34.061,15.238,34.077,15.835,34.077,16.52z"/>
<path fill="#D99E82" d="M18,0.524c-9.371,0-16.967,4.391-16.967,11.042c0,6.125,7.596,6.375,16.967,6.375s16.967-0.25,16.967-6.375
	C34.967,4.914,27.371,0.524,18,0.524z"/>
<path fill="#FFE8B6" d="M10.784,3.695C10.286,3.376,9.625,3.522,9.307,4.02S9.134,5.18,9.632,5.497
	c0.498,0.319,1.76,0.557,2.079,0.059C12.029,5.058,11.282,4.013,10.784,3.695z M20.518,2.66c-0.562,0.182-1.549,1.006-1.366,1.568
	s1.464,0.648,2.026,0.466s0.869-0.786,0.686-1.348C21.682,2.785,21.078,2.477,20.518,2.66z M31.427,9.695
	c-0.452-0.38-1.585,0.225-1.966,0.677c-0.38,0.453-0.321,1.127,0.131,1.507s1.127,0.321,1.507-0.131
	C31.48,11.295,31.88,10.075,31.427,9.695z M27.784,4.695c-0.498-0.318-1.159-0.172-1.478,0.326
	c-0.318,0.498-0.172,1.159,0.326,1.477c0.498,0.319,1.76,0.557,2.078,0.059C29.029,6.058,28.282,5.013,27.784,4.695z M12.784,11.695
	c-0.498-0.318-1.159-0.172-1.478,0.326c-0.318,0.497-0.172,1.159,0.326,1.476c0.498,0.319,1.76,0.558,2.078,0.059
	C14.029,13.058,13.282,12.013,12.784,11.695z M15.83,6.887c-0.336,0.486-0.62,1.739-0.133,2.075c0.486,0.336,1.557-0.374,1.893-0.86
	s0.213-1.152-0.273-1.488C16.832,6.278,16.165,6.401,15.83,6.887z M23.784,11.695c-0.498-0.318-1.159-0.172-1.478,0.326
	c-0.318,0.497-0.172,1.16,0.326,1.476c0.498,0.319,1.76,0.558,2.078,0.059C25.029,13.058,24.282,12.013,23.784,11.695z M4.948,7.808
	C4.554,8.249,4.115,9.456,4.556,9.85c0.439,0.394,1.591-0.174,1.985-0.615c0.395-0.44,0.357-1.116-0.083-1.511
	C6.019,7.33,5.342,7.368,4.948,7.808z"/>
</svg>
