<?xml version="1.0" encoding="utf-8"?>
<!-- Generator: Adobe Illustrator 25.2.1, SVG Export Plug-In . SVG Version: 6.00 Build 0)  -->
<svg version="1.1" id="Layer_1" xmlns="http://www.w3.org/2000/svg" xmlns:xlink="http://www.w3.org/1999/xlink" x="0px" y="0px"
	 width="36px" height="36px" viewBox="0 0 36 36" enable-background="new 0 0 36 36" xml:space="preserve">
<path fill="#EEEEEE" d="M35,26c0,9.389-7.609,9-17,9S1,35.389,1,26C1,18,9,7,14,3c2.75-2,5.129-2.051,8,0C29,8,35,21,35,26z"/>
<path fill="#CCD6DD" d="M27.258,29.642c-0.461,0.316-1.091,0.199-1.406-0.263c-0.316-0.46-0.198-1.091,0.262-1.406l1.67-1.144
	c0.46-0.315,1.089-0.198,1.405,0.263c0.315,0.46,0.198,1.091-0.263,1.405L27.258,29.642z M29.696,22.547
	c-0.512-0.207-0.758-0.792-0.549-1.303c0.209-0.512,0.793-0.758,1.304-0.549l1.852,0.755c0.511,0.208,0.757,0.791,0.549,1.303
	s-0.792,0.758-1.304,0.549C31.548,23.302,29.696,22.547,29.696,22.547z M25.202,17.291c-0.519-0.21-0.767-0.801-0.555-1.318
	c0.209-0.517,0.801-0.766,1.316-0.556l1.875,0.764c0.516,0.211,0.765,0.801,0.554,1.318c-0.211,0.517-0.8,0.766-1.318,0.555
	C27.074,18.054,25.202,17.291,25.202,17.291z M4.201,24.291c-0.517-0.21-0.766-0.801-0.554-1.318
	c0.21-0.517,0.801-0.766,1.317-0.556l1.873,0.764c0.518,0.211,0.766,0.801,0.556,1.318c-0.211,0.518-0.802,0.767-1.318,0.556
	C6.075,25.055,4.201,24.291,4.201,24.291z M7.758,18.142c-0.461,0.316-1.091,0.199-1.406-0.264c-0.315-0.46-0.198-1.09,0.262-1.405
	l1.67-1.144c0.46-0.315,1.089-0.198,1.405,0.263c0.315,0.46,0.198,1.091-0.263,1.406C9.426,16.998,7.758,18.142,7.758,18.142z
	 M16.786,21.881c-0.767-0.312-1.137-1.188-0.824-1.956c0.314-0.766,1.189-1.135,1.956-0.823l2.778,1.134
	c0.368,0.15,0.644,0.429,0.798,0.763L16.786,21.881z M10.602,27.933L10,30.325l-0.572,0.218c-0.519,0.199-1.104-0.063-1.302-0.586
	c-0.2-0.524,0.062-1.107,0.585-1.307C8.711,28.65,10.602,27.933,10.602,27.933z"/>
<path fill="#292F33" d="M24,21H12c-1.104,0-2,0.896-2,2v11.812C12.384,35.036,15.107,35,18,35s5.616,0.036,8-0.188V23
	C26,21.896,25.104,21,24,21z"/>
</svg>
