<?xml version="1.0" encoding="utf-8"?>
<!-- Generator: Adobe Illustrator 25.2.1, SVG Export Plug-In . SVG Version: 6.00 Build 0)  -->
<svg version="1.1" id="Layer_1" xmlns="http://www.w3.org/2000/svg" xmlns:xlink="http://www.w3.org/1999/xlink" x="0px" y="0px"
	 width="36px" height="36px" viewBox="0 0 36 36" enable-background="new 0 0 36 36" xml:space="preserve">
<path fill="#F4900C" d="M18,4c7.257,0,13,4,14.699,2C32.896,5.677,33,5.343,33,5c0-2-6.716-5-15-5S3,3,3,5
	c0,0.343,0.104,0.677,0.301,1C5,8,10.743,4,18,4z"/>
<path fill="#FFCC4D" d="M18,3C11.787,3,7.384,4.81,5.727,5.618C5.25,5.851,5.188,6.458,5.312,6.896S16,34,16,34s0.896,2,2,2s2-2,2-2
	L30.704,6.779c0,0,0.213-0.842-0.569-1.229C28.392,4.689,24.047,3,18,3z"/>
<path fill="#BE1931" d="M18,31c0-2.208-1.791-4-4-4c-0.254,0-0.5,0.029-0.741,0.075L16,34c0,0,0.071,0.14,0.19,0.342
	C17.279,33.627,18,32.399,18,31z M17,20c0-2.209-1.792-4-4-4c-1.426,0-2.67,0.752-3.378,1.876l2.362,5.978
	C12.311,23.94,12.647,24,13,24C15.208,24,17,22.208,17,20z M16,4c2.209,0,4,1.791,4,4s-1.791,4-4,4s-4-1.791-4-4S13.791,4,16,4z
	 M25,9c-2.208,0-4,1.791-4,4s1.792,4,4,4c0.682,0,1.315-0.187,1.877-0.488l1.89-4.806C28.227,10.135,26.752,9,25,9z M19,25
	c0,1.868,1.288,3.425,3.019,3.864l2.893-7.357C24.342,21.194,23.697,21,23,21C20.792,21,19,22.792,19,25z M10,12
	c0-2.209-1.791-4-4-4C5.913,8,5.831,8.02,5.745,8.026c0.55,1.412,1.575,4.016,2.775,7.057C9.416,14.349,10,13.248,10,12z"/>
</svg>
