<?xml version="1.0" encoding="utf-8"?>
<!-- Generator: Adobe Illustrator 25.2.1, SVG Export Plug-In . SVG Version: 6.00 Build 0)  -->
<svg version="1.1" id="Layer_1" xmlns="http://www.w3.org/2000/svg" xmlns:xlink="http://www.w3.org/1999/xlink" x="0px" y="0px"
	 width="36px" height="36px" viewBox="0 0 36 36" enable-background="new 0 0 36 36" xml:space="preserve">
<path fill="#77B255" d="M25.427,23.819C18.884,19.239,13.261,11.453,10.03,6.38c1.699,10.528,0.997,16.458,0.962,16.744
	l-1.984-0.247c0.009-0.079,0.936-8.033-1.986-21.668C6.917,0.722,7.188,0.231,7.656,0.061c0.466-0.172,0.991,0.028,1.226,0.468
	c0.079,0.148,8.007,14.873,17.691,21.652L25.427,23.819z"/>
<path fill="#5C913B" d="M26.547,8.818c-3.476,0.96-5.051,2.546-10.749,0.667c-4.72-1.557-7.037-4.207-6.345-6.305
	c0.692-2.098,3.18-3.163,7.9-1.606C22.102,3.141,21.476,5.04,26.547,8.818z"/>
<path fill="#BE1931" d="M26,20c-3.446,0-6.374,2.183-7.5,5.238C17.374,22.183,14.446,20,11,20c-4.418,0-8,3.582-8,8s3.582,8,8,8
	c3.446,0,6.374-2.183,7.5-5.238C19.626,33.817,22.554,36,26,36c4.418,0,8-3.582,8-8S30.418,20,26,20z"/>
</svg>
