<?xml version="1.0" encoding="utf-8"?>
<!-- Generator: Adobe Illustrator 25.2.1, SVG Export Plug-In . SVG Version: 6.00 Build 0)  -->
<svg version="1.1" id="Layer_1" xmlns="http://www.w3.org/2000/svg" xmlns:xlink="http://www.w3.org/1999/xlink" x="0px" y="0px"
	 width="36px" height="36px" viewBox="0 0 36 36" enable-background="new 0 0 36 36" xml:space="preserve">
<circle fill="#C1694F" cx="18" cy="18" r="17"/>
<path fill="#E29386" d="M27.258,27.642c-0.461,0.316-1.091,0.199-1.406-0.263c-0.316-0.46-0.198-1.091,0.262-1.406l1.67-1.144
	c0.46-0.315,1.089-0.198,1.405,0.263c0.315,0.46,0.198,1.091-0.263,1.405L27.258,27.642z M29.696,20.547
	c-0.512-0.207-0.758-0.792-0.549-1.303s0.793-0.757,1.304-0.549l1.852,0.755c0.511,0.208,0.757,0.791,0.549,1.303
	s-0.792,0.758-1.304,0.549C31.548,21.302,29.696,20.547,29.696,20.547z M25.202,15.291c-0.519-0.21-0.767-0.801-0.555-1.318
	c0.209-0.517,0.801-0.766,1.316-0.556l1.875,0.764c0.516,0.211,0.765,0.801,0.554,1.318c-0.211,0.517-0.8,0.766-1.318,0.555
	L25.202,15.291z M4.201,22.291c-0.517-0.21-0.766-0.801-0.554-1.318c0.21-0.517,0.801-0.766,1.317-0.556l1.873,0.764
	c0.518,0.211,0.766,0.801,0.556,1.318c-0.211,0.518-0.802,0.767-1.318,0.556C6.075,23.055,4.201,22.291,4.201,22.291z M7.758,16.142
	c-0.461,0.316-1.091,0.199-1.406-0.264c-0.315-0.46-0.198-1.09,0.262-1.405l1.67-1.144c0.46-0.315,1.089-0.198,1.405,0.263
	c0.315,0.46,0.198,1.091-0.263,1.406C9.426,14.998,7.758,16.142,7.758,16.142z M16.786,19.881c0,0-1.137-1.188-0.824-1.956
	c0.314-0.766,1.189-1.135,1.956-0.823l2.778,1.134c0.368,0.15,0.645,0.429,0.798,0.764L16.786,19.881z M10.602,25.933L10,28.325
	l-0.572,0.218c-0.519,0.199-1.104-0.063-1.302-0.586c-0.2-0.524,0.062-1.107,0.585-1.307C8.711,26.65,10.602,25.933,10.602,25.933z"
	/>
<path fill="#292F33" d="M24,19H12c-1.104,0-2,0.896-2,2v11.998C12.385,34.273,15.106,35,18,35c2.893,0,5.615-0.727,8-2.002V21
	C26,19.896,25.104,19,24,19z"/>
</svg>
