<?xml version="1.0" encoding="utf-8"?>
<!-- Generator: Adobe Illustrator 25.2.1, SVG Export Plug-In . SVG Version: 6.00 Build 0)  -->
<svg version="1.1" id="Layer_1" xmlns="http://www.w3.org/2000/svg" xmlns:xlink="http://www.w3.org/1999/xlink" x="0px" y="0px"
	 width="36px" height="36px" viewBox="0 0 36 36" enable-background="new 0 0 36 36" xml:space="preserve">
<path fill="#D99E82" d="M3.566,5.427l-1.2-1.2c-0.479-0.479-0.479-1.257,0-1.736s1.257-0.479,1.736,0l1.181,1.181L3.566,5.427z"/>
<path fill="#66757F" d="M6.729,3.046C4.077,2.51,2.467,4.213,3.151,6.83l1.843,7.055c0.684,2.617,2.808,3.193,4.72,1.28l6.103-6.102
	c1.913-1.913,1.309-3.916-1.343-4.452L6.729,3.046z"/>
<path fill="#D99E82" d="M22.614,15.968c0,3.734-3.027,6.761-6.762,6.761c-3.734,0-6.762-3.027-6.762-6.761s3.027-6.762,6.762-6.762
	C19.587,9.207,22.614,12.234,22.614,15.968z"/>
<path fill="#CCD6DD" d="M22.052,30.707c-0.96,0.96-2.518,0.96-3.477,0l-3.478-3.478c-0.959-0.96-0.959-2.517,0-3.477l8.693-8.693
	c0.961-0.96,2.518-0.96,3.478,0l3.478,3.477c0.96,0.961,0.96,2.517,0,3.478C30.746,22.014,22.052,30.707,22.052,30.707z"/>
<path fill="#D99E82" d="M33.884,35.229c-0.314,0-0.629-0.12-0.869-0.36l-9.118-9.118c-0.48-0.479-0.48-1.259,0-1.738
	c0.481-0.48,1.258-0.48,1.738,0l9.118,9.118c0.48,0.479,0.48,1.259,0,1.738C34.513,35.109,34.198,35.229,33.884,35.229z"/>
</svg>
