<?xml version="1.0" encoding="utf-8"?>
<!-- Generator: Adobe Illustrator 25.2.1, SVG Export Plug-In . SVG Version: 6.00 Build 0)  -->
<svg version="1.1" id="Layer_1" xmlns="http://www.w3.org/2000/svg" xmlns:xlink="http://www.w3.org/1999/xlink" x="0px" y="0px"
	 width="36px" height="36px" viewBox="0 0 36 36" enable-background="new 0 0 36 36" xml:space="preserve">
<path fill="#D99E82" d="M3.566,5.427l-1.2-1.2c-0.479-0.479-0.479-1.257,0-1.736s1.257-0.479,1.736,0l1.181,1.181L3.566,5.427z"/>
<path fill="#FCB1E3" d="M15.254,8.627c0,3.729-3.023,6.752-6.752,6.752S1.75,12.356,1.75,8.627s3.023-6.752,6.752-6.752
	S15.254,4.898,15.254,8.627z"/>
<ellipse fill="#FFD983" cx="15.87" cy="15.995" rx="6.752" ry="6.752"/>
<path fill="#A6D388" d="M29.987,23.359c0,3.729-3.024,6.753-6.753,6.753s-6.752-3.024-6.752-6.753s3.023-6.752,6.752-6.752
	S29.987,19.631,29.987,23.359z"/>
<path fill="#D99E82" d="M33.875,35.228c-0.314,0-0.628-0.12-0.868-0.359l-7.52-7.52c-0.48-0.479-0.48-1.257,0-1.736
	s1.256-0.479,1.736,0l7.52,7.52c0.479,0.479,0.479,1.257,0,1.736C34.503,35.107,34.189,35.228,33.875,35.228z"/>
</svg>
