<?xml version="1.0" encoding="utf-8"?>
<!-- Generator: Adobe Illustrator 25.2.1, SVG Export Plug-In . SVG Version: 6.00 Build 0)  -->
<svg version="1.1" id="Layer_1" xmlns="http://www.w3.org/2000/svg" xmlns:xlink="http://www.w3.org/1999/xlink" x="0px" y="0px"
	 width="36px" height="36px" viewBox="0 0 36 36" enable-background="new 0 0 36 36" xml:space="preserve">
<path fill="#B90053" d="M9.441,14.595c0.458-1.372,7.41-7.525,13.286-10.22c1.528-0.701,6.602-2.834,8.35-3.271
	c3.604-0.901,5.09-1.014,4.589,2.646c-0.708,5.171-4.619,12.596-8.707,19.751c-2.68,4.213-4.232,6.423-10.365,3.356
	C10.464,23.793,7.398,20.727,9.441,14.595z"/>
<path fill="#FFCC4D" d="M22.491,14.76c3.816,3.768,4.498,9.263,1.524,12.276c-2.974,3.014-8.477,2.4-12.294-1.365
	c-3.816-3.768-4.499-9.264-1.525-12.276C13.171,10.382,18.675,10.994,22.491,14.76z"/>
<path fill="#8E0042" d="M26.96,6.377c1.14,0.57,2.703,3.605,2.703,4.506c0,0.901-0.901-0.901-2.703-2.704
	C25.157,6.377,25.157,5.476,26.96,6.377z M27.141,14.407c0.607,0.578,1.009,2.787,0.836,3.354s-0.395-0.74-1.183-2.22
	C26.005,14.061,26.179,13.494,27.141,14.407z"/>
<path fill="#B90053" d="M21,32c0,2.209-4.477,4-10,4S1,34,1,32c0-0.371-0.203-2.6,0.084-2.958L20.979,29
	C21.086,29.233,21,31.754,21,32z"/>
<ellipse fill="#FFD671" cx="11" cy="29" rx="10" ry="4"/>
</svg>
