<?xml version="1.0" encoding="utf-8"?>
<!-- Generator: Adobe Illustrator 25.2.1, SVG Export Plug-In . SVG Version: 6.00 Build 0)  -->
<svg version="1.1" id="Layer_1" xmlns="http://www.w3.org/2000/svg" xmlns:xlink="http://www.w3.org/1999/xlink" x="0px" y="0px"
	 width="36px" height="36px" viewBox="0 0 36 36" enable-background="new 0 0 36 36" xml:space="preserve">
<path fill="#FFAC33" d="M30.414,9.28c-2.266-3.135-6.545-6.934-14.066-7.232L15.87,8.245c1.893,0.639,5.829,3.862,6.602,7.745
	c0.215,1.076,0.155,2.111-0.144,3.105c-1.624-3.031-4.566-4.938-8.158-4.938c-5.814,0-9.527,4.787-9.527,10.67
	c0,5.082,3.713,10.671,9.527,10.671c0.029,0,0.058-0.004,0.086-0.004l0.091,0.006c0.602,0.043,1.608,0.113,2.826,0.113
	c6.086,0,13.838-1.729,16.201-9.968C34.928,20.226,33.795,13.955,30.414,9.28z"/>
<path fill="#F4900C" d="M18.911,30.798c-0.17,0.636,2.905,1.47,5.61-1.461c3.049-3.303,3.239-11.623-3.789-17.297
	c-0.071-0.021-0.133-0.033-0.2-0.049c0.909,1.172,1.648,2.539,1.938,3.999c0.208,1.04,0.154,2.04-0.12,3.004
	C24.282,22.709,25.259,28.924,18.911,30.798z M30.873,24.256c0.759-0.091,1.894-0.461,2.991-0.937
	c0.104-0.723,0.164-1.455,0.182-2.19c-0.908,0.835-1.941,1.532-2.793,1.92C29.856,23.685,29.285,24.446,30.873,24.256z
	 M29.983,15.999c-2.223,2.032,0.101,1.333,1.398,0.508c0.761-0.484,1.315-1.189,1.687-1.972c-0.429-1.311-0.995-2.578-1.693-3.769
	C31.493,12.839,31.277,14.817,29.983,15.999z"/>
<path fill="#FF839B" d="M20.896,3.385c-0.043-0.434-0.357-0.791-0.782-0.889C18.519,2.128,7.344,0.435,4.96,0.435L4.765,0.438
	c-1.421,0.065-2.507,0.79-2.768,1.848c-0.123,0.498-0.209,1.771,1.624,2.84C4.172,5.448,4.508,5.787,4.52,6.034
	c0.01,0.235-0.261,0.712-1.062,1.283c-0.794,0.567-1.119,1.442-0.85,2.284c0.331,1.033,1.467,1.728,2.828,1.728
	c0.744,0,1.513-0.196,2.285-0.582c1.996-0.999,4.682-1.643,6.844-1.643c1.066,0,1.971,0.15,2.689,0.445
	c0.362,0.149,0.717,0.225,1.053,0.225c0.619,0,1.965-0.2,1.6-0.722C17.26,5.265,20.966,4.072,20.896,3.385z"/>
<path fill="#EA596E" d="M2.533,4.243C2.785,4.54,3.13,4.84,3.621,5.126C4.172,5.448,4.508,5.787,4.52,6.034
	c0.01,0.235-0.261,0.712-1.062,1.283C2.854,7.748,2.526,8.358,2.52,8.996C13.216,5.193,5.619,6.799,2.533,4.243z"/>
</svg>
