<?xml version="1.0" encoding="utf-8"?>
<!-- Generator: Adobe Illustrator 25.2.1, SVG Export Plug-In . SVG Version: 6.00 Build 0)  -->
<svg version="1.1" id="Layer_1" xmlns="http://www.w3.org/2000/svg" xmlns:xlink="http://www.w3.org/1999/xlink" x="0px" y="0px"
	 width="36px" height="36px" viewBox="0 0 36 36" enable-background="new 0 0 36 36" xml:space="preserve">
<path fill="#EEEEEE" d="M13.094,17.034H1.387C0.954,19.536,1.449,23.674,3,26c2.755,4.133,6.403,5.454,9.252,5.454L13.094,17.034z"
	/>
<path fill="#CCD6DD" d="M11.973,23.997c-0.296,2.456-0.35,5.256,0.279,7.457c3.29-0.745,18.042-10.805,19.19-13.186
	c0.837-1.735,1.128-4.481,0.486-6.789L11.973,23.997z"/>
<path fill="#A0041E" d="M0.959,12.11c0.026,1.01,0.019,1.746,0.01,2.573c-0.005,0.46-0.01,0.948-0.01,1.525
	c0,0.297,0.132,0.58,0.361,0.77c2.033,1.687,8.714,6.157,10.233,6.917C11.694,23.965,11.848,24,12,24c0.216,0,0.432-0.07,0.61-0.207
	c2.556-1.967,16.483-9.93,18.663-10.875c0.335-0.145,0.565-0.463,0.598-0.827c0.125-1.372,0.458-4.741,0.458-4.741L0.959,12.11z"/>
<path fill="#DD2E44" d="M32.085,6.589c-2.02-2.295-9.627-5.574-10.917-5.63c-0.081-0.004-0.159,0.002-0.238,0.018
	C10.824,2.991,4.211,8.783,1.721,10.964l-0.416,0.362c-0.232,0.2-0.359,0.496-0.346,0.802c0.014,0.306,0.167,0.589,0.416,0.768
	c0.339,0.243,8.316,5.96,10.257,7.058c0.154,0.086,0.323,0.129,0.492,0.129c0.24,0,0.479-0.087,0.667-0.254
	c3.915-3.499,17.1-10.961,18.899-11.644c0.307-0.117,0.536-0.376,0.615-0.694C32.384,7.172,32.302,6.835,32.085,6.589z"/>
<path fill="#EA596E" d="M9.166,17.417c-0.478,0-0.9-0.343-0.984-0.83L8.136,16.32c-0.398-2.308-0.849-4.925-1.669-7.425
	C6.294,8.371,6.581,7.806,7.105,7.633c0.524-0.173,1.09,0.114,1.262,0.639c0.866,2.639,1.33,5.332,1.739,7.708l0.046,0.266
	c0.094,0.544-0.271,1.062-0.815,1.155C9.28,17.412,9.222,17.417,9.166,17.417z M15.208,17.167c-0.529,0-0.971-0.416-0.998-0.95
	c-0.077-1.54-1.186-7.973-2.19-10.705c-0.19-0.519,0.075-1.093,0.593-1.284c0.522-0.191,1.094,0.075,1.284,0.593
	c1.064,2.895,2.217,9.435,2.31,11.295c0.028,0.551-0.397,1.021-0.949,1.048C15.242,17.166,15.225,17.167,15.208,17.167z
	 M20.833,13.375c-0.487,0-0.913-0.355-0.988-0.852l-0.113-0.787c-0.293-2.061-0.839-5.897-1.68-8.42
	c-0.175-0.524,0.108-1.09,0.632-1.265c0.526-0.175,1.09,0.109,1.265,0.632c0.898,2.695,1.461,6.647,1.763,8.771l0.112,0.772
	c0.082,0.546-0.295,1.055-0.841,1.137C20.933,13.372,20.882,13.375,20.833,13.375z M26.499,9.958c-0.508,0-0.942-0.385-0.994-0.901
	c-0.186-1.863-0.473-3.22-0.989-4.684c-0.184-0.521,0.09-1.092,0.61-1.275c0.523-0.184,1.092,0.089,1.276,0.61
	c0.565,1.604,0.893,3.144,1.093,5.15c0.055,0.549-0.347,1.039-0.896,1.094C26.565,9.957,26.532,9.958,26.499,9.958z"/>
<path fill="#292F33" d="M25.5,16c-5.247,0-9.5,3.134-9.5,7v5c0,3.859,4.262,7,9.5,7s9.5-3.141,9.5-7v-5C35,19.134,30.747,16,25.5,16
	z"/>
<g>
	<path fill="#E1E8ED" d="M25.5,28.833c-4.365,0-7.917-2.616-7.917-5.833s3.552-5.833,7.917-5.833s7.916,2.617,7.916,5.833
		S29.865,28.833,25.5,28.833z"/>
</g>
<g>
	<path fill="#77B255" d="M25.5,26.135c-2.776,0-4.791-1.511-4.791-3.593l4.94-2.01l4.56,1.55
		C30.209,24.031,28.408,26.135,25.5,26.135z"/>
</g>
<g>
	<path fill="#F4900C" d="M21.446,24.05c-0.167,0-0.322-0.039-0.468-0.127C20.5,23.635,20.5,22.995,20.5,22.785
		c0-2.047,2.243-3.713,5-3.713c2.77,0,5,1.602,5,2.928c0,0.173-0.09,0.334-0.237,0.426c-0.146,0.089-0.33,0.099-0.484,0.022
		c-0.033-0.017-1.887-0.886-4.62,0.026c-0.757,0.252-1.435,0.61-2.032,0.927C22.445,23.762,21.902,24.05,21.446,24.05z"/>
</g>
</svg>
