<?xml version="1.0" encoding="utf-8"?>
<!-- Generator: Adobe Illustrator 25.2.1, SVG Export Plug-In . SVG Version: 6.00 Build 0)  -->
<svg version="1.1" id="Layer_1" xmlns="http://www.w3.org/2000/svg" xmlns:xlink="http://www.w3.org/1999/xlink" x="0px" y="0px"
	 width="36px" height="36px" viewBox="0 0 36 36" enable-background="new 0 0 36 36" xml:space="preserve">
<path fill="#FFCC4D" d="M9,19.748V23c0,0.528,0.412,1.023,1.129,1.453c0.004,0.002,2.04,8.299,2.04,8.299
	C13.167,36.006,16.773,36,17.591,36c1.635,0,4.424,0.006,5.422-3.248l2.648-8.184C26.505,24.112,27,23.576,27,23v-3.252H9z"/>
<path fill="#FFAC33" d="M18,26c-3.385,0-6.331-0.624-7.867-1.545h-0.004l0.309,1.399C11.527,27.024,14.055,28,18,28
	c3.46,0,5.831-0.751,7.097-1.725l0.561-1.698l-0.011,0C24.06,25.43,21.233,26,18,26z"/>
<path fill="#F4900C" d="M26.183,20.5c0,1.381-3.664,2.5-8.183,2.5s-8.182-1.119-8.182-2.5H26.183z"/>
<path fill="#FFE8B6" d="M26.902,13.908c0.218-0.939,0.159-1.941-0.258-2.942c-0.404-0.969-1.106-1.726-1.956-2.239
	c0.19-0.709,0.154-1.469-0.179-2.228c-0.501-1.145-1.589-1.903-2.814-2.113c0.152-0.341,0.214-0.76,0.039-1.288
	c-0.595-1.782-2.97-0.584-4.751-2.959c-1.476,0.885-1.777,2.208-1.707,3.315c-1.352,0.241-2.132,0.532-2.132,0.532v0.001
	c-0.808,0.327-1.379,1.119-1.379,2.044c0,0.49,0.165,0.939,0.436,1.305l-0.48,0.179l0.001,0.002c-1.384,0.517-2.36,1.767-2.36,3.229
	c0,0.622,0.191,1.197,0.5,1.702C8.176,13.198,7,14.838,7,16.754c0,2.495,1.989,4.518,4.508,4.712c2.663,0.826,7.99,0.6,12.076-0.091
	c2.371-0.4,4.791-1.82,4.791-4.225C28.375,15.855,27.799,14.705,26.902,13.908z"/>
<path fill="#FFD983" d="M14.75,18.212c-2.24,0.634-5.602,0.796-7.39,0.314c0.725,1.744,2.478,2.977,4.535,2.977
	c6.145,0,12.417-4.183,12.417-4.183c1.969-1.226,2.972-3.16,2.649-5.188C24.919,15.02,17.092,17.549,14.75,18.212z M13.135,14.231
	c4.739,0,9.575-3.069,9.575-3.069c1.583-0.937,2.372-2.438,2.02-3.994c-6.026,3.918-11.564,5.07-14.918,5.198
	C10.445,13.47,11.688,14.231,13.135,14.231z M11.833,6.555c0.236,0.964,1.1,1.681,2.136,1.681c0.655,0,1.312-0.111,1.936-0.277
	c0.384-0.116,0.764-0.24,1.143-0.375c1.456-0.565,2.517-1.291,2.517-1.291c1.056-0.677,2.143-1.873,2.143-1.873
	s0.369-0.831-0.25-1.319C19.713,4.849,14.145,6.579,11.833,6.555z"/>
</svg>
