<?xml version="1.0" encoding="utf-8"?>
<!-- Generator: Adobe Illustrator 25.2.1, SVG Export Plug-In . SVG Version: 6.00 Build 0)  -->
<svg version="1.1" id="Layer_1" xmlns="http://www.w3.org/2000/svg" xmlns:xlink="http://www.w3.org/1999/xlink" x="0px" y="0px"
	 width="36px" height="36px" viewBox="0 0 36 36" enable-background="new 0 0 36 36" xml:space="preserve">
<path fill="#55ACEE" d="M2,17v4.453c0,0.804,0.887,1.552,2.391,2.19c0.884,2.317,2.724,6.534,5.2,8.941
	c2.408,2.34,6.458,2.521,7.899,2.521c2.88,0,6.55-0.192,8.958-2.534c2.984-2.899,4.835-7.007,5.66-9.147
	C33.31,22.836,34,22.166,34,21.453V17H2z"/>
<path fill="#3B88C3" d="M18,25.651c-5.714,0-10.774-0.805-13.607-2.007c0.228,0.597,0.513,1.305,0.861,2.091
	c2.087,1.507,6.422,2.715,12.956,2.715c6.462,0,10.768-1.183,12.881-2.667c0.436-0.913,0.769-1.719,1.016-2.359
	C29.396,24.749,24.06,25.651,18,25.651z"/>
<path fill="#F9D2DC" d="M3.857,19.283c0.901,0.331,6.693,2.383,13.999,2.383c8.226,0,14.254-1.788,15.634-2.779
	c0.97-0.698,1.232-5.151-0.876-8.889c-5.175-3.778-24.452-5.08-27.862-0.4C1.711,13.77,0.486,18.043,3.857,19.283z"/>
<path fill="#F98097" d="M11.845,11.767c2.91,3.9,9.483,1.756,12.293-0.975c2.289-2.226,5.179-1.633,8.452-0.784
	c-0.892-1.583-2.2-3.041-4.069-4.027c-5.363-2.829-5.513-5.608-10.624-5.608c-4.049,0-9.737,4.548-13.146,9.225
	C6.645,8.981,9.553,8.696,11.845,11.767z"/>
<path fill="#EA596E" d="M12,6c0.552,0,1,0.448,1,1s-0.448,1-1,1s-1-0.448-1-1S11.448,6,12,6z M18,9c0.552,0,1,0.448,1,1
	s-0.448,1-1,1s-1-0.448-1-1S17.448,9,18,9z M22,4c0.552,0,1,0.448,1,1s-0.448,1-1,1s-1-0.448-1-1S21.448,4,22,4z"/>
</svg>
