<?xml version="1.0" encoding="utf-8"?>
<!-- Generator: Adobe Illustrator 25.2.1, SVG Export Plug-In . SVG Version: 6.00 Build 0)  -->
<svg version="1.1" id="Layer_1" xmlns="http://www.w3.org/2000/svg" xmlns:xlink="http://www.w3.org/1999/xlink" x="0px" y="0px"
	 width="36px" height="36px" viewBox="0 0 36 36" enable-background="new 0 0 36 36" xml:space="preserve">
<path fill="#FFAC33" d="M35.337,23.549C34.291,29.819,27.615,34,18.092,34S1.894,29.819,0.849,23.549
	c-0.247-1.479,0.156-8.12,1.054-9.406c2.559-3.664,3.474,10.365,16.189,10.365c13.847,0,13.64-14.028,16.199-10.365
	C35.189,15.429,35.583,22.07,35.337,23.549z"/>
<path fill="#8A4B38" d="M34.987,16.234c0-5.655-7.565-10.239-16.895-10.239c-9.331,0-16.895,4.584-16.895,10.239
	c0,0.157,0.027,0.31,0.039,0.466c-0.151,1.772,0.049,4.139,0.963,5.5c2.134,3.18,3.179,1.567,4.747,2.047
	c2.335,0.715,2.508,2.56,4.354,3.483c2.09,1.045,3.306,0.741,6.27,0c4.181-1.045,6.837,1.088,9.405,0
	c2.107-0.893,3.312-4.137,4.486-4.528c2.314-0.771,3.492-3.328,3.392-5.735C34.933,17.062,34.987,16.652,34.987,16.234z
	 M18.092,16.234c3.173,0,5.747,0.701,5.747,1.567c0.001,0.866-2.573,1.568-5.747,1.568c-3.174,0-5.748-0.702-5.748-1.568
	C12.344,16.935,14.918,16.234,18.092,16.234z"/>
<path fill="#F4900C" d="M18.092,13.882c-3.752,0-6.793,1.228-6.793,2.743c0,0.589,0.463,1.133,1.245,1.58
	c-0.126-0.129-0.2-0.264-0.2-0.404c0-0.866,2.574-1.567,5.748-1.567c3.173,0,5.747,0.701,5.747,1.567c0,0.14-0.073,0.274-0.2,0.404
	c0.782-0.447,1.246-0.991,1.246-1.58C24.886,15.11,21.844,13.882,18.092,13.882z"/>
<path fill="#F4ABBA" d="M4.42,18.15c-0.375,0-0.737-0.203-0.925-0.557c-0.27-0.51-0.075-1.143,0.436-1.412l2.308-1.22
	c0.509-0.272,1.142-0.075,1.412,0.436c0.27,0.51,0.075,1.143-0.436,1.412l-2.308,1.22C4.751,18.111,4.584,18.15,4.42,18.15z
	 M16.307,25.944c-0.41,0-0.799-0.242-0.966-0.646l-0.74-1.786c-0.221-0.533,0.032-1.144,0.565-1.365
	c0.534-0.22,1.144,0.032,1.365,0.566l0.74,1.786c0.221,0.533-0.032,1.145-0.566,1.365C16.576,25.919,16.44,25.944,16.307,25.944z
	 M29.893,14c-0.56,0-1.023-0.481-1.043-1.046c-0.021-0.576,0.431-1.079,1.007-1.1l1.218-0.052c0.587-0.007,1.062,0.426,1.081,1.003
	c0.021,0.577-0.431,1.096-1.007,1.116L29.931,14H29.893z M19.792,9.876c-0.444,0-0.855-0.285-0.997-0.73
	c-0.174-0.55,0.131-1.137,0.681-1.312l0.826-0.261c0.556-0.174,1.138,0.131,1.312,0.682c0.175,0.55-0.131,1.137-0.681,1.312
	l-0.826,0.261C20.002,9.861,19.896,9.876,19.792,9.876z"/>
<path fill="#88C9F9" d="M13.998,11.574c-0.157,0-0.316-0.036-0.466-0.11l-0.784-0.392c-0.516-0.258-0.726-0.886-0.468-1.402
	c0.258-0.516,0.886-0.726,1.402-0.468l0.784,0.392c0.516,0.258,0.726,0.886,0.468,1.402C14.75,11.362,14.381,11.574,13.998,11.574z
	 M23.1,24.854c-0.156,0-0.315-0.035-0.465-0.109l-0.784-0.391c-0.517-0.258-0.727-0.885-0.47-1.401
	c0.257-0.517,0.884-0.727,1.401-0.47l0.784,0.391c0.517,0.258,0.727,0.885,0.47,1.401C23.854,24.642,23.483,24.854,23.1,24.854z"/>
<path fill="#55ACEE" d="M28.151,21.764c-0.181,0-0.364-0.047-0.53-0.146c-0.497-0.293-0.662-0.935-0.368-1.431l1.132-1.916
	c0.293-0.496,0.938-0.661,1.431-0.368c0.497,0.294,0.662,0.935,0.368,1.432l-1.132,1.915C28.857,21.58,28.509,21.764,28.151,21.764z
	 M9.426,22.548c-0.138,0-0.277-0.026-0.412-0.085c-0.53-0.228-0.776-0.842-0.548-1.372l0.392-0.914
	c0.228-0.529,0.843-0.779,1.373-0.548c0.53,0.227,0.776,0.842,0.548,1.372l-0.392,0.914C10.217,22.31,9.832,22.548,9.426,22.548z
	 M25.018,12.663c-0.403,0-0.787-0.234-0.958-0.627c-0.232-0.529,0.01-1.145,0.538-1.376l0.696-0.305
	c0.53-0.232,1.146,0.01,1.376,0.538c0.231,0.529-0.01,1.145-0.538,1.377l-0.696,0.305C25.299,12.635,25.157,12.663,25.018,12.663z
	 M8.035,12.62c-0.078,0-0.157-0.009-0.235-0.027l-0.566-0.13c-0.562-0.13-0.914-0.691-0.784-1.253
	c0.129-0.563,0.691-0.913,1.253-0.784l0.566,0.13c0.562,0.13,0.914,0.691,0.784,1.253C8.941,12.292,8.51,12.62,8.035,12.62z"/>
</svg>
