<?xml version="1.0" encoding="utf-8"?>
<!-- Generator: Adobe Illustrator 25.2.1, SVG Export Plug-In . SVG Version: 6.00 Build 0)  -->
<svg version="1.1" id="Layer_1" xmlns="http://www.w3.org/2000/svg" xmlns:xlink="http://www.w3.org/1999/xlink" x="0px" y="0px"
	 width="36px" height="36px" viewBox="0 0 36 36" enable-background="new 0 0 36 36" xml:space="preserve">
<path fill="#55ACEE" d="M29.488,13H5.999c-1.046,0-3.189,0.395-3.175,2.176c-0.573-0.192,0.582,3.352,0.97,3.524
	c0.075,0.025,0.15,0.047,0.224,0.072C7.737,26.431,16,28.625,16,28.625v1.173c0,0-4.634,2.443-5.588,3.01
	c-1.027,0.588-0.268,1.526,0.144,1.689c0.684,0.269,2.39,1.15,7.116,1.15c4.847,0,7.497-0.954,8.083-1.15
	c0.226-0.075,1.197-0.973-0.198-1.799c-2.484-1.47-5.557-2.9-5.557-2.9v-1.173c0,0,8.434-2.162,12.194-9.806
	c0.284-0.143,0.452-0.273,0.488-0.38c0.167-0.483,0.413-1.499,0.55-2.3c0.041-0.14,0.086-0.276,0.124-0.419
	C33.752,14.225,31.838,13,29.488,13z"/>
<path fill="#3B88C3" d="M33.291,15.248c0,1.692-6.835,3.064-15.269,3.064c-8.432,0-15.268-1.371-15.268-3.064
	s6.836-3.064,15.268-3.064C26.456,12.184,33.291,13.555,33.291,15.248z"/>
<path fill="#3B88C3" d="M4.048,18.781c0.363,0.746,0.753,1.459,1.191,2.104c11.35,3.251,21.551,1.204,25.598,0.213
	c0.493-0.695,0.941-1.456,1.343-2.273C29.448,20.194,16.176,22.791,4.048,18.781z"/>
<path fill="#F4ABBA" d="M25.982,6.908c0,1.613-3.133,4.745-7.832,4.745c-4.325,0-7.831-2.088-7.831-4.745
	c0-4.325,3.505-6.787,7.831-6.787C22.477,0.122,25.982,2.583,25.982,6.908z"/>
<path fill="#FFE8B6" d="M33.291,14.217c0,1.613-3.132,4.223-7.83,4.223c-4.326,0-7.832,1.393-7.832-4.223
	c0-4.325,3.506-7.831,7.832-7.831C29.786,6.386,33.291,9.892,33.291,14.217z"/>
<path fill="#8A4B38" d="M18.672,14.217c0,5.182-3.132,4.311-7.831,4.311c-4.325,0-7.831-1.653-7.831-4.311
	c0-4.325,3.506-7.831,7.831-7.831C15.167,6.386,18.672,9.892,18.672,14.217z"/>
</svg>
