<?xml version="1.0" encoding="utf-8"?>
<!-- Generator: Adobe Illustrator 25.2.1, SVG Export Plug-In . SVG Version: 6.00 Build 0)  -->
<svg version="1.1" id="Layer_1" xmlns="http://www.w3.org/2000/svg" xmlns:xlink="http://www.w3.org/1999/xlink" x="0px" y="0px"
	 width="36px" height="36px" viewBox="0 0 36 36" enable-background="new 0 0 36 36" xml:space="preserve">
<path fill="#292F33" d="M31,0H5C2.791,0,1,1.791,1,4v28c0,2.209,1.791,4,4,4h26c2.209,0,4-1.791,4-4V4C35,1.791,33.209,0,31,0z"/>
<path fill="#292F33" d="M14,11c0,2.209-1.791,4-4,4H9c-2.209,0-4-1.791-4-4V9c0-2.209,1.791-4,4-4h1c2.209,0,4,1.791,4,4V11z"/>
<path fill="#BE1931" d="M22,22.5H3V19c0-1.104,0.896-2,2-2h15c1.104,0,2,0.896,2,2V22.5z M33,19c0-1.104-0.896-2-2-2h-5
	c-1.104,0-2,0.896-2,2v3.5h9V19z M16,4c0-1.104,0.896-2,2-2h13c1.104,0,2,0.896,2,2v3.5H16V4z M14,7.5H3V4c0-1.104,0.896-2,2-2h7
	c1.104,0,2,0.896,2,2V7.5z"/>
<path fill="#DD2E44" d="M14,13c0,1.104-0.896,2-2,2H5c-1.104,0-2-0.896-2-2V7c0-1.104,0.896-2,2-2h7c1.104,0,2,0.896,2,2V13z M33,13
	c0,1.104-0.896,2-2,2H18c-1.104,0-2-0.896-2-2V7c0-1.104,0.896-2,2-2h13c1.104,0,2,0.896,2,2V13z"/>
<path fill="#E1E8ED" d="M22,27c0,1.104-0.896,2-2,2H5c-1.104,0-2-0.896-2-2v-5c0-1.104,0.896-2,2-2h15c1.104,0,2,0.896,2,2V27z"/>
<path fill="#DD2E44" d="M33,27c0,1.104-0.896,2-2,2h-5c-1.104,0-2-0.896-2-2v-5c0-1.104,0.896-2,2-2h5c1.104,0,2,0.896,2,2V27z"/>
<path fill="#FFAC33" d="M27.015,9.24c1.315,1.478,1.908,3.098,1.322,3.619L27.278,13.8c-0.585,0.522-2.126-0.255-3.44-1.733
	l-3.571-4.013c-1.314-1.479-1.907-3.099-1.321-3.62l1.059-0.941c0.586-0.521,2.124,0.255,3.438,1.733
	C23.443,5.226,27.015,9.24,27.015,9.24z"/>
<path fill="#FFD983" d="M29.876,8.228l-0.304-0.89c-0.169-0.492-1.571-0.459-3.133,0.075l-3.154,1.078
	c0.292-0.752,0.62-1.593,0.62-1.593c0.599-1.538,0.69-2.938,0.205-3.126l-0.876-0.341c-0.485-0.188-1.363,0.906-1.962,2.444
	l-1.625,4.178c-0.598,1.538-0.69,2.938-0.205,3.126l0.877,0.341c0.397,0.155,1.058-0.56,1.613-1.668
	c0.37-0.071,0.769-0.175,1.181-0.316l4.24-1.45C28.915,9.553,30.045,8.721,29.876,8.228z"/>
<path fill="#5C913B" d="M13.577,8.922c-2.224-2.007-6.746-5.143-7.132-1.067c-4.274,2.129,0.876,6.217,2.811,6.627
	c0.224-1.058,0.422-2.448,0.412-3.713C11.254,10.512,12.951,9.616,13.577,8.922z"/>
<path fill="#77B255" d="M5,8c-1.2-1.6,1-5,6-5C12,4,8,12,5,8z"/>
<path fill="#B2C2CC" d="M6,27c-0.256,0-0.512-0.098-0.707-0.293c-0.391-0.391-0.391-1.023,0-1.414l1-1
	c0.391-0.391,1.023-0.391,1.414,0s0.391,1.023,0,1.414l-1,1C6.512,26.902,6.256,27,6,27z M18.417,27.499
	c-0.256,0-0.512-0.098-0.707-0.293l-1-1c-0.391-0.391-0.391-1.024,0-1.414c0.391-0.391,1.024-0.391,1.415,0l1,1
	c0.391,0.391,0.391,1.023,0,1.414C18.929,27.401,18.673,27.499,18.417,27.499z M12.25,23.208c-0.255,0-0.511-0.098-0.707-0.292
	l-0.459-0.458c-0.391-0.391-0.392-1.023-0.002-1.414c0.389-0.392,1.023-0.392,1.415-0.002l0.459,0.458
	c0.391,0.391,0.392,1.023,0.002,1.414C12.763,23.11,12.507,23.208,12.25,23.208z"/>
<path fill="#B26304" d="M32.149,23.412c0.707,0.848,0.592,2.109-0.257,2.816l-2.305,1.921c-0.848,0.707-2.109,0.592-2.816-0.257
	l-1.921-2.305c-0.707-0.848-0.592-2.109,0.257-2.816l2.305-1.921c0.848-0.707,2.109-0.592,2.816,0.257L32.149,23.412z"/>
<path fill="#F4900C" d="M32.149,21.412c0.707,0.848,0.592,2.109-0.257,2.816l-2.305,1.921c-0.848,0.707-2.109,0.592-2.816-0.257
	l-1.921-2.305c-0.707-0.848-0.592-2.109,0.257-2.816l2.305-1.921c0.848-0.707,2.109-0.592,2.816,0.257L32.149,21.412z"/>
<path fill="#CCD6DD" d="M12,25c0.552,0,1,0.448,1,1s-0.448,1-1,1s-1-0.448-1-1S11.448,25,12,25z M20,21c0.552,0,1,0.448,1,1
	s-0.448,1-1,1s-1-0.448-1-1S19.448,21,20,21z"/>
</svg>
