<?xml version="1.0" encoding="utf-8"?>
<!-- Generator: Adobe Illustrator 25.2.1, SVG Export Plug-In . SVG Version: 6.00 Build 0)  -->
<svg version="1.1" id="Layer_1" xmlns="http://www.w3.org/2000/svg" xmlns:xlink="http://www.w3.org/1999/xlink" x="0px" y="0px"
	 width="36px" height="36px" viewBox="0 0 36 36" enable-background="new 0 0 36 36" xml:space="preserve">
<path fill="#55ACEE" d="M32.973,20.858c-0.56-2.797-2.108-6.956-3.707-10.015c1.8-1.248,3.359-3.716,3.359-8.482
	c-0.652-0.503-1.281-0.503-2.652-0.503c-1.37,0-7.314,0-8.001,0c-0.685,0-3.043-0.043-3.513,0.427c0,4.709,1.612,7.207,3.337,8.491
	c-1.572,3.076-3.124,7.288-3.823,10.082c-1,4-0.034,9.327,0,9.5c0.312,1.584,2.254,3.5,7.5,3.5s7.021-1.999,7.5-3.5
	C33.029,30.183,33.973,25.858,32.973,20.858z"/>
<ellipse fill="#3B88C3" cx="25.543" cy="2.296" rx="7.083" ry="1.789"/>
<path fill="#88C9F9" d="M25.431,4.644c-3.154,0-5.515-0.701-6.154-1.001c-0.5-0.235-0.715-0.83-0.48-1.33
	c0.234-0.5,0.827-0.716,1.33-0.48c0.731,0.344,5.593,1.707,11.045-0.094c0.521-0.172,1.09,0.112,1.263,0.636
	c0.174,0.524-0.111,1.09-0.636,1.263C29.523,4.388,27.332,4.644,25.431,4.644z"/>
<path fill="#CCD6DD" d="M19.652,24.186c0-1.104-0.868-1.389-2.542-1.389H4.834c-0.837,0-2.478-0.48-2.478,1.297
	C2.356,34.293,8.551,36,10.722,36C13.73,36,19.652,34.449,19.652,24.186z"/>
<path fill="#8899A6" d="M19.621,23.488c0,1.206-2.639,2.184-8.649,2.184s-8.649-0.978-8.649-2.184c0-1.207,2.64-2.184,8.649-2.184
	C16.982,21.305,19.621,22.281,19.621,23.488z"/>
<path fill="#FFFFFF" d="M10.828,26.135c-3.801,0-6.643-0.841-7.413-1.202c-0.5-0.234-0.715-0.829-0.481-1.329
	c0.235-0.501,0.829-0.718,1.33-0.481c0.906,0.425,6.928,2.114,13.649-0.105c0.527-0.175,1.09,0.11,1.263,0.636
	c0.174,0.524-0.111,1.09-0.635,1.263C15.783,25.826,13.129,26.135,10.828,26.135z"/>
<path fill="#88C9F9" d="M30.667,18.396c0,0.955-0.793,1.729-1.771,1.729c-0.13,0-0.255-0.015-0.377-0.041
	c-0.273,0.612-0.896,1.041-1.623,1.041c-0.979,0-1.771-0.774-1.771-1.729c0-0.646,0.368-1.203,0.906-1.5
	c-0.538-0.297-0.906-0.854-0.906-1.5c0-0.955,0.793-1.729,1.771-1.729c0.978,0,1.771,0.774,1.771,1.729
	c0,0.102-0.013,0.2-0.031,0.297c0.085-0.012,0.171-0.026,0.26-0.026C29.874,16.667,30.667,17.441,30.667,18.396z M24.707,26.818
	c0.268-0.673-0.048-1.432-0.706-1.694c-0.657-0.262-1.408,0.071-1.677,0.745c-0.029,0.073-0.026,0.147-0.042,0.221
	c-0.07-0.046-0.128-0.105-0.208-0.137c-0.657-0.263-1.409,0.071-1.677,0.745c-0.269,0.674,0.048,1.432,0.705,1.694
	c0.452,0.18,0.938,0.064,1.292-0.236c0.051,0.46,0.324,0.879,0.775,1.059c0.658,0.262,1.409-0.071,1.678-0.745
	c0.203-0.509,0.07-1.065-0.29-1.42C24.608,26.973,24.671,26.907,24.707,26.818z"/>
<path fill="#BBDDF5" d="M27.625,17c0.621,0,1.125,0.504,1.125,1.125s-0.504,1.125-1.125,1.125S26.5,18.746,26.5,18.125
	S27.004,17,27.625,17z M23.792,27.084c0,0.437-0.354,0.791-0.792,0.791c-0.437,0-0.791-0.354-0.791-0.791
	c0-0.438,0.354-0.792,0.791-0.792C23.438,26.292,23.792,26.646,23.792,27.084z"/>
</svg>
