<?xml version="1.0" encoding="utf-8"?>
<!-- Generator: Adobe Illustrator 25.2.1, SVG Export Plug-In . SVG Version: 6.00 Build 0)  -->
<svg version="1.1" id="Layer_1" xmlns="http://www.w3.org/2000/svg" xmlns:xlink="http://www.w3.org/1999/xlink" x="0px" y="0px"
	 width="36px" height="36px" viewBox="0 0 36 36" enable-background="new 0 0 36 36" xml:space="preserve">
<path fill="#8899A6" d="M19,20.255c0,0,10.042-2.213,10.042-16.005c0-1.481-1.167-2.25-3.416-2.25H9.129
	C8.004,2,5.8,1.738,5.8,4.125c0,13.708,10.2,16.13,10.2,16.13v10.123c0,0-4.584,2.34-5.498,2.883
	c-0.984,0.562-0.33,1.462,0.063,1.617c0.656,0.258,2.253,1.102,6.78,1.102c4.641,0,6.202-0.914,6.765-1.102
	c0.217-0.072,1.347-0.932,0.011-1.723C21.743,31.747,19,30.378,19,30.378V20.255z"/>
<path fill="#CCD6DD" d="M29,3.442c0-1.621-3.547-2.935-11.623-2.935S5.754,1.82,5.754,3.442c0,0.707,0.675,1.355,2.106,1.862
	c2.07,8.184,5.26,11.137,8.297,12.114c1.11,0.358,2.026,0.428,2.801,0.123c3.301-1.297,7.081-5.192,8.025-12.272
	C28.349,4.767,29,4.133,29,3.442z"/>
<path fill="#A0041E" d="M9,9.5C9,13,12.333,18,17.333,18S26,12.542,26,9.542C20,9.542,9,9.5,9,9.5z"/>
<ellipse fill="#DD2E44" cx="17.5" cy="9.5" rx="8.5" ry="1.5"/>
<path fill="#FFFFFF" d="M17.168,6.659c-5.03,0-8.783-1.11-9.801-1.587c-0.5-0.234-0.715-0.83-0.481-1.33
	c0.234-0.501,0.831-0.716,1.33-0.481c1.239,0.582,9.455,2.894,18.596-0.127C27.335,2.96,27.9,3.246,28.074,3.77
	s-0.111,1.09-0.636,1.264C23.762,6.248,20.229,6.659,17.168,6.659z"/>
</svg>
