<?xml version="1.0" encoding="utf-8"?>
<!-- Generator: Adobe Illustrator 25.2.1, SVG Export Plug-In . SVG Version: 6.00 Build 0)  -->
<svg version="1.1" id="Layer_1" xmlns="http://www.w3.org/2000/svg" xmlns:xlink="http://www.w3.org/1999/xlink" x="0px" y="0px"
	 width="36px" height="36px" viewBox="0 0 36 36" enable-background="new 0 0 36 36" xml:space="preserve">
<ellipse fill="#939598" cx="18" cy="25" rx="18" ry="10"/>
<ellipse fill="#F1F2F2" cx="18" cy="23" rx="18" ry="10"/>
<ellipse fill="#FFFFFF" cx="18" cy="22.611" rx="14.8" ry="7.611"/>
<path fill="#E1E8ED" d="M28,5c0-3-4-4-6-2c-1-3-3.95-2.949-6-1c-1.653,1.572-1.177,3.127-0.995,4.995L8,14l0.143-0.029
	c-0.036,0.051-0.079,0.102-0.101,0.154C8.417,20.792,8,24.956,8,28c0,0,11.792-2.208,16.792-3.208S30,24,30,22s1-10,1-11
	C34,8,32,4,28,5z"/>
<path fill="#FFAC33" d="M8,27V15c0,0,21-7,21-2.458V23L8,27z"/>
<path fill="#FFD983" d="M8,26V16c0,0,12.375-4.208,20-4v10L8,26z"/>
<path fill="#FFAC33" d="M8,21v-1l21-4v1L8,21z"/>
<path fill="#FFFFFF" d="M30,10c1-1,1-5-3-4c0-1-2-4-5-2c0-1-5-2-6,0C26,7,30,10,30,10z"/>
<path fill="#DD2E44" d="M17.958,10.458c-1.833-0.208-4.417-1.083-3.917-3.5s2.474-4.881,3.75-5.542
	C18.917,0.833,20.117,1.26,21,4.667c0.583,2.25,2.75,5.125-1.667,5.75C18.875,10.417,17.958,10.458,17.958,10.458z"/>
<path fill="#F4ABBA" d="M18.375,5.042c-0.152,0-0.302-0.069-0.4-0.2l-0.5-0.667c-0.166-0.221-0.121-0.534,0.1-0.7
	c0.221-0.167,0.534-0.122,0.7,0.1l0.5,0.667c0.166,0.221,0.121,0.534-0.1,0.7C18.585,5.009,18.48,5.042,18.375,5.042z M15.959,8.542
	c-0.042,0-0.084-0.005-0.127-0.016c-0.267-0.07-0.427-0.343-0.357-0.61l0.25-0.958c0.069-0.267,0.344-0.426,0.61-0.357
	c0.267,0.07,0.427,0.343,0.357,0.61l-0.25,0.958C16.384,8.393,16.181,8.542,15.959,8.542z M20.333,8.625
	c-0.089,0-0.18-0.023-0.261-0.073l-0.75-0.458c-0.235-0.144-0.31-0.452-0.166-0.688c0.146-0.236,0.453-0.31,0.688-0.166l0.75,0.458
	c0.235,0.144,0.309,0.452,0.166,0.688C20.665,8.54,20.501,8.625,20.333,8.625z"/>
</svg>
