<?xml version="1.0" encoding="utf-8"?>
<!-- Generator: Adobe Illustrator 25.2.1, SVG Export Plug-In . SVG Version: 6.00 Build 0)  -->
<svg version="1.1" id="Layer_1" xmlns="http://www.w3.org/2000/svg" xmlns:xlink="http://www.w3.org/1999/xlink" x="0px" y="0px"
	 width="36px" height="36px" viewBox="0 0 36 36" enable-background="new 0 0 36 36" xml:space="preserve">
<path fill="#8899A6" d="M19,27.255c0,0,8-0.213,9.651-4.075c1.069-2.501-0.609-9.554-0.609-13.93c0-1.481-1.167-2.25-3.416-2.25
	H10.129C9.004,7,6.8,6.738,6.8,9.125c0,4.284-1.765,11.341-0.634,13.815C8.042,27.042,16,27.255,16,27.255v3.123
	c0,0-4.584,2.34-5.498,2.883c-0.984,0.562-0.33,1.462,0.063,1.617c0.656,0.258,2.253,1.102,6.78,1.102
	c4.641,0,6.202-0.914,6.765-1.102c0.217-0.072,1.347-0.932,0.011-1.723C21.743,31.747,19,30.378,19,30.378S19,27.255,19,27.255z"/>
<path fill="#CCD6DD" d="M28,8.442c0-1.621-2.547-2.935-10.623-2.935S6.754,6.82,6.754,8.442c0,0.765,0.579,1.46,2.028,1.982
	c1.154,8.193-2.438,11.848,1.759,13.326c5.432,1.911,8.542,1.593,13.458,0c4.222-1.368,1.843-6.221,2.048-13.353
	C27.441,9.877,28,9.194,28,8.442z"/>
<path fill="#F4900C" d="M9.042,14.583c-0.083,1.083-1.09,6.129-0.625,7.292c0.5,1.25,1.75,3.25,8.917,3.25
	c5.25,0,8.583-1.583,9.125-3.583c0.471-1.74-0.25-5.583-0.333-7"/>
<ellipse fill="#FFCC4D" cx="17.5" cy="14.5" rx="8.5" ry="1.5"/>
<path fill="#C1694F" d="M24.745,4.901c0,0-5.922,13.911-6.231,14.549c-0.377,0.78,0.601,1.874,1.47,0.483
	c0.868-1.391,6.741-13.698,6.741-13.698S24.745,4.901,24.745,4.901z"/>
<path fill="#FFFFFF" d="M17.31,11.675c-4.291,0-7.672-1.007-8.943-1.603c-0.5-0.234-0.715-0.83-0.481-1.33
	c0.234-0.501,0.83-0.716,1.33-0.481c0.074,0.035,7.707,3.276,16.552-0.111c0.514-0.199,1.094,0.06,1.291,0.576
	c0.198,0.516-0.061,1.094-0.576,1.292C23.261,11.252,20.094,11.675,17.31,11.675z"/>
<path fill="#FFAC33" d="M20.698,14.386l-0.661,1.544c0.697-0.02,1.447-0.085,2.084-0.173l0.476-0.97
	C21.98,14.798,21.361,14.671,20.698,14.386z"/>
<path fill="#CC6F00" d="M18.514,19.45c-0.377,0.78,0.601,1.874,1.47,0.483c0.288-0.462,1.129-2.129,2.122-4.147
	c-0.589,0.065-1.355,0.121-2.077,0.161C19.222,17.831,18.608,19.256,18.514,19.45z"/>
<path fill="#77B255" d="M30.292,3.74c-0.801-1.126-1.411-1.978-1.479-2.073C28.625,1.406,28.322,1.25,28,1.25
	c-1.459,0-4.763-0.016-7.233-0.028c-1.481-0.007-2.663-0.013-2.975-0.013c-0.648,0-1.18,0.425-1.324,1.059
	c-0.336,1.48,1.528,4.291,7.892,7.343c0.6,0.288,1.164,0.543,1.694,0.769C32.759,11.675,31.717,5.743,30.292,3.74z"/>
<path fill="#5C913B" d="M26.141,10.411c3.136,1.328,5.078,1.645,6.188,1.645h0.001c1.474,0,2.038-0.551,2.252-1.013
	c0.215-0.465,0.146-0.99-0.184-1.419c-0.653-1.013-2.681-3.881-4.106-5.884C31.104,6.317,31.403,10.207,26.141,10.411z"/>
<circle fill="#3E721D" cx="28.188" cy="1.688" r="1.688"/>
</svg>
