<?xml version="1.0" encoding="utf-8"?>
<!-- Generator: Adobe Illustrator 25.2.1, SVG Export Plug-In . SVG Version: 6.00 Build 0)  -->
<svg version="1.1" id="Layer_1" xmlns="http://www.w3.org/2000/svg" xmlns:xlink="http://www.w3.org/1999/xlink" x="0px" y="0px"
	 width="36px" height="36px" viewBox="0 0 36 36" enable-background="new 0 0 36 36" xml:space="preserve">
<path fill="#31373D" d="M32,21v1h-2v-1c0-0.446-0.09-0.867-0.225-1.268c2.446-0.757,4.224-3.038,4.224-5.733c0-3.314-2.687-6-6-6
	c-1.603,0-3.055,0.632-4.131,1.656C23.241,6.433,20.405,4,17,4c-3.866,0-7,3.134-7,7c0,2.551,1.369,4.777,3.409,6H13
	c-2.209,0-4,1.791-4,4H8l-6-4H1v14h1l6-4h1v2c0,2.209,1.791,4,4,4h13c2.209,0,4-1.791,4-4v-3h2v1h3v-6H32z"/>
<path fill="#66757F" d="M22,11c0,2.761-2.239,5-5,5s-5-2.239-5-5s2.239-5,5-5S22,8.238,22,11z"/>
<circle fill="#66757F" cx="27.999" cy="14" r="4"/>
<circle fill="#CCD6DD" cx="17" cy="11" r="2"/>
<circle fill="#CCD6DD" cx="27.999" cy="14" r="2"/>
<circle fill="#8899A6" cx="12.999" cy="28" r="2"/>
<path fill="#8899A6" d="M17,20v10h10V20H17z M25,28h-6v-6h6V28z"/>
</svg>
