<?xml version="1.0" encoding="utf-8"?>
<!-- Generator: Adobe Illustrator 25.2.1, SVG Export Plug-In . SVG Version: 6.00 Build 0)  -->
<svg version="1.1" id="Layer_1" xmlns="http://www.w3.org/2000/svg" xmlns:xlink="http://www.w3.org/1999/xlink" x="0px" y="0px"
	 width="36px" height="36px" viewBox="0 0 36 36" enable-background="new 0 0 36 36" xml:space="preserve">
<path fill="#3B88C3" d="M36,32c0,2.209-1.791,4-4,4H4c-2.209,0-4-1.791-4-4V4c0-2.209,1.791-4,4-4h28c2.209,0,4,1.791,4,4V32z"/>
<path fill="#FFFFFF" d="M31.999,13c0-2.762-2.239-5-5-5c-2.761,0-5,2.239-5,5c0,1.131,0.39,2.162,1.023,3h-4.708
	C19.932,14.925,21,13.088,21,11c0-3.314-2.687-6-6-6c-3.314,0-6,2.686-6,6c0,2.572,1.621,4.759,3.894,5.612
	C11.76,17.319,11,18.566,11,20l-6-4H4v13h1l6-4v2c0,2.209,1.791,4,4,4h11c2.209,0,4-1.791,4-4v-7c0-0.944-0.341-1.8-0.887-2.484
	C30.813,16.718,31.999,15.003,31.999,13z"/>
</svg>
