<?xml version="1.0" encoding="utf-8"?>
<!-- Generator: Adobe Illustrator 25.2.1, SVG Export Plug-In . SVG Version: 6.00 Build 0)  -->
<svg version="1.1" id="Layer_1" xmlns="http://www.w3.org/2000/svg" xmlns:xlink="http://www.w3.org/1999/xlink" x="0px" y="0px"
	 width="36px" height="36px" viewBox="0 0 36 36" enable-background="new 0 0 36 36" xml:space="preserve">
<path fill="#CCD6DD" d="M30.224,15.347H19.201l8.205-8.205l-0.707-0.707l-8.205,8.205V5.107h-1v9.533L9.288,6.435L8.581,7.142
	l8.206,8.205H5.764v1h11.023l-8.206,8.206l0.707,0.707l8.206-8.206v10.584h1V17.055l8.205,8.205l0.707-0.707l-8.205-8.206h11.023
	V15.347z"/>
<path fill="#AAB8C2" d="M17.994,1.394c-7.982,0-14.453,6.471-14.453,14.453S10.012,30.3,17.994,30.3
	c7.983,0,14.454-6.471,14.454-14.453C32.447,7.865,25.976,1.394,17.994,1.394z M17.994,28.077c-6.755,0-12.23-5.475-12.23-12.23
	s5.475-12.23,12.23-12.23c6.754,0,12.23,5.475,12.23,12.23S24.749,28.077,17.994,28.077z"/>
<path fill="#AAB8C2" d="M17.993,23.374c-4.15,0-7.526-3.377-7.526-7.527s3.376-7.526,7.526-7.526c4.151,0,7.528,3.376,7.528,7.526
	S22.145,23.374,17.993,23.374z M17.993,9.821c-3.323,0-6.026,2.704-6.026,6.026s2.704,6.027,6.026,6.027
	c3.324,0,6.028-2.704,6.028-6.027S21.317,9.821,17.993,9.821z"/>
<path fill="#8899A6" d="M27.279,34.429L19.883,18.23l-3.78,0L8.709,34.429l1.819,0.83l7.465-16.351l7.465,16.351L27.279,34.429z"/>
<path fill="#553788" d="M12.9,36H7.079c-0.552,0-1-0.447-1-1s0.448-1,1-1H12.9c0.552,0,1,0.447,1,1S13.452,36,12.9,36z M28.899,36
	h-5.82c-0.553,0-1-0.447-1-1s0.447-1,1-1h5.82c0.553,0,1,0.447,1,1S29.452,36,28.899,36z"/>
<path fill="#744EAA" d="M21.284,29.819c0,1.535-1.244,2.779-2.779,2.779h-1.112c-1.535,0-2.779-1.244-2.779-2.779
	c0-0.19,0.019-0.376,0.056-0.556L18,28.151l3.228,1.108C21.265,29.44,21.284,29.627,21.284,29.819z"/>
<path fill="#CBB7EA" d="M21.227,29.263c-0.257-1.269-1.378-2.224-2.723-2.224h-1.112c-1.345,0-2.466,0.954-2.724,2.224
	C14.668,29.263,21.227,29.263,21.227,29.263z"/>
<path fill="#5C913B" d="M11.017,26.527c0,1.535-1.244,2.779-2.779,2.779H7.126c-1.535,0-2.779-1.244-2.779-2.779
	c0-0.19,0.019-0.376,0.056-0.556l3.278-1.112l3.28,1.108C10.998,26.148,11.017,26.335,11.017,26.527z"/>
<path fill="#C6E5B3" d="M10.96,25.971c-0.257-1.269-1.378-2.224-2.723-2.224H7.126c-1.345,0-2.466,0.954-2.724,2.224H10.96z"/>
<path fill="#3B94D9" d="M34.977,17.633c0,1.535-1.244,2.779-2.779,2.779h-1.112c-1.535,0-2.779-1.244-2.779-2.779
	c0-0.19,0.019-0.376,0.056-0.556l3.279-1.112l3.279,1.108C34.958,17.254,34.977,17.441,34.977,17.633z"/>
<path fill="#BBDDF5" d="M34.921,17.077c-0.257-1.269-1.378-2.224-2.723-2.224h-1.112c-1.344,0-2.466,0.954-2.723,2.224H34.921z"/>
<path fill="#5C913B" d="M31.644,7.887c0,1.535-1.244,2.779-2.779,2.779h-1.112c-1.535,0-2.779-1.244-2.779-2.779
	c0-0.19,0.019-0.376,0.056-0.556l3.333-1.112l3.225,1.108C31.625,7.508,31.644,7.695,31.644,7.887z"/>
<path fill="#C6E5B3" d="M31.588,7.331c-0.257-1.269-1.378-2.224-2.723-2.224h-1.112c-1.344,0-2.466,0.954-2.723,2.224
	C25.03,7.331,31.588,7.331,31.588,7.331z"/>
<path fill="#BE1931" d="M31.644,26.527c0,1.535-1.244,2.779-2.779,2.779h-1.112c-1.535,0-2.779-1.244-2.779-2.779
	c0-0.19,0.019-0.376,0.056-0.556l3.333-1.112l3.225,1.108C31.625,26.148,31.644,26.335,31.644,26.527z"/>
<path fill="#F4ABBA" d="M31.588,25.971c-0.257-1.269-1.378-2.224-2.723-2.224h-1.112c-1.344,0-2.466,0.954-2.723,2.224
	C25.03,25.971,31.588,25.971,31.588,25.971z"/>
<path fill="#BE1931" d="M11.017,7.887c0,1.535-1.244,2.779-2.779,2.779H7.126c-1.535,0-2.779-1.244-2.779-2.779
	c0-0.19,0.019-0.376,0.056-0.556l3.278-1.112l3.28,1.108C10.998,7.508,11.017,7.695,11.017,7.887z"/>
<path fill="#F4ABBA" d="M10.96,7.331c-0.257-1.269-1.378-2.224-2.723-2.224H7.126c-1.345,0-2.466,0.954-2.724,2.224H10.96z"/>
<path fill="#744EAA" d="M21.284,2.876c0,1.535-1.244,2.779-2.779,2.779h-1.112c-1.535,0-2.779-1.244-2.779-2.779
	c0-0.19,0.019-0.376,0.056-0.556l3.279-1.112l3.279,1.108C21.265,2.497,21.284,2.684,21.284,2.876z"/>
<path fill="#CBB7EA" d="M21.227,2.32c-0.257-1.269-1.378-2.224-2.723-2.224h-1.112c-1.345,0-2.466,0.954-2.724,2.224
	C14.668,2.32,21.227,2.32,21.227,2.32z"/>
<path fill="#3B94D9" d="M7.682,17.633c0,1.535-1.244,2.779-2.779,2.779H3.79c-1.535,0-2.779-1.244-2.779-2.779
	c0-0.19,0.019-0.376,0.056-0.556l3.28-1.23l3.279,1.225C7.663,17.254,7.682,17.441,7.682,17.633z"/>
<path fill="#BBDDF5" d="M7.625,17.077c-0.257-1.269-1.378-2.224-2.723-2.224H3.79c-1.345,0-2.466,0.954-2.724,2.224H7.625z"/>
<path fill="#553788" d="M14.952,15.847c0-1.68,1.362-3.041,3.041-3.041c1.68,0,3.042,1.362,3.042,3.041s-1.362,3.041-3.042,3.041
	C16.314,18.889,14.952,17.527,14.952,15.847z"/>
</svg>
