<?xml version="1.0" encoding="utf-8"?>
<!-- Generator: Adobe Illustrator 25.2.1, SVG Export Plug-In . SVG Version: 6.00 Build 0)  -->
<svg version="1.1" id="Layer_1" xmlns="http://www.w3.org/2000/svg" xmlns:xlink="http://www.w3.org/1999/xlink" x="0px" y="0px"
	 width="36px" height="36px" viewBox="0 0 36 36" enable-background="new 0 0 36 36" xml:space="preserve">
<path fill="#66757F" d="M18,0C9.716,0,3,6.716,3,15v3h3v-3C6,8,11.269,2.812,18,2.812C24.73,2.812,30,8,30,15v3h3v-3
	C33,6.716,26.284,0,18,0z"/>
<path fill="#31373D" d="M6,27c0,1.104-0.896,2-2,2H2c-1.104,0-2-0.896-2-2v-9c0-1.104,0.896-2,2-2h2c1.104,0,2,0.896,2,2V27z M36,27
	c0,1.104-0.896,2-2,2h-2c-1.104,0-2-0.896-2-2v-9c0-1.104,0.896-2,2-2h2c1.104,0,2,0.896,2,2V27z"/>
<path fill="#55ACEE" d="M19.182,10.016l-6.364,1.313C12.368,11.422,12,11.873,12,12.333v16.185c-0.638-0.227-1.341-0.36-2.087-0.36
	c-2.785,0-5.042,1.755-5.042,3.922c0,2.165,2.258,3.827,5.042,3.827C12.649,35.905,14.922,34,15,32V16.39l4.204-0.872
	C19.653,15.425,20,14.973,20,14.514v-3.832C20,10.224,19.632,9.923,19.182,10.016z M27.182,13.167l-4.297,0.865
	C22.435,14.125,22,14.576,22,15.035V26.44c0-0.152-0.878-0.24-1.4-0.24c-2.024,0-3.633,1.276-3.633,2.852
	c0,1.574,1.658,2.851,3.683,2.851s3.677-1.277,3.677-2.851l-0.014-11.286l2.869-0.598C27.632,17.075,28,16.624,28,16.165v-2.33
	C28,13.376,27.632,13.075,27.182,13.167z"/>
</svg>
