<?xml version="1.0" encoding="utf-8"?>
<!-- Generator: Adobe Illustrator 25.2.1, SVG Export Plug-In . SVG Version: 6.00 Build 0)  -->
<svg version="1.1" id="Layer_1" xmlns="http://www.w3.org/2000/svg" xmlns:xlink="http://www.w3.org/1999/xlink" x="0px" y="0px"
	 width="36px" height="36px" viewBox="0 0 36 36" enable-background="new 0 0 36 36" xml:space="preserve">
<path fill="#5DADEC" d="M14.182,0.168L7.818,1.469C7.368,1.561,7,2.012,7,2.471v15.857C6.387,18.12,5.712,18,5,18
	c-2.762,0-5,1.741-5,3.889c0,2.147,2.238,3.889,5,3.889c2.713,0,4.908-1.683,4.985-3.777H10V6.477l4.182-0.855
	C14.632,5.53,15,5.079,15,4.62V0.835C15,0.376,14.632,0.075,14.182,0.168z M35.182,4.168l-6.363,1.301
	C28.368,5.561,28,6.012,28,6.471v15.857C27.387,22.119,26.712,22,26,22c-2.762,0-5,1.741-5,3.889c0,2.147,2.238,3.889,5,3.889
	c2.713,0,4.908-1.683,4.985-3.777H31V10.477l4.182-0.855C35.632,9.53,36,9.079,36,8.62V4.835C36,4.376,35.632,4.075,35.182,4.168z
	 M23.182,10.167l-6.363,1.301C16.368,11.561,16,12.012,16,12.471v15.857C15.387,28.119,14.712,28,14,28c-2.762,0-5,1.741-5,3.889
	s2.238,3.889,5,3.889c2.713,0,4.908-1.683,4.985-3.777H19V16.477l4.182-0.855C23.632,15.53,24,15.079,24,14.62v-3.785
	C24,10.376,23.632,10.075,23.182,10.167z"/>
</svg>
