<?xml version="1.0" encoding="utf-8"?>
<!-- Generator: Adobe Illustrator 25.2.1, SVG Export Plug-In . SVG Version: 6.00 Build 0)  -->
<svg version="1.1" id="Layer_1" xmlns="http://www.w3.org/2000/svg" xmlns:xlink="http://www.w3.org/1999/xlink" x="0px" y="0px"
	 width="36px" height="36px" viewBox="0 0 36 36" enable-background="new 0 0 36 36" xml:space="preserve">
<path fill="#DD2E44" d="M23.106,5.971C17.615,0.48,8.384-0.521,3.307,4.557C-1.77,9.634-0.77,18.865,4.721,24.356
	c3.295,3.295,7.152,4.116,10.844,3.302l6.495-4.402l4.455-6.548C27.455,13.148,26.48,9.345,23.106,5.971z"/>
<path fill="#D99E82" d="M15.564,27.655c0.289-0.07,0.578-0.149,0.864-0.241l0.115-0.039c0.264-0.088,0.527-0.179,0.788-0.284
	c0.698-0.238,1.734-0.558,2.942-0.806c1.848-0.38,3.541,1.606,4.955,3.021c1.414,1.414,4.242,5.657,4.949,6.364
	c0.707,0.707,1.414,0,2.122-0.707l0.707-0.707l0.707-0.707c0.707-0.708,1.414-1.415,0.707-2.122
	c-0.707-0.707-4.95-3.535-6.364-4.949s-3.4-3.107-3.021-4.955c0.198-0.965,0.441-1.815,0.653-2.481
	c0.357-0.764,0.633-1.543,0.824-2.334L15.564,27.655z"/>
<path fill="#FFCC4D" d="M20.277,22.942l1.414-1.414l12.022,12.021l-1.414,1.414L20.277,22.942z"/>
<circle fill="#CCD6DD" cx="31.5" cy="6.5" r="3.5"/>
</svg>
