<?xml version="1.0" encoding="utf-8"?>
<!-- Generator: Adobe Illustrator 25.2.1, SVG Export Plug-In . SVG Version: 6.00 Build 0)  -->
<svg version="1.1" id="Layer_1" xmlns="http://www.w3.org/2000/svg" xmlns:xlink="http://www.w3.org/1999/xlink" x="0px" y="0px"
	 width="36px" height="36px" viewBox="0 0 36 36" enable-background="new 0 0 36 36" xml:space="preserve">
<path fill="#C1694F" d="M4,21c2.409,0,2,2,2,3s0,3,2,3s3.464-2.465,7-6l10.01-10.01l1.636,3.086l-1.636,4.636
	C22.216,21.663,19.564,24.436,18,26c-4.5,4.5-7,7-10,7c-3.513,0-7-2.605-7-7C1,22,3,21,4,21z"/>
<circle fill="#DD2E44" cx="26.5" cy="29.5" r="6.5"/>
<path fill="#FFAC33" d="M25.01,18.712C30.254,13.171,36,7,36,7V0L25.01,10.99V18.712z M22,21.878l1-1.049V13l-1,1V21.878z"/>
</svg>
