<?xml version="1.0" encoding="utf-8"?>
<!-- Generator: Adobe Illustrator 25.2.1, SVG Export Plug-In . SVG Version: 6.00 Build 0)  -->
<svg version="1.1" id="Layer_1" xmlns="http://www.w3.org/2000/svg" xmlns:xlink="http://www.w3.org/1999/xlink" x="0px" y="0px"
	 width="36px" height="36px" viewBox="0 0 36 36" enable-background="new 0 0 36 36" xml:space="preserve">
<path fill="#3E721D" d="M10.321,24.79l-1.723-1.617c-0.982-0.123-1.939,0.109-2.581,0.577c-1.097,0.8-1.353,2.323-0.479,1.521
	c1.542-1.416,2.083-0.375,0.917,0.375s-1.375,2.145-0.083,1.188c1.292-0.958,1.646-0.334,0.646,0.895
	c-0.605,0.744,0.042,1.438,1.167-0.062c0.231-0.308,0.541-0.542,0.871-0.657L10.321,24.79z M15.75,4.729H9.333
	c0,0,0.583-3.5,2.333-4.667c0.686-0.458,1.167,1.75,1.75,1.75s1.167-1.75,2.917-1.75c0.583,0,0.583,1.75,1.167,1.75
	c0.583,0,2.243-0.577,2.333,0c0.126,0.812-0.167,1.729,0.292,2.104s1.553-0.148,1.901,0.489c0.349,0.636-0.61,1.553-0.526,1.97
	s0.719,0.583,0.526,1.375s-0.65,0.833-0.692,1.417s0.885,1.081,0.692,1.686c-0.192,0.606-0.651,0.688-0.859,1.459
	c-0.208,0.771,0.541,0.649,0.333,1.439s-0.958,0.991-1.208,1.766c-0.25,0.774,0.666,0.941,0.208,1.691s-1.291,0.875-1.333,1.333
	s0.209,0.818,0.042,1.555c-0.167,0.736-1.126,0.362-1.209,0.945s0.209,0.875,0.209,1.583s-0.709,0.834-0.625,1.542
	s0.75,0.167,1.167,1s-0.249,1.583,0.209,2.083s1.083-0.667,1.708-0.25s0.677,1.25,1.359,1.375s0.891-1.292,1.391-1.25
	s1.625,0.709,2.208,0.417s0.541-1.459,1-1.959s1.042-0.041,1.458-0.583s-0.145-1.175-0.062-1.967s0.854-1.241,0.812-1.866
	s-0.667-0.625-0.917-1.292s0.458-1.25,0.208-1.875s-1.332-0.833-1.291-1.458s0.459-1.333,0.25-2.042S26,13.333,26.042,12.792
	s0.499-1.25,0.583-1.646s-0.749-0.812-0.666-1.479s0.624-0.621,0.832-1.223s-0.749-0.901-0.249-1.672s0.751-0.27,1.167-0.688
	c0.416-0.417-0.001-1.334,0.416-1.542s1.25-0.042,1.667-0.333s0.417-0.708,0.875-0.875s1.042,0.542,1.417,0.542
	s1.041-0.708,1.541-0.542c0.5,0.167,1.584,1.333,0.917,1.688l-4.355,2.202v22.564H15.75V4.729z"/>
<path fill="#77B255" d="M35,5.107c0-1-8-3-8,6c0,5,3.358,7.979,2,13c-0.489,1.809-2,5-7,5s-5.333-5.788-4-9
	c1.232-2.969,2.946-6.795,2.946-11.17c0,0-0.005,0.002-0.006,0.002C20.976,8.592,21,8.244,21,7.897c0-2.462-1.75-5.541-5.833-5.54
	c-4.083,0-10.528,6.113-12.25,6.156C1.75,7.326,0,8.547,0,9.744c0,1.846,3.276,2.811,3.443,2.987
	c0.663,0.701,2.39,4.929,5.307,1.186c0.452-0.58,0.742-0.309,1.829,0.197c3.37,1.96,0.826,6.185-0.579,8.993C8,27.107,8,36,22,36
	s13.934-14.267,10-21.893S35,6.107,35,5.107z"/>
<path fill="#292F33" d="M14.583,7.062c0,0.644-0.523,1.167-1.167,1.167s-1.167-0.523-1.167-1.167s0.523-1.167,1.167-1.167
	C14.061,5.896,14.583,6.418,14.583,7.062z"/>
<path fill="#FFFFFF" d="M11.083,11.144c0,0.645-0.392,0.583-0.875,0.583s-0.875,0.061-0.875-0.583s0.392-2.333,0.875-2.333
	S11.083,10.5,11.083,11.144z M8.75,11.727c0,0.645-0.392,0.583-0.875,0.583C7.392,12.311,7,12.372,7,11.727
	c0-0.644,0.392-2.333,0.875-2.333S8.75,11.083,8.75,11.727z"/>
<path fill="#3E721D" d="M11.001,11.152c-3.095,0.442-6.215,1.224-7.558,1.579c0.167,0.177,0.403,0.579,0.709,1.021
	c1.472-0.38,4.253-1.051,7.015-1.444c0.319-0.046,0.54-0.342,0.495-0.661C11.615,11.327,11.318,11.105,11.001,11.152z"/>
<path fill="#3E721D" d="M2.917,10.271c0,0.483-0.392,0.292-0.875,0.292s-0.875,0.191-0.875-0.292s0.392-0.875,0.875-0.875
	S2.917,9.788,2.917,10.271z"/>
<path fill="#3E721D" d="M11.335,7.771c-0.256,0-0.512-0.098-0.707-0.293c-0.391-0.391-0.391-1.023,0-1.414
	c0.083-0.083,2.081-2.043,5.374-2.043c0.552,0,1,0.448,1,1s-0.448,1-1,1c-2.435,0-3.945,1.442-3.96,1.457
	C11.847,7.673,11.591,7.771,11.335,7.771z"/>
<path fill="#5C913B" d="M10.708,25.333c0.627-6.708-5.417-7.542-7.417-6.083c-1.097,0.8-1.353,2.323-0.479,1.521
	c1.542-1.416,2.083-0.375,0.917,0.375c-1.167,0.75-1.375,2.146-0.083,1.188S5.292,22,4.292,23.229
	c-0.605,0.744,0.042,1.438,1.167-0.062c0.938-1.251,4.2-1.294,3.662,2.99C8.899,27.913,10.575,26.765,10.708,25.333z"/>
</svg>
