<?xml version="1.0" encoding="utf-8"?>
<!-- Generator: Adobe Illustrator 25.2.1, SVG Export Plug-In . SVG Version: 6.00 Build 0)  -->
<svg version="1.1" id="Layer_1" xmlns="http://www.w3.org/2000/svg" xmlns:xlink="http://www.w3.org/1999/xlink" x="0px" y="0px"
	 width="36px" height="36px" viewBox="0 0 36 36" enable-background="new 0 0 36 36" xml:space="preserve">
<path fill="#3E721D" d="M35.125,13.344c0-1,0.771-2.327,0.771-2.635c0-0.656-1.553-0.421-1.626-1.046
	c-0.209-1.794,1.887-3.318-1.745-3.312c-1.352,0.002-0.274-1.768-0.274-2.725s-2.596-0.145-3.552-0.145
	c-0.957,0-0.957-2.87-1.913-2.87c-2.87,0-3.827,2.87-4.783,2.87c-0.957,0-1.744-3.621-2.87-2.87
	c-2.87,1.913-3.826,7.674-3.826,7.674h10.331L25.566,36h2.402c0.344-1.5,1.939-0.529,2.375-1.688
	c0.381-1.016-0.67-1.966-0.094-2.969s0.978-0.755,2.094-1.375c1.184-0.657,0-2.199,0-3.156c0-0.956,2.312-1.574,2.312-2.531
	c0-0.63-1.068-1.292-0.812-2.356c0.257-1.064,1.586-1.186,1.749-2.184c0.138-0.847-0.921-1.455-0.796-2.393s1.174-1.378,1.174-2.097
	C35.972,14.533,35.125,14.25,35.125,13.344z"/>
<path fill="#77B255" d="M34.438,13.458c0-4.038-2.87-9.085-9.566-9.085c-6.695,0-17.265,10.024-20.088,10.096
	C2.87,12.521,0,14.523,0,16.486c0,3.028,5.373,4.61,5.646,4.899c1.088,1.149,3.92,8.083,8.704,1.945
	c0.803-1.03,1.302-0.422,3.483,0.542C25.069,27.729,16,36,16,36h9.566c4.782-4.783,8.871-13.844,8.871-21.997l-0.021,0.008
	C34.423,13.826,34.438,13.642,34.438,13.458z"/>
<path fill="#292F33" d="M23.915,12.09c0,1.056-0.856,1.913-1.913,1.913s-1.913-0.857-1.913-1.913c0-1.057,0.856-1.913,1.913-1.913
	C23.059,10.176,23.915,11.033,23.915,12.09z"/>
<path fill="#FFFFFF" d="M18.176,18.782c0,1.058-0.643,0.956-1.436,0.956c-0.792,0-1.434,0.101-1.434-0.956
	c0-1.056,0.642-3.826,1.434-3.826C17.533,14.956,18.176,17.727,18.176,18.782z M14.349,19.738c0,1.058-0.643,0.957-1.435,0.957
	s-1.435,0.101-1.435-0.957c0-1.056,0.643-3.826,1.435-3.826C13.706,15.913,14.349,18.683,14.349,19.738z"/>
<path fill="#3E721D" d="M4.783,17.351c0,0.793-0.643,0.479-1.435,0.479s-1.435,0.315-1.435-0.479c0-0.792,0.643-1.435,1.435-1.435
	C4.141,15.916,4.783,16.559,4.783,17.351z"/>
<path fill="#3E721D" d="M18.04,18.795c-5.076,0.726-10.192,2.007-12.394,2.59c0.275,0.29,0.661,0.95,1.162,1.674
	c2.415-0.624,6.975-1.724,11.503-2.369c0.524-0.074,0.887-0.561,0.812-1.083C19.048,19.083,18.56,18.719,18.04,18.795z
	 M18.589,12.609c-0.258,0-0.515-0.098-0.709-0.295c-0.388-0.391-0.388-1.021,0.001-1.41c0.129-0.129,3.222-3.163,8.36-3.163
	c0.553,0,1,0.448,1,1s-0.447,1-1,1c-4.281,0-6.923,2.554-6.949,2.58C19.098,12.513,18.843,12.609,18.589,12.609z"/>
</svg>
