<?xml version="1.0" encoding="utf-8"?>
<!-- Generator: Adobe Illustrator 25.2.1, SVG Export Plug-In . SVG Version: 6.00 Build 0)  -->
<svg version="1.1" id="Layer_1" xmlns="http://www.w3.org/2000/svg" xmlns:xlink="http://www.w3.org/1999/xlink" x="0px" y="0px"
	 width="36px" height="36px" viewBox="0 0 36 36" enable-background="new 0 0 36 36" xml:space="preserve">
<path fill="#C6E5B3" d="M36,22c0,7.456-8.059,12-18,12S0,29.456,0,22H36z"/>
<path fill="#77B255" d="M31.755,12.676C33.123,11.576,34,9.891,34,8c0-3.313-2.687-6-6-6c-2.861,0-5.25,2.004-5.851,4.685
	C20.861,6.202,19.466,5.927,18,5.927c-1.465,0-2.861,0.275-4.149,0.758C13.25,4.004,10.861,2,8,2C4.687,2,2,4.687,2,8
	c0,1.891,0.877,3.576,2.245,4.676C1.6,15.356,0,18.685,0,22c0,7.456,8.059,1,18,1s18,6.456,18-1
	C36,18.685,34.4,15.356,31.755,12.676z"/>
<circle fill="#FFFFFF" cx="7.5" cy="7.5" r="3.5"/>
<circle fill="#FFFFFF" cx="28.5" cy="7.5" r="3.5"/>
<circle fill="#292F33" cx="7.5" cy="7.5" r="1.5"/>
<circle fill="#292F33" cx="28.5" cy="7.5" r="1.5"/>
<circle fill="#5C913B" cx="14" cy="20" r="1"/>
<circle fill="#5C913B" cx="22" cy="20" r="1"/>
</svg>
