<?xml version="1.0" encoding="utf-8"?>
<!-- Generator: Adobe Illustrator 25.2.1, SVG Export Plug-In . SVG Version: 6.00 Build 0)  -->
<svg version="1.1" id="Layer_1" xmlns="http://www.w3.org/2000/svg" xmlns:xlink="http://www.w3.org/1999/xlink" x="0px" y="0px"
	 width="36px" height="36px" viewBox="0 0 36 36" enable-background="new 0 0 36 36" xml:space="preserve">
<path fill="#CCD6DD" d="M28.311,6.437c2.616-2.38,6.974-6.264,7.245-5.993c0.273,0.273-3.614,4.631-5.994,7.247L28.311,6.437z"/>
<path fill="#ADD3E0" d="M28.839,11.404l-4.242-4.243C25.182,6.575,28.414,5.414,29,6l1,1C30.586,7.585,29.425,10.818,28.839,11.404z
	"/>
<path fill="#C1E1EA" d="M17.464,25.606l-4.356-2.663l-2.715-4.408l12.021-12.02c0.781-0.781,2.048-0.781,2.828,0l4.243,4.243
	c0.781,0.781,0.781,2.047,0,2.829L17.464,25.606z"/>
<path fill="#D2ECF3" d="M10.394,21.364c-0.781-0.781-0.781-2.048,0-2.829l12.02-12.02c0.781-0.781,2.048-0.781,2.828,0
	L10.394,21.364z"/>
<path fill="#CCD6DD" d="M7.272,32.971L3.03,28.728l11.777-11.777l4.243,4.241L7.272,32.971z"/>
<path fill="#99AAB5" d="M7.747,35.324c-0.585,0.586-1.536,0.586-2.122,0l-4.95-4.95c-0.586-0.586-0.585-1.535,0-2.121
	s1.536-0.586,2.122,0l4.95,4.95C8.333,33.788,8.333,34.738,7.747,35.324z M17.818,28.081c-0.585,0.586-1.536,0.586-2.121,0
	l-7.778-7.777c-0.586-0.586-0.585-1.536,0-2.122s1.536-0.586,2.122,0l7.778,7.778C18.404,26.546,18.404,27.496,17.818,28.081z"/>
<path fill="#292F33" d="M14.322,14.607l-1.042,1.042l0.04,0.04l7.035,7.035l1.042-1.042L14.322,14.607z"/>
<path fill="#66757F" d="M14.322,14.607l-1.042,1.042l0.04,0.04l1.374,1.374l1.042-1.042L14.322,14.607z M22.613,17.94
	c-0.288,0.288-0.288,0.754,0,1.042l0.742,0.742l1.042-1.042l-0.742-0.742C23.367,17.652,22.901,17.652,22.613,17.94z M24.488,16.065
	c-0.288,0.288-0.288,0.754,0,1.042l0.742,0.742l1.042-1.042l-0.742-0.742C25.242,15.777,24.776,15.777,24.488,16.065z M27.405,14.19
	c-0.288-0.288-0.755-0.288-1.042,0c-0.288,0.288-0.288,0.754,0,1.042l0.742,0.742l1.042-1.042L27.405,14.19z"/>
</svg>
