<?xml version="1.0" encoding="utf-8"?>
<!-- Generator: Adobe Illustrator 25.2.1, SVG Export Plug-In . SVG Version: 6.00 Build 0)  -->
<svg version="1.1" id="Layer_1" xmlns="http://www.w3.org/2000/svg" xmlns:xlink="http://www.w3.org/1999/xlink" x="0px" y="0px"
	 width="36px" height="36px" viewBox="0 0 36 36" enable-background="new 0 0 36 36" xml:space="preserve">
<path fill="#3B88C3" d="M36,32c0,2.209-1.791,4-4,4H4c-2.209,0-4-1.791-4-4V4c0-2.209,1.791-4,4-4h28c2.209,0,4,1.791,4,4V32z"/>
<path fill="#FFFFFF" d="M30.174,14.023l-3.301,2.75C26.956,17.169,27,17.579,27,18c0,3.313-2.687,6-6,6h-1.059
	C19.978,24.329,20,24.662,20,25c0,1.054-0.19,2.06-0.523,3H21c5.522,0,10-4.478,10-10C31,16.586,30.703,15.242,30.174,14.023z
	 M30.2,10L23,4v4h-8C9.477,8,5,12.477,5,18c0,0.099,0.012,0.194,0.015,0.292c1.186-1.059,2.649-1.812,4.273-2.125
	C10.062,13.75,12.326,12,15,12h8v4L30.2,10z"/>
<path fill="#FFFFFF" d="M11,19c-3.314,0-6,2.686-6,6s2.686,6,6,6s6-2.686,6-6S14.314,19,11,19z M12,28.065
	c0,0.6-0.384,0.935-0.899,0.935s-0.899-0.336-0.899-0.935v-4.949h-0.001H9.493c-0.576,0-0.815-0.42-0.815-0.828
	c0-0.419,0.3-0.827,0.815-0.827h1.703c0.516,0,0.804,0.371,0.804,0.852V28.065z"/>
</svg>
