<?xml version="1.0" encoding="utf-8"?>
<!-- Generator: Adobe Illustrator 25.2.1, SVG Export Plug-In . SVG Version: 6.00 Build 0)  -->
<svg version="1.1" id="Layer_1" xmlns="http://www.w3.org/2000/svg" xmlns:xlink="http://www.w3.org/1999/xlink" x="0px" y="0px"
	 width="36px" height="36px" viewBox="0 0 36 36" enable-background="new 0 0 36 36" xml:space="preserve">
<path fill="#3B88C3" d="M36,32c0,2.209-1.791,4-4,4H4c-2.209,0-4-1.791-4-4V4c0-2.209,1.791-4,4-4h28c2.209,0,4,1.791,4,4V32z"/>
<path fill="#FFFFFF" d="M10,13H7V9h3c2.351,0,3.95,1.064,5.128,2.575c-0.941,1.281-1.626,2.748-2.175,4.142
	C12.119,13.896,11.307,13,10,13z M22,13h1v4l7.2-6L23,5v4h-1c-4.91,0-6.559,4.617-7.883,8.327C12.739,21.184,11.884,23,10,23H7v4h3
	c4.91,0,6.559-4.617,7.883-8.327C19.261,14.817,20.115,13,22,13z M23,23h-1c-1.082,0-1.822-0.62-2.52-1.859
	c-0.478,1.314-1.059,2.777-1.852,4.132C18.718,26.318,20.117,27,22,27h1v4l7.2-6L23,19V23z"/>
</svg>
