<?xml version="1.0" encoding="utf-8"?>
<!-- Generator: Adobe Illustrator 25.2.1, SVG Export Plug-In . SVG Version: 6.00 Build 0)  -->
<svg version="1.1" id="Layer_1" xmlns="http://www.w3.org/2000/svg" xmlns:xlink="http://www.w3.org/1999/xlink" x="0px" y="0px"
	 width="36px" height="36px" viewBox="0 0 36 36" enable-background="new 0 0 36 36" xml:space="preserve">
<path fill="#8899A6" d="M7,10c0,0-2,0-2,2v12c0,2,2,2,2,2h6l2-8.028L13,10H7z"/>
<path fill="#8899A6" d="M28.709,25.959c-0.289,0-0.576-0.124-0.774-0.365c-0.351-0.427-0.289-1.057,0.138-1.407
	C29.934,22.658,31,20.403,31,18c0-2.435-1.089-4.708-2.988-6.236c-0.431-0.346-0.498-0.976-0.152-1.406
	c0.348-0.429,0.976-0.499,1.406-0.152C31.639,12.116,33,14.957,33,18c0,3.004-1.333,5.822-3.657,7.731
	C29.157,25.885,28.932,25.959,28.709,25.959z"/>
<path fill="#CCD6DD" d="M13,26l8,8c0,0,1,1,2,1h1c0,0,1,0,1-1V2c0,0,0-1-1-1h-1c-1,0-2,1-2,1l-8,8V26z"/>
</svg>
