<?xml version="1.0" encoding="utf-8"?>
<!-- Generator: Adobe Illustrator 25.2.1, SVG Export Plug-In . SVG Version: 6.00 Build 0)  -->
<svg version="1.1" id="Layer_1" xmlns="http://www.w3.org/2000/svg" xmlns:xlink="http://www.w3.org/1999/xlink" x="0px" y="0px"
	 width="36px" height="36px" viewBox="0 0 36 36" enable-background="new 0 0 36 36" xml:space="preserve">
<path fill="#8899A6" d="M9,10c0,0-2,0-2,2v12c0,2,2,2,2,2h6l2-8l-2-8H9z"/>
<path fill="#CCD6DD" d="M15,26l8,8c0,0,1,1,2,1h1c0,0,1,0,1-1V2c0,0,0-1-1-1h-1c-1,0-2,1-2,1l-8,8V26z"/>
<path fill="#DD2E44" d="M31.003,33.003L3.997,5.997c-0.551-0.551-0.551-1.443,0-1.994l0.006-0.006c0.551-0.551,1.443-0.551,1.994,0
	l27.006,27.006c0.551,0.551,0.551,1.443,0,1.994l-0.006,0.006C32.446,33.554,31.554,33.554,31.003,33.003z"/>
</svg>
