<?xml version="1.0" encoding="utf-8"?>
<!-- Generator: Adobe Illustrator 25.2.1, SVG Export Plug-In . SVG Version: 6.00 Build 0)  -->
<svg version="1.1" id="Layer_1" xmlns="http://www.w3.org/2000/svg" xmlns:xlink="http://www.w3.org/1999/xlink" x="0px" y="0px"
	 width="36px" height="36px" viewBox="0 0 36 36" enable-background="new 0 0 36 36" xml:space="preserve">
<path fill="#FFCC4D" d="M35.734,19.929C35.375,16.66,35,15,34,13c0,0,3-9,1-12.7C34.326-0.946,27.596,1.988,25,4
	c0,0-4-0.998-7-0.998S11,4,11,4C8.404,1.988,1.674-0.946,1,0.3C-1,4,2,13,2,13c-1,2-1.375,3.66-1.734,6.929
	C-0.129,23.513,0.657,26.37,1,27c0.39,0.716,2.367,3.025,5,5c4,3,10,4,12,4s8-1,12-4c2.633-1.975,4.61-4.284,5-5
	C35.343,26.37,36.129,23.513,35.734,19.929z"/>
<path fill="#E75A70" d="M18,19.5c3,0,3,0.5,3,1.5s-1.5,3-3,3s-3-2-3-3S14.999,19.5,18,19.5z"/>
<path fill="#F18F26" d="M5.286,7.724C4.3,8.704,3.383,9.851,3,11c0,0-2-5-1-8c0.447-1.342,5.64,1,6.64,2
	c0,0-0.444,0.287-1.085,0.771C6.25,5.207,4.934,4.944,4.934,5.603C4.934,5.957,5.069,6.812,5.286,7.724z M34,3
	c-0.447-1.342-5.64,1-6.64,2c0,0,0.444,0.287,1.085,0.771c1.305-0.565,2.621-0.827,2.621-0.168c0,0.354-0.135,1.209-0.352,2.121
	C31.7,8.704,32.617,9.851,33,11C33,11,35,6,34,3z"/>
<path fill="#FEE7B8" d="M0.701,25c-0.148,0-0.294-0.065-0.393-0.19c-0.171-0.217-0.134-0.531,0.083-0.702
	c0.162-0.127,4.02-3.12,10.648-2.605c0.275,0.02,0.481,0.261,0.46,0.536s-0.257,0.501-0.537,0.46
	c-6.233-0.474-9.915,2.366-9.951,2.395C0.918,24.965,0.809,25,0.701,25z M9.569,20.337c-0.049,0-0.1-0.007-0.149-0.022
	c-4.79-1.497-8.737-0.347-8.777-0.336C0.378,20.06,0.1,19.909,0.02,19.644c-0.079-0.265,0.071-0.543,0.335-0.622
	c0.173-0.052,4.286-1.247,9.362,0.338c0.264,0.083,0.411,0.363,0.328,0.627C9.979,20.2,9.782,20.337,9.569,20.337z M35.299,25
	c0.148,0,0.294-0.065,0.393-0.19c0.171-0.217,0.134-0.531-0.083-0.702c-0.162-0.127-4.02-3.12-10.648-2.605
	c-0.275,0.02-0.481,0.261-0.46,0.536c0.021,0.275,0.257,0.501,0.537,0.46c6.233-0.474,9.915,2.366,9.951,2.395
	C35.082,24.965,35.191,25,35.299,25z M26.431,20.337c0.049,0,0.1-0.007,0.149-0.022c4.79-1.497,8.737-0.347,8.777-0.336
	c0.265,0.081,0.543-0.07,0.623-0.335c0.079-0.265-0.071-0.543-0.335-0.622c-0.173-0.052-4.286-1.247-9.362,0.338
	c-0.264,0.083-0.411,0.363-0.328,0.627C26.02,20.2,26.218,20.337,26.431,20.337z"/>
<path fill="#292F33" d="M25.327,25.622c-0.152-0.132-0.369-0.159-0.551-0.069l-4,2C18.905,28.488,14.049,28.5,14,28.5
	c-0.276,0-0.5,0.224-0.5,0.5c0,0.185,0.101,0.347,0.25,0.433v0.001h0.001v0.001c0.071,0.04,0.153,0.063,0.24,0.065h7.008
	c2.658,0,4.089-2.186,4.475-3.342C25.538,25.966,25.48,25.755,25.327,25.622z"/>
<path fill="#292F33" d="M12,11c1.105,0,2,1.567,2,3.5S13.105,18,12,18s-2-1.567-2-3.5S10.895,11,12,11z M24,11
	c1.105,0,2,1.567,2,3.5S25.105,18,24,18s-2-1.567-2-3.5S22.895,11,24,11z M21,12c-0.256,0-0.512-0.098-0.707-0.293
	c-0.391-0.391-0.391-1.023,0-1.414C24.537,6.049,28.819,6,29,6c0.553,0,1,0.448,1,1c0,0.551-0.445,0.998-0.995,1
	c-0.065,0.001-3.687,0.096-7.298,3.707C21.512,11.902,21.256,12,21,12z M15,12c-0.256,0-0.512-0.098-0.707-0.293
	C10.667,8.082,7.031,8,6.995,8C6.444,7.994,6,7.545,6.003,6.995C6.006,6.444,6.45,6,7,6c0.18,0,4.463,0.049,8.707,4.293
	c0.391,0.391,0.391,1.023,0,1.414C15.512,11.902,15.256,12,15,12z"/>
</svg>
