<?xml version="1.0" encoding="utf-8"?>
<!-- Generator: Adobe Illustrator 25.2.1, SVG Export Plug-In . SVG Version: 6.00 Build 0)  -->
<svg version="1.1" id="Layer_1" xmlns="http://www.w3.org/2000/svg" xmlns:xlink="http://www.w3.org/1999/xlink" x="0px" y="0px"
	 width="36px" height="36px" viewBox="0 0 36 36" enable-background="new 0 0 36 36" xml:space="preserve">
<path fill="#FFCC4D" d="M35.734,19.929C35.375,16.66,35,15,34,13c0,0,3-9,1-12.7C34.326-0.946,27.596,1.988,25,4
	c0,0-4-0.998-7-0.998S11,4,11,4C8.404,1.988,1.674-0.946,1,0.3C-1,4,2,13,2,13c-1,2-1.375,3.66-1.734,6.929
	C-0.129,23.513,0.657,26.37,1,27c0.39,0.716,2.367,3.025,5,5c4,3,10,4,12,4s8-1,12-4c2.633-1.975,4.61-4.284,5-5
	C35.343,26.37,36.129,23.513,35.734,19.929z"/>
<path fill="#E75A70" d="M18,19.5c3,0,3,0.5,3,1.5s-1.5,3-3,3s-3-2-3-3S14.999,19.5,18,19.5z"/>
<path fill="#F18F26" d="M5.286,7.724C4.3,8.704,3.383,9.851,3,11c0,0-2-5-1-8c0.447-1.342,5.64,1,6.64,2
	c0,0-0.444,0.287-1.085,0.771C6.25,5.207,4.934,4.944,4.934,5.603C4.934,5.957,5.069,6.812,5.286,7.724z M34,3
	c-0.447-1.342-5.64,1-6.64,2c0,0,0.444,0.287,1.085,0.771c1.305-0.565,2.621-0.827,2.621-0.168c0,0.354-0.135,1.209-0.352,2.121
	C31.7,8.704,32.617,9.851,33,11C33,11,35,6,34,3z"/>
<path fill="#FEE7B8" d="M0.701,25c-0.148,0-0.294-0.065-0.393-0.19c-0.171-0.217-0.134-0.531,0.083-0.702
	c0.162-0.127,4.02-3.12,10.648-2.605c0.275,0.02,0.481,0.261,0.46,0.536s-0.257,0.501-0.537,0.46
	c-6.233-0.474-9.915,2.366-9.951,2.395C0.918,24.965,0.809,25,0.701,25z M9.569,20.337c-0.049,0-0.1-0.007-0.149-0.022
	c-4.79-1.497-8.737-0.347-8.777-0.336C0.378,20.06,0.1,19.909,0.02,19.644c-0.079-0.265,0.071-0.543,0.335-0.622
	c0.173-0.052,4.286-1.247,9.362,0.338c0.264,0.083,0.411,0.363,0.328,0.627C9.979,20.2,9.782,20.337,9.569,20.337z M35.299,25
	c0.148,0,0.294-0.065,0.393-0.19c0.171-0.217,0.134-0.531-0.083-0.702c-0.162-0.127-4.02-3.12-10.648-2.605
	c-0.275,0.02-0.481,0.261-0.46,0.536c0.021,0.275,0.257,0.501,0.537,0.46c6.233-0.474,9.915,2.366,9.951,2.395
	C35.082,24.965,35.191,25,35.299,25z M26.431,20.337c0.049,0,0.1-0.007,0.149-0.022c4.79-1.497,8.737-0.347,8.777-0.336
	c0.265,0.081,0.543-0.07,0.623-0.335c0.079-0.265-0.071-0.543-0.335-0.622c-0.173-0.052-4.286-1.247-9.362,0.338
	c-0.264,0.083-0.411,0.363-0.328,0.627C26.02,20.2,26.218,20.337,26.431,20.337z"/>
<path fill="#292F33" d="M21.871,30c1.335-0.412,2.629-1.156,2.629-2.5c0-2.619-4.912-2.968-5.473-2.999
	c-0.277-0.035-0.51,0.194-0.526,0.468c-0.017,0.274,0.19,0.511,0.464,0.53C19,25.501,22.5,25.798,22.5,27.5s-3.5,1.999-3.535,2.001
	c-0.01,0.001-0.017,0.006-0.027,0.008c-0.123,0.008-0.229,0.064-0.308,0.157c-0.006,0.007-0.011,0.016-0.017,0.022
	c-0.028,0.039-0.054,0.078-0.072,0.124c-0.011,0.027-0.016,0.057-0.021,0.086c-0.005,0.023-0.017,0.046-0.019,0.07
	C18.5,29.979,18.505,29.989,18.505,30s-0.005,0.021-0.004,0.031c0.002,0.025,0.013,0.046,0.019,0.07
	c0.006,0.029,0.011,0.059,0.022,0.087c0.013,0.032,0.032,0.06,0.051,0.088c0.017,0.023,0.03,0.047,0.05,0.067
	c0.023,0.024,0.052,0.043,0.081,0.062c0.024,0.017,0.045,0.033,0.071,0.046c0.031,0.015,0.065,0.021,0.101,0.027
	c0.023,0.006,0.044,0.018,0.069,0.02C19,30.501,22.5,30.798,22.5,32.5s-3.5,1.999-3.535,2.001c-0.273,0.02-0.481,0.257-0.464,0.53
	C18.518,35.296,18.737,35.5,19,35.5l0.027-0.001c0.561-0.031,5.473-0.38,5.473-2.999C24.5,31.156,23.206,30.412,21.871,30z
	 M28.416,17.723C28.355,17.632,26.901,15.5,24,15.5c-2.9,0-4.355,2.132-4.416,2.223c-0.135,0.202-0.104,0.47,0.071,0.638
	c0.174,0.167,0.446,0.185,0.643,0.042C20.31,18.393,21.56,17.5,24,17.5c2.426,0,3.674,0.881,3.702,0.901
	C27.791,18.467,27.896,18.5,28,18.5c0.124,0,0.248-0.046,0.344-0.137C28.521,18.196,28.551,17.925,28.416,17.723z M16.416,17.723
	C16.355,17.632,14.901,15.5,12,15.5c-2.9,0-4.355,2.132-4.416,2.223c-0.134,0.202-0.104,0.47,0.071,0.638
	c0.175,0.167,0.447,0.185,0.642,0.042C8.31,18.393,9.559,17.5,12,17.5c2.426,0,3.674,0.881,3.702,0.901
	C15.791,18.467,15.896,18.5,16,18.5c0.124,0,0.248-0.046,0.344-0.137C16.521,18.196,16.551,17.925,16.416,17.723z M31.001,16
	c-0.305,0-0.604-0.138-0.801-0.4c-2.641-3.521-6.061-3.599-6.206-3.6c-0.55-0.006-0.994-0.456-0.991-1.005
	C23.006,10.444,23.45,10,24,10c0.184,0,4.537,0.05,7.8,4.4c0.332,0.442,0.242,1.069-0.2,1.4C31.42,15.935,31.21,16,31.001,16z
	 M4.999,16C4.791,16,4.58,15.935,4.4,15.8c-0.442-0.331-0.531-0.958-0.2-1.4C7.462,10.05,11.816,10,12,10c0.552,0,1,0.448,1,1
	c0,0.551-0.445,0.998-0.996,1c-0.156,0.002-3.569,0.086-6.205,3.6C5.604,15.862,5.303,16,4.999,16z"/>
</svg>
