<?xml version="1.0" encoding="utf-8"?>
<!-- Generator: Adobe Illustrator 25.2.1, SVG Export Plug-In . SVG Version: 6.00 Build 0)  -->
<svg version="1.1" id="Layer_1" xmlns="http://www.w3.org/2000/svg" xmlns:xlink="http://www.w3.org/1999/xlink" x="0px" y="0px"
	 width="36px" height="36px" viewBox="0 0 36 36" enable-background="new 0 0 36 36" xml:space="preserve">
<path fill="#FFCC4D" d="M35.734,19.929C35.375,16.66,35,15,34,13c0,0,3-9,1-12.7C34.326-0.946,27.596,1.988,25,4
	c0,0-4-0.998-7-0.998S11,4,11,4C8.404,1.988,1.674-0.946,1,0.3C-1,4,2,13,2,13c-1,2-1.375,3.66-1.734,6.929
	C-0.129,23.513,0.657,26.37,1,27c0.39,0.716,2.367,3.025,5,5c4,3,10,4,12,4s8-1,12-4c2.633-1.975,4.61-4.284,5-5
	C35.343,26.37,36.129,23.513,35.734,19.929z"/>
<path fill="#E75A70" d="M18,19.5c3,0,3,0.5,3,1.5s-1.5,3-3,3s-3-2-3-3S14.999,19.5,18,19.5z"/>
<path fill="#F18F26" d="M33,11c-0.383-1.149-1.3-2.296-2.286-3.276c0.217-0.912,0.352-1.767,0.352-2.121
	c0-0.659-1.316-0.397-2.621,0.168C27.804,5.287,27.36,5,27.36,5c1-1,6.193-3.342,6.64-2C35,6,33,11,33,11z M4.934,5.603
	c0-0.659,1.316-0.396,2.621,0.168C8.196,5.287,8.64,5,8.64,5C7.64,4,2.447,1.658,2,3c-1,3,1,8,1,8
	c0.383-1.149,1.3-2.296,2.286-3.276C5.069,6.812,4.934,5.957,4.934,5.603z"/>
<path fill="#FEE7B8" d="M0.701,25c-0.148,0-0.294-0.065-0.393-0.19c-0.171-0.217-0.134-0.531,0.083-0.702
	c0.162-0.127,4.02-3.12,10.648-2.605c0.275,0.02,0.481,0.261,0.46,0.536s-0.257,0.501-0.537,0.46
	c-6.233-0.474-9.915,2.366-9.951,2.395C0.918,24.965,0.809,25,0.701,25z M9.569,20.337c-0.049,0-0.1-0.007-0.149-0.022
	c-4.79-1.497-8.737-0.347-8.777-0.336C0.378,20.06,0.1,19.909,0.02,19.644c-0.079-0.265,0.071-0.543,0.335-0.622
	c0.173-0.052,4.286-1.247,9.362,0.338c0.264,0.083,0.411,0.363,0.328,0.627C9.979,20.2,9.782,20.337,9.569,20.337z M35.299,25
	c0.148,0,0.294-0.065,0.393-0.19c0.171-0.217,0.134-0.531-0.083-0.702c-0.162-0.127-4.02-3.12-10.648-2.605
	c-0.275,0.02-0.481,0.261-0.46,0.536c0.021,0.275,0.257,0.501,0.537,0.46c6.233-0.474,9.915,2.366,9.951,2.395
	C35.082,24.965,35.191,25,35.299,25z M26.431,20.337c0.049,0,0.1-0.007,0.149-0.022c4.79-1.497,8.737-0.347,8.777-0.336
	c0.265,0.081,0.543-0.07,0.623-0.335c0.079-0.265-0.071-0.543-0.335-0.622c-0.173-0.052-4.286-1.247-9.362,0.338
	c-0.264,0.083-0.411,0.363-0.328,0.627C26.02,20.2,26.218,20.337,26.431,20.337z"/>
<path fill="#292F33" d="M25.362,30.28C24.879,29.642,21.947,26,18,26c-4.234,0-7.3,4.191-7.428,4.37
	c-0.121,0.167-0.085,0.381,0.084,0.516C10.75,30.961,10.875,31,11,31c0.096,0,0.193-0.023,0.277-0.07
	c0.029-0.016,2.918-1.597,6.722-1.597c3.792,0,6.695,1.581,6.723,1.597c0.086,0.048,0.215,0.08,0.281,0.07
	c0.277-0.003,0.516-0.182,0.516-0.417C25.52,30.464,25.46,30.357,25.362,30.28z"/>
<path fill="#292F33" d="M15.409,12.583c-0.121,0.234-0.321,0.388-0.546,0.449c-0.225,0.06-0.476,0.026-0.698-0.116
	c-0.162-0.104-0.321-0.194-0.48-0.288C13.882,13.171,14,13.81,14,14.5c0,1.933-0.895,3.5-2,3.5s-2-1.567-2-3.5
	c0-1.327,0.427-2.468,1.049-3.061c-2.526-0.797-4.245-0.388-4.268-0.382c-0.486,0.124-0.993-0.205-1.133-0.737
	s0.136-1.066,0.62-1.196c0.159-0.042,3.941-1.005,8.775,2.093C15.488,11.502,15.652,12.113,15.409,12.583z M29.731,9.122
	c-0.159-0.043-3.941-1.006-8.775,2.093c-0.445,0.285-0.609,0.897-0.366,1.366c0.122,0.235,0.322,0.39,0.547,0.45
	c0.226,0.061,0.476,0.027,0.697-0.117c0.163-0.104,0.322-0.195,0.482-0.289C22.118,13.168,22,13.808,22,14.5
	c0,1.933,0.895,3.5,2,3.5s2-1.567,2-3.5c0-1.328-0.428-2.47-1.051-3.063c2.511-0.793,4.226-0.393,4.268-0.382
	c0.485,0.128,0.993-0.199,1.135-0.731C30.495,9.79,30.217,9.252,29.731,9.122z"/>
</svg>
