<?xml version="1.0" encoding="utf-8"?>
<!-- Generator: Adobe Illustrator 25.2.1, SVG Export Plug-In . SVG Version: 6.00 Build 0)  -->
<svg version="1.1" id="Layer_1" xmlns="http://www.w3.org/2000/svg" xmlns:xlink="http://www.w3.org/1999/xlink" x="0px" y="0px"
	 width="36px" height="36px" viewBox="0 0 36 36" enable-background="new 0 0 36 36" xml:space="preserve">
<path fill="#FFCC4D" d="M31.981,9.794c0,0,3.903,10.563,3.682,11.691C34.04,29.758,26.749,36,18,36
	C9.252,36,1.961,29.758,0.337,21.485C0.116,20.358,3.642,9.794,3.642,9.794H31.981z"/>
<path fill="#5DADEC" d="M10,30c0,2.762-2.238,5-5,5s-5-2.238-5-5s4-10,5-10S10,27.238,10,30z"/>
<path fill="#BDDDF4" d="M18,11c8.749,0,16.04,4.51,17.663,10.485C35.885,20.357,36,19.192,36,18c0-9.94-8.059-18-18-18
	C8.06,0,0,8.06,0,18c0,1.192,0.116,2.357,0.337,3.485C1.96,15.51,9.252,11,18,11z"/>
<ellipse fill="#664500" cx="11.5" cy="16.5" rx="2.5" ry="3.5"/>
<ellipse fill="#664500" cx="24.5" cy="16.5" rx="2.5" ry="3.5"/>
<path fill="#664500" d="M23.485,27.879C23.474,27.835,22.34,23.5,18,23.5s-5.474,4.335-5.484,4.379
	c-0.053,0.213,0.043,0.431,0.231,0.544c0.187,0.112,0.433,0.086,0.596-0.06C13.353,28.355,14.357,27.5,18,27.5
	c3.59,0,4.617,0.83,4.656,0.863C22.751,28.453,22.875,28.5,23,28.5c0.084,0,0.169-0.021,0.246-0.064
	C23.442,28.324,23.54,28.097,23.485,27.879z"/>
<path fill="#664500" d="M30,12c-5.554,0-7.802-4.367-7.895-4.553c-0.247-0.494-0.047-1.095,0.447-1.342
	c0.492-0.247,1.092-0.048,1.34,0.443C23.967,6.694,25.713,10,30,10c0.553,0,1,0.448,1,1S30.553,12,30,12z M6,12
	c-0.552,0-1-0.448-1-1s0.448-1,1-1c5.083,0,5.996-3.12,6.033-3.253c0.145-0.528,0.69-0.848,1.219-0.709
	c0.53,0.139,0.851,0.673,0.718,1.205C13.921,7.437,12.704,12,6,12z"/>
</svg>
