<?xml version="1.0" encoding="utf-8"?>
<!-- Generator: Adobe Illustrator 25.2.1, SVG Export Plug-In . SVG Version: 6.00 Build 0)  -->
<svg version="1.1" id="Layer_1" xmlns="http://www.w3.org/2000/svg" xmlns:xlink="http://www.w3.org/1999/xlink" x="0px" y="0px"
	 width="36px" height="36px" viewBox="0 0 36 36" enable-background="new 0 0 36 36" xml:space="preserve">
<path fill="#FFCC4D" d="M4.848,9.329L2.05,18c0.129,0,0.26,0,0.39,0c4.27,0,6.666,8.506,6.092,15.288C11.286,34.997,14.522,36,18,36
	c3.479,0,6.716-1.004,9.47-2.713C26.893,26.48,29.288,18,33.561,18c0.131,0,0.261,0,0.39,0l-2.597-8.671H4.848z"/>
<path fill="#BDDDF4" d="M18,0C8.06,0,0,8.06,0,18c0,0.861,0.064,1.707,0.183,2.536l0.069-1.353C0.516,18.524,1.103,18.094,2.049,18
	c2.992-4.179,8.988-7,15.951-7c6.964,0,12.959,2.821,15.951,7c0.95,0.094,1.539,0.522,1.801,1.183l0.107,1.049
	C35.951,19.501,36,18.756,36,18C36,8.06,27.941,0,18,0z"/>
<path fill="#F5F8FA" d="M7.347,11.91c-0.946,3.176,0.107,6.293,2.353,6.962c2.246,0.67,4.834-1.362,5.779-4.538
	c0.946-3.175-0.106-6.293-2.351-6.962C10.882,6.703,8.294,8.735,7.347,11.91z M28.652,11.91c0.946,3.176-0.107,6.293-2.352,6.962
	c-2.246,0.67-4.834-1.362-5.779-4.538c-0.946-3.175,0.107-6.293,2.351-6.962C25.117,6.703,27.705,8.735,28.652,11.91z"/>
<path fill="#664500" d="M18,18c-2.757,0-5,2.243-5,5v6c0,2.757,2.243,5,5,5s5-2.243,5-5v-6C23,20.243,20.757,18,18,18z"/>
<path fill="#FCAB40" d="M1.404,19c-0.464,0-0.84,0.066-1.153,0.183C-0.81,22.203,2.849,28.54,0.818,36h6.46
	C8.468,29.04,6.043,19,1.404,19z M35.753,19.183C35.439,19.066,35.062,19,34.596,19c-4.641,0-7.065,10.002-5.873,17h6.46
	C33.277,28.955,36.839,21.911,35.753,19.183z"/>
</svg>
