<?xml version="1.0" encoding="utf-8"?>
<!-- Generator: Adobe Illustrator 25.2.1, SVG Export Plug-In . SVG Version: 6.00 Build 0)  -->
<svg version="1.1" id="Layer_1" xmlns="http://www.w3.org/2000/svg" xmlns:xlink="http://www.w3.org/1999/xlink" x="0px" y="0px"
	 width="36px" height="36px" viewBox="0 0 36 36" enable-background="new 0 0 36 36" xml:space="preserve">
<path fill="#FFCC4D" d="M35.734,19.929C35.375,16.66,35,15,34,13c0,0,3-9,1-12.7C34.326-0.946,27.596,1.988,25,4
	c0,0-4-0.998-7-0.998S11,4,11,4C8.404,1.988,1.674-0.946,1,0.3C-1,4,2,13,2,13c-1,2-1.375,3.66-1.734,6.929
	C-0.129,23.513,0.657,26.37,1,27c0.39,0.716,2.367,3.025,5,5c4,3,10,4,12,4s8-1,12-4c2.633-1.975,4.61-4.284,5-5
	C35.343,26.37,36.129,23.513,35.734,19.929z"/>
<path fill="#E75A70" d="M18,19.5c3,0,3,0.5,3,1.5s-1.5,3-3,3s-3-2-3-3S14.999,19.5,18,19.5z"/>
<path fill="#F18F26" d="M34,3c-0.447-1.342-5.64,1-6.64,2c0,0,4.64,3,5.64,6C33,11,35,6,34,3z"/>
<path fill="#F18F26" d="M3,11c1-3,5.64-6,5.64-6C7.64,4,2.447,1.658,2,3C1,6,3,11,3,11z"/>
<path fill="#FEE7B8" d="M0.701,25c-0.148,0-0.294-0.065-0.393-0.19c-0.171-0.217-0.134-0.531,0.083-0.702
	c0.162-0.127,4.02-3.12,10.648-2.605c0.275,0.02,0.481,0.261,0.46,0.536s-0.257,0.501-0.537,0.46
	c-6.233-0.474-9.915,2.366-9.951,2.395C0.918,24.965,0.809,25,0.701,25z M9.569,20.337c-0.049,0-0.1-0.007-0.149-0.022
	c-4.79-1.497-8.737-0.347-8.777-0.336C0.378,20.06,0.1,19.909,0.02,19.644c-0.079-0.265,0.071-0.543,0.335-0.622
	c0.173-0.052,4.286-1.247,9.362,0.338c0.264,0.083,0.411,0.363,0.328,0.627C9.979,20.2,9.782,20.337,9.569,20.337z M35.299,25
	c0.148,0,0.294-0.065,0.393-0.19c0.171-0.217,0.134-0.531-0.083-0.702c-0.162-0.127-4.02-3.12-10.648-2.605
	c-0.275,0.02-0.481,0.261-0.46,0.536c0.021,0.275,0.257,0.501,0.537,0.46c6.233-0.474,9.915,2.366,9.951,2.395
	C35.082,24.965,35.191,25,35.299,25z M26.431,20.337c0.049,0,0.1-0.007,0.149-0.022c4.79-1.497,8.737-0.347,8.777-0.336
	c0.265,0.081,0.543-0.07,0.623-0.335c0.079-0.265-0.071-0.543-0.335-0.622c-0.173-0.052-4.286-1.247-9.362,0.338
	c-0.264,0.083-0.411,0.363-0.328,0.627C26.02,20.2,26.218,20.337,26.431,20.337z"/>
<path fill="#292F33" d="M28.023,24.191C27.046,24.383,23,26,18,26s-9.046-1.617-10.023-1.809C7,24,6.885,25.264,7.442,27.132
	C8,29,11,33,18,33s10-4,10.558-5.868C29.115,25.264,29,24,28.023,24.191z"/>
<path fill="#F5F8FA" d="M8,25c0,0,5,2,10,2s10-2,10-2s-0.5,3-1.5,3S25,27,25,27s-4,2-7,2s-7-2-7-2s-0.5,1-1.5,1S8,25,8,25z"/>
<path fill="#DD2E44" d="M16.226,5.117c-0.859-2.431-3.525-3.707-5.956-2.85c-1.477,0.52-2.521,1.711-2.928,3.104
	c-1.191-0.829-2.751-1.1-4.225-0.58c-2.431,0.857-3.708,3.525-2.85,5.956c0.122,0.345,0.284,0.663,0.472,0.958
	c1.951,3.582,7.588,6.1,11.002,6.131c2.637-2.167,5.445-7.664,4.717-11.677C16.42,5.81,16.345,5.461,16.226,5.117z M19.774,5.117
	c0.859-2.431,3.525-3.707,5.956-2.85c1.477,0.52,2.521,1.711,2.929,3.104c1.191-0.829,2.751-1.1,4.225-0.58
	c2.43,0.857,3.707,3.525,2.85,5.956c-0.123,0.345-0.284,0.663-0.473,0.958c-1.951,3.582-7.588,6.1-11.002,6.131
	c-2.637-2.167-5.445-7.664-4.717-11.677C19.58,5.81,19.655,5.461,19.774,5.117z"/>
</svg>
