<?xml version="1.0" encoding="utf-8"?>
<!-- Generator: Adobe Illustrator 25.2.1, SVG Export Plug-In . SVG Version: 6.00 Build 0)  -->
<svg version="1.1" id="Layer_1" xmlns="http://www.w3.org/2000/svg" xmlns:xlink="http://www.w3.org/1999/xlink" x="0px" y="0px"
	 width="36px" height="36px" viewBox="0 0 36 36" enable-background="new 0 0 36 36" xml:space="preserve">
<path fill="#77B255" d="M0,22v6c0,1.657,1.343,3,3,3h30c1.657,0,3-1.343,3-3v-6H0z"/>
<path fill="#6D6E71" d="M14.834,9.672c5.119-5.615,11.735-6.621,12.024-6.662C26.905,3.003,26.953,3,27,3h3c0.553,0,1,0.448,1,1
	s-0.447,1-1,1h-2.919c-0.595,0.103-5.281,1.01-9.403,4.672H14.834z"/>
<path fill="#A7A9AC" d="M11,9h14v4H11V9z"/>
<path fill="#E6E7E8" d="M36,22v-8c0-1.657-1.343-3-3-3H3c-1.657,0-3,1.343-3,3v8H36z"/>
<path fill="#5C913B" d="M0,22h36v2H0V22z M7,25c-3.063,0-5.586,2.298-5.95,5.263C1.576,30.716,2.252,31,3,31h10
	C13,27.687,10.314,25,7,25z M34.95,30.263C34.586,27.298,32.063,25,29,25c-3.313,0-6,2.687-6,6h10
	C33.749,31,34.425,30.716,34.95,30.263z"/>
<circle cx="7" cy="31" r="4"/>
<circle cx="29" cy="31" r="4"/>
<circle fill="#99AAB5" cx="7" cy="31" r="2"/>
<circle fill="#99AAB5" cx="29" cy="31" r="2"/>
<path fill="#55ACEE" d="M27,19c0,0.553-0.447,1-1,1h-3c-0.553,0-1-0.447-1-1v-3c0-0.552,0.447-1,1-1h3c0.553,0,1,0.448,1,1V19z
	 M34,19c0,0.553-0.447,1-1,1h-3c-0.553,0-1-0.447-1-1v-3c0-0.552,0.447-1,1-1h3c0.553,0,1,0.448,1,1V19z M13,19c0,0.553-0.448,1-1,1
	H9c-0.552,0-1-0.447-1-1v-3c0-0.552,0.448-1,1-1h3c0.552,0,1,0.448,1,1V19z M20,19c0,0.553-0.447,1-1,1h-3c-0.552,0-1-0.447-1-1v-3
	c0-0.552,0.448-1,1-1h3c0.553,0,1,0.448,1,1V19z M5,15H0v7h5c0.552,0,1-0.447,1-1v-5C6,15.448,5.552,15,5,15z"/>
<path fill="#FFE8B6" d="M0,25h1v2H0V25z"/>
<path fill="#EA596E" d="M35,25h1v2h-1V25z"/>
<path fill="#F4ABBA" d="M35,22h1v2h-1V22z"/>
</svg>
