<?xml version="1.0" encoding="utf-8"?>
<!-- Generator: Adobe Illustrator 25.2.1, SVG Export Plug-In . SVG Version: 6.00 Build 0)  -->
<svg version="1.1" id="Layer_1" xmlns="http://www.w3.org/2000/svg" xmlns:xlink="http://www.w3.org/1999/xlink" x="0px" y="0px"
	 width="36px" height="36px" viewBox="0 0 36 36" enable-background="new 0 0 36 36" xml:space="preserve">
<path fill="#939598" d="M0,34h36v2H0V34z"/>
<path fill="#58595B" d="M10,32l-3-0.829L4,32c0,1.657,1.343,3,3,3S10,33.657,10,32z"/>
<path fill="#58595B" d="M32,32c0,1.657-1.343,3-3,3s-3-1.343-3-3l3-0.829L32,32z"/>
<path fill="#292F33" d="M9,32l-2-0.829L5,32c0,1.105,0.896,2,2,2S9,33.105,9,32z"/>
<path fill="#292F33" d="M31,32c0,1.105-0.895,2-2,2s-2-0.895-2-2l2-0.829L31,32z"/>
<path fill="#E6E7E8" d="M34,2H2C1.448,2,1,1.552,1,1s0.448-1,1-1h32c0.553,0,1,0.448,1,1S34.553,2,34,2z"/>
<path fill="#66757F" d="M22.998,4.944c-0.016-0.284-0.151-0.548-0.373-0.726l-3.683-2.945c0.087-0.302,0.049-0.635-0.162-0.898
	c-0.314-0.394-0.859-0.468-1.281-0.221c-0.42-0.248-0.966-0.174-1.281,0.221c-0.211,0.264-0.25,0.597-0.162,0.898l-3.682,2.945
	C12.152,4.396,12.016,4.659,12,4.944c-0.016,0.284,0.09,0.561,0.291,0.762l3.835,3.834l2.746,0.002l3.835-3.835
	C22.908,5.505,23.015,5.228,22.998,4.944z M17.5,8.085l-3.003-3.003L17.5,2.68l3.003,2.403L17.5,8.085z"/>
<path fill="#BCBEC0" d="M30,10l-12.501,0.827L6,10c0-1.104,0.896-2,2-2h20C29.104,8,30,8.896,30,10z"/>
<path fill="#E6E7E8" d="M36,16H0v-2c0-2.209,1.791-4,4-4h28c2.209,0,4,1.791,4,4V16z M0,28h36v4H0V28z"/>
<path fill="#BE1931" d="M0,14h36v14H0V14z"/>
<path fill="#DD2E44" d="M36,14H0v10h6v6h7v-6h10v6h7v-6h6V14z"/>
<path fill="#55ACEE" d="M2,16H0v10h2c1.104,0,2-0.896,2-2v-6C4,16.896,3.104,16,2,16z M36,16h-2c-1.104,0-2,0.896-2,2v6
	c0,1.104,0.896,2,2,2h2V16z M21,22c0,0.553-0.448,1-1,1h-4c-0.553,0-1-0.447-1-1v-4c0-0.553,0.448-1,1-1h4c0.552,0,1,0.447,1,1V22z
	 M12,23c0,0.553-0.448,1-1,1H8c-0.552,0-1-0.447-1-1v-5c0-0.552,0.448-1,1-1h3c0.552,0,1,0.448,1,1V23z M29,23c0,0.553-0.447,1-1,1
	h-3c-0.553,0-1-0.447-1-1v-5c0-0.552,0.447-1,1-1h3c0.553,0,1,0.448,1,1V23z"/>
<path fill="#A0041E" d="M0,28h36v2H0V28z"/>
</svg>
