<?xml version="1.0" encoding="utf-8"?>
<!-- Generator: Adobe Illustrator 25.2.1, SVG Export Plug-In . SVG Version: 6.00 Build 0)  -->
<svg version="1.1" id="Layer_1" xmlns="http://www.w3.org/2000/svg" xmlns:xlink="http://www.w3.org/1999/xlink" x="0px" y="0px"
	 width="36px" height="36px" viewBox="0 0 36 36" enable-background="new 0 0 36 36" xml:space="preserve">
<polygon fill="#6D6E71" points="21,34 20,34 20,33 19,32 16,32 16,21 19,21 19,19 16,19 16,15 19,15 19,13 16,13 16,7 14,7 14,32 
	11,32 10,33 10,34 9,34 8,35 8,36 14,36 16,36 22,36 22,35 "/>
<path fill="#BCBEC0" d="M29,24c0,0.553-0.447,1-1,1h-9c-0.553,0-1-0.447-1-1V13l5.5-0.75L29,13V24z"/>
<path fill="#BE1931" d="M29,13v-3c0-0.552-0.447-1-1-1h-9c-0.553,0-1,0.448-1,1v3H29z M15,0c2.209,0,4,1.791,4,4s-1.791,4-4,4
	s-4-1.791-4-4S12.791,0,15,0z"/>
<path fill="#808285" d="M20,13h3v3h-3V13z M24,13h3v3h-3V13z M24,17h3v3h-3V17z"/>
<path fill="#F4900C" d="M20,17h3v3h-3V17z M20,21h3v3h-3V21z M24,21h3v3h-3V21z"/>
<path fill="#DD2E44" d="M13,2h4v4h-4V2z M20,10h7v2h-7V10z"/>
</svg>
