<?xml version="1.0" encoding="utf-8"?>
<!-- Generator: Adobe Illustrator 25.2.1, SVG Export Plug-In . SVG Version: 6.00 Build 0)  -->
<svg version="1.1" id="Layer_1" xmlns="http://www.w3.org/2000/svg" xmlns:xlink="http://www.w3.org/1999/xlink" x="0px" y="0px"
	 width="36px" height="36px" viewBox="0 0 36 36" enable-background="new 0 0 36 36" xml:space="preserve">
<path fill="#DD2E44" d="M36,27c0,2.209-1.791,4-4,4H4c-2.209,0-4-1.791-4-4v-2l18-1.848L36,25V27z"/>
<path fill="#FFCC4D" d="M14.351,12H7.146C4,12,3,14,3,14l-3,5.959V25h14.351V12z"/>
<path fill="#55ACEE" d="M9,20H2l2-4c0,0,1-2,3-2h2V20z"/>
<circle fill="#292F33" cx="9" cy="31" r="4"/>
<circle fill="#292F33" cx="27" cy="31" r="4"/>
<circle fill="#CCD6DD" cx="9" cy="31" r="2"/>
<circle fill="#CCD6DD" cx="27" cy="31" r="2"/>
<path fill="#CCD6DD" d="M32,8H17c-2.209,0-4,1.791-4,4v13h23V12C36,9.791,34.209,8,32,8z"/>
</svg>
