<?xml version="1.0" encoding="utf-8"?>
<!-- Generator: Adobe Illustrator 25.2.1, SVG Export Plug-In . SVG Version: 6.00 Build 0)  -->
<svg version="1.1" id="Layer_1" xmlns="http://www.w3.org/2000/svg" xmlns:xlink="http://www.w3.org/1999/xlink" x="0px" y="0px"
	 width="36px" height="36px" viewBox="0 0 36 36" enable-background="new 0 0 36 36" xml:space="preserve">
<path fill="#99AAB5" d="M25.5,22.582L15,25h-2l-7-2.418L0,25v2c0,2.209,1.791,4,4,4h28c2.209,0,4-1.791,4-4v-2L25.5,22.582z"/>
<path fill="#FFCC4D" d="M10,12H7.146C4,12,3,14,3,14l-3,5.959V25h13V15C13,13.343,11.657,12,10,12z"/>
<path fill="#55ACEE" d="M9,20H2l2-4c0,0,1-2,3-2h2V20z"/>
<path fill="#77B255" d="M32,8H19c-2.209,0-4,1.791-4,4v13h21V12C36,9.791,34.209,8,32,8z"/>
<circle fill="#292F33" cx="6" cy="31" r="4"/>
<circle fill="#292F33" cx="30" cy="31" r="4"/>
<circle fill="#292F33" cx="20" cy="31" r="4"/>
<circle fill="#CCD6DD" cx="6" cy="31" r="2"/>
<circle fill="#CCD6DD" cx="30" cy="31" r="2"/>
<circle fill="#CCD6DD" cx="20" cy="31" r="2"/>
</svg>
