<?xml version="1.0" encoding="utf-8"?>
<!-- Generator: Adobe Illustrator 25.2.1, SVG Export Plug-In . SVG Version: 6.00 Build 0)  -->
<svg version="1.1" id="Layer_1" xmlns="http://www.w3.org/2000/svg" xmlns:xlink="http://www.w3.org/1999/xlink" x="0px" y="0px"
	 width="36px" height="36px" viewBox="0 0 36 36" enable-background="new 0 0 36 36" xml:space="preserve">
<path fill="#DA2F47" d="M36,18c0,9.941-8.059,18-18,18C8.06,36,0,27.941,0,18C0,8.06,8.06,0,18,0C27.941,0,36,8.06,36,18"/>
<path fill="#292F33" d="M15.707,15.293C12.452,12.038,7.221,12,7,12c-0.552,0-0.999,0.447-0.999,0.998
	C6,13.55,6.447,13.998,6.999,14c0.029,0,1.925,0.023,3.983,0.737C10.389,15.377,10,16.371,10,17.5c0,1.934,1.119,3.5,2.5,3.5
	s2.5-1.566,2.5-3.5c0-0.174-0.019-0.34-0.037-0.507C14.976,16.993,14.988,17,15,17c0.256,0,0.512-0.098,0.707-0.293
	C16.098,16.316,16.098,15.684,15.707,15.293z M29,12c-0.221,0-5.451,0.038-8.707,3.293c-0.391,0.391-0.391,1.023,0,1.414
	C20.488,16.902,20.744,17,21,17c0.013,0,0.024-0.007,0.036-0.007C21.02,17.16,21,17.326,21,17.5c0,1.934,1.119,3.5,2.5,3.5
	s2.5-1.566,2.5-3.5c0-1.129-0.389-2.123-0.982-2.763C27.076,14.023,28.972,14,29.002,14c0.551-0.002,0.998-0.45,0.997-1.002
	C29.998,12.447,29.552,12,29,12z"/>
<path fill="#292F33" d="M29.739,33H6.261C5.017,33,4,31.983,4,30.739V25c0-1.244,1.017-2.261,2.261-2.261h23.478
	C30.983,22.739,32,23.756,32,25v5.739C32,31.983,30.983,33,29.739,33z"/>
<path fill="#FFFFFF" d="M7.841,27.229H7.023c-0.314,0-0.457-0.229-0.457-0.457s0.143-0.456,0.457-0.456h0.95l0.209-1.53
	c0.047-0.342,0.19-0.456,0.475-0.456c0.228,0,0.438,0.151,0.438,0.38c0,0.143,0,0.076-0.019,0.229l-0.19,1.378h0.913l0.209-1.53
	c0.047-0.342,0.19-0.456,0.475-0.456c0.228,0,0.438,0.151,0.438,0.38c0,0.143,0,0.076-0.019,0.229l-0.191,1.378h0.818
	c0.314,0,0.456,0.229,0.456,0.456c0,0.228-0.143,0.457-0.456,0.457h-0.951l-0.152,1.083h0.818c0.314,0,0.456,0.229,0.456,0.457
	s-0.143,0.456-0.456,0.456h-0.951l-0.209,1.53c-0.048,0.343-0.191,0.456-0.476,0.456c-0.228,0-0.438-0.151-0.438-0.38
	c0-0.143,0-0.076,0.019-0.229l0.191-1.378H8.468l-0.209,1.53c-0.048,0.343-0.19,0.456-0.476,0.456c-0.228,0-0.438-0.151-0.438-0.38
	c0-0.143,0-0.076,0.019-0.229l0.19-1.378H6.738c-0.313,0-0.456-0.229-0.456-0.456c0-0.229,0.143-0.457,0.456-0.457h0.951
	C7.689,28.312,7.841,27.229,7.841,27.229z M8.611,28.312h0.903l0.152-1.083H8.763L8.611,28.312z M13.227,25.812
	c0-0.827,0.618-1.54,1.464-1.54s1.464,0.713,1.464,1.54s-0.618,1.531-1.464,1.531C13.844,27.344,13.227,26.64,13.227,25.812z
	 M15.185,25.812c0-0.304-0.181-0.57-0.494-0.57c-0.314,0-0.495,0.267-0.495,0.57c0,0.305,0.181,0.562,0.495,0.562
	C15.004,26.374,15.185,26.117,15.185,25.812z M17.495,24.52c0.124-0.237,0.219-0.304,0.438-0.304c0.295,0,0.561,0.237,0.561,0.532
	c0,0.076,0,0.143-0.076,0.285l-3.194,5.979c-0.143,0.199-0.2,0.313-0.428,0.313c-0.247,0-0.542-0.237-0.542-0.522
	c0-0.143,0.057-0.275,0.095-0.352L17.495,24.52z M16.573,29.739c0-0.827,0.618-1.54,1.464-1.54s1.464,0.713,1.464,1.54
	c0,0.826-0.618,1.53-1.464,1.53C17.19,31.27,16.573,30.565,16.573,29.739z M18.531,29.739c0-0.305-0.181-0.57-0.495-0.57
	s-0.495,0.266-0.495,0.57c0,0.304,0.181,0.561,0.495,0.561S18.531,30.043,18.531,29.739z M21.017,30.528
	c0-0.409,0.333-0.742,0.741-0.742c0.409,0,0.742,0.333,0.742,0.742c0,0.408-0.333,0.741-0.742,0.741
	C21.35,31.27,21.017,30.937,21.017,30.528z M21.074,24.919c0-0.399,0.294-0.646,0.684-0.646c0.381,0,0.685,0.257,0.685,0.646v3.66
	c0,0.39-0.304,0.646-0.685,0.646c-0.39,0-0.684-0.247-0.684-0.646V24.919z M29.152,31.326c-0.187,0-0.304-0.053-0.431-0.196
	l-0.724-0.79l-0.072,0.066c-0.702,0.645-1.308,0.919-2.024,0.919c-1.109,0-2.229-0.632-2.229-2.044c0-1.107,0.867-1.769,1.384-2.065
	l0.117-0.067l-0.095-0.098c-0.425-0.445-0.599-0.813-0.599-1.269c0-1.077,0.983-1.567,1.896-1.567c0.764,0,1.84,0.453,1.84,1.458
	c0,0.951-0.883,1.501-1.153,1.647l-0.115,0.062l1.161,1.341l0.444-0.536c0.247-0.297,0.391-0.422,0.646-0.422
	c0.205,0,0.424,0.184,0.424,0.523c0,0.254-0.252,0.585-0.499,0.875l-0.297,0.335l0.706,0.838c0.131,0.156,0.185,0.239,0.185,0.428
	C29.718,31.059,29.448,31.326,29.152,31.326z M25.705,27.852c-0.428,0.287-0.864,0.665-0.864,1.291c0,0.656,0.427,1.079,1.089,1.079
	c0.552,0,0.909-0.242,1.275-0.606l0.071-0.069l-1.5-1.743L25.705,27.852z M26.376,25.141c-0.28,0-0.67,0.229-0.67,0.602
	c0,0.348,0.171,0.56,0.534,0.929l0.051,0.052l0.063-0.033c0.497-0.26,0.749-0.553,0.749-0.869
	C27.104,25.354,26.727,25.141,26.376,25.141z"/>
</svg>
