<?xml version="1.0" encoding="utf-8"?>
<!-- Generator: Adobe Illustrator 25.2.1, SVG Export Plug-In . SVG Version: 6.00 Build 0)  -->
<svg version="1.1" id="Layer_1" xmlns="http://www.w3.org/2000/svg" xmlns:xlink="http://www.w3.org/1999/xlink" x="0px" y="0px"
	 width="36px" height="36px" viewBox="0 0 36 36" enable-background="new 0 0 36 36" xml:space="preserve">
<path fill="#FFCB4C" d="M30.728,5.272c7.029,7.029,7.029,18.427,0,25.456s-18.426,7.029-25.456,0
	c-7.029-7.029-7.029-18.427,0-25.456S23.698-1.757,30.728,5.272"/>
<path fill="#65471B" d="M19.279,19.28c-3.494,3.494-6.219,5.404-9.645,7.714l0.001,3.859c3.857,3.857,13.111,4.247,19.287-1.929
	c6.177-6.177,5.788-15.43,1.929-19.288h-3.858C24.685,13.059,22.774,15.785,19.279,19.28z"/>
<path fill="#65471B" d="M6.568,24.386c0.025-0.176,0.543-3.63,2.774-6.922c-2.627,0.873-4.589,2.796-4.614,2.821
	c-0.391,0.389-1.024,0.388-1.414-0.003c-0.39-0.39-0.39-1.022,0-1.412c0.156-0.156,3.882-3.828,8.485-3.828
	c0.405,0,0.769,0.243,0.924,0.617c0.155,0.374,0.069,0.804-0.217,1.09c-3.262,3.262-3.953,7.874-3.96,7.919L6.568,24.386z
	 M24.67,8.546c-0.047,0.007-4.676,0.715-7.921,3.96c-0.286,0.286-0.716,0.372-1.09,0.217c-0.374-0.155-0.617-0.519-0.617-0.924
	c0-4.604,3.672-8.329,3.828-8.485c0.39-0.39,1.022-0.39,1.412,0c0.391,0.389,0.392,1.023,0.003,1.413
	c-0.026,0.026-1.949,1.987-2.822,4.614c3.292-2.231,6.745-2.749,6.921-2.774L24.67,8.546z"/>
<path fill="#FFFFFF" d="M11.564,28.923c0,0,3.858-1.929,9.644-7.716c5.787-5.786,7.715-9.643,7.715-9.643s1.928,5.787-4.822,12.537
	C17.351,30.852,11.564,28.923,11.564,28.923z"/>
<path fill="#64AADD" d="M30.101,12.055c2.741,0.334,5.234-1.618,5.567-4.36c0.334-2.741-1.617-5.234-4.359-5.568
	C28.568,1.794,20.9,4.89,20.779,5.883C20.658,6.875,27.36,11.72,30.101,12.055z M12.157,29.999c0.334,2.741-1.618,5.234-4.36,5.567
	c-2.741,0.334-5.234-1.617-5.568-4.359c-0.334-2.742,2.763-10.41,3.756-10.531C6.977,20.556,11.822,27.258,12.157,29.999z"/>
</svg>
