<?xml version="1.0" encoding="utf-8"?>
<!-- Generator: Adobe Illustrator 25.2.1, SVG Export Plug-In . SVG Version: 6.00 Build 0)  -->
<svg version="1.1" id="Layer_1" xmlns="http://www.w3.org/2000/svg" xmlns:xlink="http://www.w3.org/1999/xlink" x="0px" y="0px"
	 width="36px" height="36px" viewBox="0 0 36 36" enable-background="new 0 0 36 36" xml:space="preserve">
<path fill="#FFCC4D" d="M33,21c0,8.284-6.716,15-15,15S3,29.284,3,21c0-2.857,0.799-5.527,2.185-7.799l25.63,0
	C32.201,15.473,33,18.143,33,21"/>
<path fill="#664500" d="M25.688,25.605c-0.146-0.133-0.366-0.141-0.522-0.023c-0.032,0.023-3.23,2.389-7.165,2.389
	c-3.925,0-7.133-2.365-7.165-2.389c-0.157-0.117-0.376-0.107-0.523,0.023c-0.146,0.132-0.179,0.35-0.077,0.517
	C10.341,26.3,12.884,30.44,18,30.44c5.115,0,7.659-4.141,7.765-4.317C25.866,25.954,25.834,25.737,25.688,25.605z M14.706,19.765
	c0,1.593-0.922,2.883-2.059,2.883s-2.059-1.29-2.059-2.883c0-1.591,0.921-2.882,2.059-2.882S14.706,18.173,14.706,19.765z
	 M25.412,19.765c0,1.593-0.922,2.883-2.06,2.883c-1.137,0-2.059-1.29-2.059-2.883c0-1.591,0.922-2.882,2.059-2.882
	C24.49,16.882,25.412,18.173,25.412,19.765z M32,6.13c-1.19,1.441-3.182,1.951-5.076,2.121C26.606,6.713,25.241,1,22.5,1
	c-2.403,0-3.269,1.091-4.5,1.091C16.769,2.091,15.903,1,13.5,1c-2.741,0-4.106,5.713-4.424,7.251C7.182,8.081,5.19,7.57,4,6.13
	C1.847,3.524-1,5.444,0.442,8.304C2.72,12.821,8.23,16,18,16c9.769,0,15.279-3.179,17.558-7.696C37,5.444,34.153,3.524,32,6.13z"/>
<path fill="#825D0E" d="M11.772,6.547C12.337,4.804,13.226,3,14.5,3c1.869,0,2.543,0.964,3.5,0.964C18.957,3.964,19.631,3,21.5,3
	c1.274,0,2.163,1.804,2.728,3.547C23.233,7.14,21.235,8,18,8C14.766,8,12.768,7.14,11.772,6.547z M18,10
	c-3.772,0-5.945-1.243-6.695-1.768C11.099,9.112,11,9.75,11,9.75S12.282,12,18,12c5.719,0,7-2.25,7-2.25s-0.099-0.638-0.305-1.518
	C23.945,8.757,21.772,10,18,10z"/>
</svg>
