<?xml version="1.0" encoding="utf-8"?>
<!-- Generator: Adobe Illustrator 25.2.1, SVG Export Plug-In . SVG Version: 6.00 Build 0)  -->
<svg version="1.1" id="Layer_1" xmlns="http://www.w3.org/2000/svg" xmlns:xlink="http://www.w3.org/1999/xlink" x="0px" y="0px"
	 width="36px" height="36px" viewBox="0 0 36 36" enable-background="new 0 0 36 36" xml:space="preserve">
<path fill="#C1694F" d="M34.146,13.151C31.594,2.865,20.445,0.712,11.793,2.86c-0.287,0.071-0.549,0.164-0.822,0.247
	c-0.223,0.039-0.446,0.067-0.668,0.122c-6.594,1.636-10.28,9.642-8.236,17.882c2.045,8.239,9.046,13.594,15.638,11.958
	c0.22-0.055,0.428-0.134,0.641-0.203c0.284-0.055,0.562-0.095,0.852-0.167C27.851,30.553,36.537,22.786,34.146,13.151z"/>
<path fill="#A6D388" d="M12.871,4.837c-0.702,0-1.406,0.084-2.106,0.257C4.996,6.526,1.77,13.531,3.559,20.741
	c1.572,6.335,6.492,10.721,11.575,10.721c0.702,0,1.409-0.084,2.109-0.258c5.766-1.431,8.994-8.435,7.205-15.646
	C22.875,9.223,17.954,4.837,12.871,4.837z"/>
<path fill="#77B255" d="M12.871,5.837c4.713,0,9.174,4.19,10.607,9.962c0.811,3.267,0.56,6.581-0.707,9.331
	c-1.231,2.674-3.28,4.486-5.768,5.103c-0.61,0.152-1.238,0.228-1.868,0.228c-4.712,0-9.172-4.19-10.605-9.962
	C2.876,13.837,5.782,7.361,11.006,6.065C11.615,5.914,12.242,5.837,12.871,5.837"/>
<path fill="#A6D388" d="M19.462,17.646l-2.373-1.33l0.813-3.231c0.101-0.4-0.055-0.821-0.391-1.06
	c-0.335-0.239-0.785-0.246-1.129-0.019l-1.544,1.019l-0.977-3.053c-0.14-0.44-0.553-0.715-1.025-0.693
	c-0.46,0.033-0.838,0.377-0.914,0.833l-0.432,2.59l-1.653-1.183c-0.361-0.258-0.849-0.247-1.199,0.026
	c-0.35,0.274-0.477,0.745-0.312,1.158l1.308,3.274l-1.947,0.914c-0.339,0.16-0.561,0.495-0.574,0.87
	c-0.013,0.374,0.184,0.724,0.512,0.908l2.373,1.326l-0.817,3.232c-0.101,0.4,0.054,0.822,0.39,1.06
	c0.337,0.242,0.786,0.249,1.129,0.021l1.567-1.032l0.964,2.868c0.137,0.411,0.521,0.682,0.947,0.682l0.081-0.002
	c0.457-0.036,0.831-0.38,0.907-0.832l0.419-2.506l1.628,1.282c0.355,0.28,0.854,0.286,1.217,0.015
	c0.362-0.271,0.498-0.751,0.33-1.171l-1.307-3.276l1.945-0.912c0.339-0.159,0.56-0.494,0.574-0.869
	C19.985,18.181,19.788,17.83,19.462,17.646z"/>
<path fill="#C6E5B3" d="M17.029,17.581l-1.568-0.854l0.48-2.067c0.047-0.2-0.034-0.408-0.203-0.525
	c-0.168-0.116-0.391-0.118-0.562-0.004l-1.071,0.718l-0.7-2.024c-0.076-0.218-0.292-0.362-0.52-0.334
	c-0.23,0.021-0.415,0.197-0.448,0.425l-0.256,1.757l-1.188-0.826c-0.184-0.127-0.428-0.119-0.601,0.022
	c-0.173,0.14-0.232,0.378-0.145,0.583l0.891,2.099l-1.274,0.607c-0.17,0.081-0.28,0.25-0.285,0.438s0.096,0.363,0.261,0.453
	l1.569,0.852l-0.48,2.066c-0.047,0.2,0.034,0.408,0.203,0.524c0.169,0.118,0.393,0.118,0.563,0.004l1.066-0.716l0.698,2.021
	c0.07,0.203,0.261,0.337,0.472,0.337c0,0,0.048,0,0.048,0c0.229-0.022,0.414-0.197,0.448-0.425l0.26-1.757l1.184,0.826
	c0.183,0.126,0.428,0.12,0.601-0.021c0.174-0.141,0.233-0.379,0.146-0.584l-0.89-2.097l1.277-0.607
	c0.169-0.081,0.28-0.25,0.285-0.438S17.194,17.671,17.029,17.581z"/>
<path fill="#292F33" d="M9.306,14.957c0.229,0.497,0.147,1.024-0.185,1.178c-0.332,0.153-0.786-0.127-1.016-0.624
	c-0.229-0.497-0.147-1.024,0.185-1.177C8.621,14.18,9.076,14.46,9.306,14.957z M16.004,12.021c-0.129,0.532-0.521,0.894-0.876,0.809
	c-0.356-0.087-0.538-0.589-0.409-1.121c0.129-0.532,0.521-0.894,0.877-0.807C15.95,10.987,16.133,11.488,16.004,12.021z
	 M13.36,21.935c-0.129,0.532-0.52,0.894-0.875,0.809c-0.357-0.087-0.539-0.588-0.41-1.12c0.129-0.531,0.521-0.895,0.877-0.808
	C13.306,20.902,13.489,21.403,13.36,21.935z M16.576,24.113c0.229,0.497,0.147,1.023-0.185,1.179
	c-0.331,0.151-0.786-0.128-1.016-0.625c-0.228-0.496-0.148-1.023,0.185-1.178C15.892,23.337,16.347,23.616,16.576,24.113z
	 M17.697,16.43c-0.304,0.292-0.68,0.391-0.843,0.225c-0.161-0.17-0.045-0.542,0.258-0.835c0.303-0.292,0.681-0.393,0.843-0.224
	S18.002,16.138,17.697,16.43z M12.423,14.065c0.181,0.38,0.158,0.768-0.053,0.871c-0.212,0.098-0.53-0.129-0.71-0.509
	s-0.156-0.77,0.056-0.871C11.926,13.455,12.244,13.684,12.423,14.065z M8.443,21.159c-0.304,0.292-0.679,0.392-0.843,0.225
	c-0.16-0.169-0.045-0.542,0.258-0.834c0.303-0.291,0.68-0.393,0.843-0.225C8.863,20.494,8.748,20.867,8.443,21.159z M19.065,20.231
	c0.329,0.356,0.382,0.842,0.116,1.093c-0.267,0.246-0.752,0.159-1.082-0.195c-0.33-0.356-0.384-0.843-0.116-1.094
	C18.25,19.787,18.734,19.875,19.065,20.231z"/>
</svg>
