<?xml version="1.0" encoding="utf-8"?>
<!-- Generator: Adobe Illustrator 25.2.1, SVG Export Plug-In . SVG Version: 6.00 Build 0)  -->
<svg version="1.1" id="Layer_1" xmlns="http://www.w3.org/2000/svg" xmlns:xlink="http://www.w3.org/1999/xlink" x="0px" y="0px"
	 width="36px" height="36px" viewBox="0 0 36 36" enable-background="new 0 0 36 36" xml:space="preserve">
<path fill="#F4900C" d="M35.676,18.625c0.057,0.794,0.011,5.907,0.006,6.093c-0.004,0.139-0.013,0.279-0.026,0.422
	c-0.618,6.445-5.937,10.342-12.187,9.375c-6.062-0.938-8.938-5.5-11.938-8.5s-9.875-3.188-10.89-6.703
	c-0.233-0.807-0.324-1.562-0.294-2.267c0.011-0.256-0.141-5.031,0.035-6.169L35.676,18.625z"/>
<path fill="#FFCC4D" d="M4.718,4.856c3.5-2.125,8.964-2.286,12.5,1.25c3,3,4.243,3.843,9.243,4.843s9.632,3.532,9.194,8.094
	c-0.618,6.445-5.937,10.342-12.187,9.375c-6.062-0.938-8.938-5.5-11.938-8.5S1.655,16.73,0.64,13.215
	C-0.469,9.373,1.636,6.728,4.718,4.856z"/>
<path fill="#FFAC33" d="M12.513,12.606c0.828,0,1.5,0.672,1.5,1.5s-0.672,1.5-1.5,1.5s-1.5-0.672-1.5-1.5
	S11.685,12.606,12.513,12.606z M29.013,24.794c0.552,0,1,0.448,1,1s-0.448,1-1,1s-1-0.448-1-1S28.461,24.794,29.013,24.794z
	 M17.013,23.106c0.552,0,1,0.448,1,1s-0.448,1-1,1s-1-0.448-1-1S16.461,23.106,17.013,23.106z M24.513,23.294
	c0.828,0,1.5,0.672,1.5,1.5s-0.672,1.5-1.5,1.5s-1.5-0.672-1.5-1.5S23.685,23.294,24.513,23.294z M31.825,20.106
	c0.828,0,1.5,0.672,1.5,1.5s-0.672,1.5-1.5,1.5s-1.5-0.672-1.5-1.5S30.997,20.106,31.825,20.106z M29.013,17.419
	c0.552,0,1,0.448,1,1s-0.448,1-1,1s-1-0.448-1-1S28.461,17.419,29.013,17.419z M25.013,19.356c0.552,0,1,0.448,1,1s-0.448,1-1,1
	s-1-0.448-1-1S24.461,19.356,25.013,19.356z M19.513,20.356c0.552,0,1,0.448,1,1s-0.448,1-1,1s-1-0.448-1-1
	S18.961,20.356,19.513,20.356z M14.013,20.606c0-0.828-0.672-1.5-1.5-1.5c-0.496,0-0.933,0.244-1.206,0.616
	c0.074,0.067,0.155,0.127,0.224,0.197c0.598,0.598,1.192,1.258,1.806,1.939C13.743,21.59,14.013,21.13,14.013,20.606z M9.575,15.419
	c0.552,0,1,0.448,1,1c0,0.552-0.448,1-1,1s-1-0.448-1-1C8.575,15.867,9.023,15.419,9.575,15.419z M16.013,16.419
	c0.552,0,1,0.448,1,1s-0.448,1-1,1c-0.552,0-1-0.448-1-1S15.461,16.419,16.013,16.419z M24.513,12.106c0.828,0,1.5,0.672,1.5,1.5
	s-0.672,1.5-1.5,1.5s-1.5-0.672-1.5-1.5S23.685,12.106,24.513,12.106z M21.013,15.919c0.828,0,1.5,0.672,1.5,1.5s-0.672,1.5-1.5,1.5
	s-1.5-0.672-1.5-1.5S20.185,15.919,21.013,15.919z M12.013,9.106c0.552,0,1,0.448,1,1s-0.448,1-1,1s-1-0.448-1-1
	S11.461,9.106,12.013,9.106z M20.513,10.106c0.552,0,1,0.448,1,1s-0.448,1-1,1s-1-0.448-1-1S19.961,10.106,20.513,10.106z
	 M14.513,6.856c0.552,0,1,0.448,1,1s-0.448,1-1,1s-1-0.448-1-1S13.961,6.856,14.513,6.856z M7.575,11.606c0.552,0,1,0.448,1,1
	s-0.448,1-1,1s-1-0.448-1-1S7.023,11.606,7.575,11.606z M6.013,5.856c0.552,0,1,0.448,1,1s-0.448,1-1,1s-1-0.448-1-1
	S5.461,5.856,6.013,5.856z M28.575,13.106c0.552,0,1,0.448,1,1s-0.448,1-1,1s-1-0.448-1-1S28.023,13.106,28.575,13.106z
	 M33.325,16.419c0.552,0,1,0.448,1,1s-0.448,1-1,1s-1-0.448-1-1S32.773,16.419,33.325,16.419z M3.263,9.106
	c0.828,0,1.5,0.672,1.5,1.5s-0.672,1.5-1.5,1.5s-1.5-0.672-1.5-1.5S2.435,9.106,3.263,9.106z M10.575,4.356
	c0.828,0,1.5,0.672,1.5,1.5s-0.672,1.5-1.5,1.5s-1.5-0.672-1.5-1.5S9.747,4.356,10.575,4.356z M16.513,9.606
	c0.828,0,1.5,0.672,1.5,1.5s-0.672,1.5-1.5,1.5c-0.828,0-1.5-0.672-1.5-1.5S15.685,9.606,16.513,9.606z M19.513,26.106
	c-0.408,0-0.778,0.164-1.048,0.429c0.77,0.486,1.61,0.908,2.531,1.243c0.007-0.057,0.017-0.113,0.017-0.172
	C21.013,26.778,20.341,26.106,19.513,26.106z M4.763,15.606c0-0.552-0.448-1-1-1c-0.542,0-0.978,0.433-0.994,0.971
	c0.491,0.288,1.034,0.549,1.615,0.795C4.609,16.188,4.763,15.92,4.763,15.606z"/>
</svg>
