<?xml version="1.0" encoding="utf-8"?>
<!-- Generator: Adobe Illustrator 25.2.1, SVG Export Plug-In . SVG Version: 6.00 Build 0)  -->
<svg version="1.1" id="Layer_1" xmlns="http://www.w3.org/2000/svg" xmlns:xlink="http://www.w3.org/1999/xlink" x="0px" y="0px"
	 width="36px" height="36px" viewBox="0 0 36 36" enable-background="new 0 0 36 36" xml:space="preserve">
<path fill="#C1694F" d="M2,15.375c0,0-2-3.625-2-7.625s3.786-3.542,5-2.438c1.292,1.174,3,4.938,3,4.938l-1,0.688
	c0,0-0.833-1.51-1.833-2.823s-2.75-0.943-2.75,1.057S4,15,4,15L2,15.375z M34,15.375c0,0,2-3.625,2-7.625s-3.786-3.542-5-2.438
	c-1.292,1.174-3,4.938-3,4.938l1,0.688c0,0,0.833-1.51,1.833-2.823s2.75-0.943,2.75,1.057S32,15,32,15L34,15.375z"/>
<path fill="#C1694F" d="M33.238,16.762C33.238,21.496,30.381,32,18,32S2.762,21.496,2.762,16.762H33.238z"/>
<path fill="#D99E82" d="M35,13.556C35,20,28.041,22,18,22S1,20,1,13.556C1,10.222,7.438,8,18,8S35,10.222,35,13.556z"/>
<path fill="#D99E82" d="M17,27.99c-3.646-0.051-6.853-0.387-9.415-1.138c1.007,1.094,2.262,2.045,3.784,2.765
	c1.717,0.226,3.608,0.341,5.631,0.37V27.99z M19,27.99v1.998c2.022-0.029,3.913-0.143,5.631-0.37
	c1.522-0.721,2.777-1.671,3.784-2.765C25.853,27.602,22.646,27.938,19,27.99z M9.13,23.224c-1.77-0.38-3.312-0.906-4.55-1.628
	c0.282,0.861,0.648,1.728,1.11,2.576c1.299,0.572,2.848,0.984,4.583,1.276C9.822,24.721,9.445,23.973,9.13,23.224z M18,26
	c1.875,0,3.64-0.071,5.275-0.226c0.458-0.697,0.845-1.417,1.173-2.141C22.495,23.882,20.338,24,18,24
	c-2.442,0-4.684-0.129-6.703-0.403c0.327,0.727,0.716,1.448,1.174,2.148C14.176,25.919,16.026,26,18,26z M26.61,23.276
	c-0.317,0.746-0.695,1.492-1.147,2.215c1.844-0.293,3.483-0.718,4.848-1.32c0.462-0.848,0.828-1.715,1.11-2.576
	C30.122,22.353,28.489,22.894,26.61,23.276z"/>
<ellipse fill="#662113" cx="18" cy="13.556" rx="15.938" ry="4.444"/>
<path fill="#8A4633" d="M17,12.594c-3.646,0.051-6.853,0.387-9.415,1.138c1.007-1.094,2.262-2.045,3.784-2.765
	c1.717-0.226,3.608-0.341,5.631-0.37V12.594z M19,12.594v-1.998c2.022,0.029,3.913,0.143,5.631,0.37
	c1.522,0.721,2.777,1.671,3.784,2.765C25.853,12.981,22.646,12.645,19,12.594z M9.178,17.256c0.306-0.714,0.665-1.427,1.095-2.12
	c-1.716,0.288-3.247,0.695-4.537,1.257C6.726,16.725,7.886,17.016,9.178,17.256z M18,14.584c1.875,0,3.64,0.071,5.275,0.226
	c0.458,0.697,0.845,1.417,1.173,2.141c-1.953-0.249-4.109-0.367-6.448-0.367c-2.442,0-4.684,0.129-6.703,0.403
	c0.327-0.727,0.716-1.448,1.174-2.148C14.176,14.664,16.026,14.584,18,14.584z M25.463,15.092c0.449,0.719,0.825,1.46,1.14,2.201
	c1.378-0.247,2.617-0.55,3.661-0.9C28.908,15.802,27.287,15.382,25.463,15.092z"/>
</svg>
