<?xml version="1.0" encoding="utf-8"?>
<!-- Generator: Adobe Illustrator 25.2.1, SVG Export Plug-In . SVG Version: 6.00 Build 0)  -->
<svg version="1.1" id="Layer_1" xmlns="http://www.w3.org/2000/svg" xmlns:xlink="http://www.w3.org/1999/xlink" x="0px" y="0px"
	 width="36px" height="36px" viewBox="0 0 36 36" enable-background="new 0 0 36 36" xml:space="preserve">
<path fill="#662113" d="M23.508,7.15l3.931-6.394c0.464-0.682,1.401-0.862,2.084-0.398c0.682,0.464,0.862,1.401,0.398,2.084
	l-4.508,6.029L23.508,7.15z M27.435,10.118l6.059-6.022c0.611-0.554,1.564-0.508,2.119,0.103c0.554,0.611,0.508,1.564-0.103,2.119
	l-6.701,5.546L27.435,10.118z"/>
<path fill="#226699" d="M34,32h-7.441C29.888,29.068,32,24.785,32,20c0-8.837-7.163-16-16-16S0,11.163,0,20s7.163,16,16,16h18
	c1.1,0,2-0.9,2-2S35.1,32,34,32z"/>
<path fill="#55ACEE" d="M9.837,29.689c-2.814,0-4.662-0.339-4.799-0.365c-0.542-0.103-0.898-0.625-0.796-1.167
	c0.102-0.543,0.625-0.9,1.167-0.798c0.058,0.012,5.858,1.062,12.58-0.7c6.713-1.76,10.652-5.476,10.691-5.513
	c0.397-0.382,1.031-0.369,1.414,0.031c0.382,0.399,0.368,1.032-0.031,1.414c-0.175,0.167-4.357,4.111-11.566,6.003
	C15.225,29.451,12.192,29.689,9.837,29.689z M8.135,26.209c-3.432,0-5.944-0.38-6.127-0.408c-0.546-0.085-0.919-0.596-0.834-1.142
	c0.084-0.545,0.593-0.916,1.141-0.835c0.076,0.012,7.693,1.158,14.444-0.613c6.723-1.762,12.347-6.895,12.403-6.946
	c0.407-0.374,1.039-0.348,1.413,0.058s0.349,1.039-0.058,1.413c-0.243,0.225-6.051,5.523-13.251,7.411
	C14.111,25.974,10.838,26.209,8.135,26.209z M7.196,22.221c-3.104,0-5.268-0.348-5.429-0.374c-0.544-0.09-0.913-0.604-0.823-1.148
	c0.089-0.545,0.599-0.923,1.149-0.824c0.067,0.011,6.863,1.093,13.603-0.675c6.713-1.76,11.664-6.443,11.712-6.49
	c0.397-0.381,1.032-0.369,1.414,0.031c0.382,0.399,0.368,1.032-0.031,1.414c-0.216,0.207-5.379,5.091-12.588,6.981
	C12.962,21.983,9.759,22.221,7.196,22.221z"/>
<path fill="#55ACEE" d="M7.443,18.566c-0.479,0-0.903-0.346-0.985-0.834C5.276,10.701,7.91,7.346,8.022,7.207
	C8.37,6.778,9,6.711,9.429,7.058c0.427,0.346,0.495,0.971,0.154,1.4C9.54,8.514,7.416,11.364,8.43,17.4
	c0.091,0.544-0.276,1.06-0.821,1.152C7.554,18.562,7.498,18.566,7.443,18.566z M11.672,18.324c-0.501,0-0.934-0.377-0.992-0.887
	C9.75,9.233,12.21,5.763,12.316,5.619c0.327-0.446,0.951-0.543,1.397-0.216c0.443,0.324,0.541,0.945,0.222,1.39
	c-0.04,0.057-2.095,3.121-1.268,10.417c0.062,0.549-0.332,1.044-0.881,1.106C11.748,18.322,11.709,18.324,11.672,18.324z
	 M16.06,17.21c-0.497,0-0.928-0.371-0.991-0.876c-0.841-6.771,1.093-10.446,1.176-10.599c0.264-0.485,0.87-0.666,1.355-0.404
	c0.484,0.262,0.666,0.867,0.406,1.352c-0.035,0.068-1.704,3.358-0.953,9.405c0.068,0.548-0.321,1.048-0.869,1.116
	C16.143,17.208,16.102,17.21,16.06,17.21z M20.707,15.016c-0.486,0-0.912-0.354-0.987-0.849c-0.762-4.989,0.236-7.384,0.279-7.483
	c0.217-0.508,0.809-0.742,1.313-0.523c0.505,0.217,0.739,0.8,0.526,1.306c-0.021,0.054-0.8,2.091-0.143,6.398
	c0.084,0.546-0.291,1.056-0.837,1.14C20.808,15.013,20.757,15.016,20.707,15.016z M13.122,34.5c-0.125,0-0.252-0.023-0.375-0.073
	c-1.233-0.5-2.367-1.622-2.492-1.748c-0.389-0.392-0.386-1.023,0.005-1.413c0.391-0.389,1.024-0.387,1.414,0.004
	c0.263,0.264,1.102,1.011,1.825,1.304c0.512,0.208,0.758,0.791,0.551,1.303C13.892,34.265,13.517,34.5,13.122,34.5z M18.825,34.656
	c-0.175,0-0.353-0.046-0.514-0.143c-1.365-0.82-3.07-2.493-3.142-2.563c-0.394-0.388-0.398-1.021-0.011-1.414
	c0.388-0.395,1.021-0.398,1.415-0.012c0.016,0.016,1.608,1.577,2.768,2.274c0.474,0.285,0.627,0.899,0.343,1.372
	C19.496,34.483,19.165,34.656,18.825,34.656z M23.155,32.975c-0.16,0-0.322-0.038-0.474-0.12c-1.143-0.615-2.365-1.93-2.501-2.078
	c-0.374-0.406-0.347-1.038,0.06-1.412c0.407-0.371,1.038-0.346,1.413,0.06c0.307,0.334,1.26,1.284,1.978,1.671
	c0.486,0.262,0.668,0.868,0.405,1.354C23.855,32.784,23.512,32.975,23.155,32.975z M26.6,30.183c-0.153,0-0.309-0.035-0.454-0.109
	c-0.604-0.309-1.288-0.842-1.364-0.901c-0.434-0.341-0.509-0.97-0.168-1.403c0.341-0.433,0.97-0.51,1.403-0.169
	c0.165,0.129,0.674,0.506,1.039,0.692c0.492,0.251,0.687,0.854,0.436,1.346C27.314,29.983,26.964,30.183,26.6,30.183z M3.207,18.736
	c-0.492,0-0.921-0.364-0.989-0.866c-0.357-2.632,0.344-5.129,0.902-6.166c0.262-0.486,0.869-0.667,1.355-0.406
	c0.486,0.262,0.667,0.869,0.406,1.355c-0.353,0.654-0.983,2.724-0.681,4.948c0.074,0.547-0.309,1.051-0.856,1.125
	C3.297,18.733,3.252,18.736,3.207,18.736z M24.839,13.179c-0.471,0-0.891-0.334-0.981-0.813c-0.279-1.47-0.112-3.148,0.197-4.047
	c0.179-0.522,0.746-0.802,1.271-0.621c0.522,0.18,0.8,0.749,0.62,1.271c-0.187,0.542-0.348,1.839-0.123,3.023
	c0.103,0.542-0.253,1.066-0.796,1.169C24.963,13.174,24.9,13.179,24.839,13.179z"/>
</svg>
