<?xml version="1.0" encoding="utf-8"?>
<!-- Generator: Adobe Illustrator 25.2.1, SVG Export Plug-In . SVG Version: 6.00 Build 0)  -->
<svg version="1.1" id="Layer_1" xmlns="http://www.w3.org/2000/svg" xmlns:xlink="http://www.w3.org/1999/xlink" x="0px" y="0px"
	 width="36px" height="36px" viewBox="0 0 36 36" enable-background="new 0 0 36 36" xml:space="preserve">
<path fill="#C1694F" d="M19.175,16.825c-0.706-0.706-0.706-1.861,0-2.567L32.433,1C33.139,0.294,34.294,0.294,35,1
	s0.706,1.861,0,2.567L21.742,16.825C21.036,17.531,19.881,17.531,19.175,16.825z"/>
<path fill="#66757F" d="M15.12,17.256l1.865-1.865c0.941-0.941,2.48-0.941,3.42,0l0.204,0.204c0.941,0.941,0.941,2.48,0,3.42
	l-1.964,1.964L15.12,17.256z"/>
<path fill="#FFCC4D" d="M19.389,26.341c1.688-1.688,0.671-5.441-1.809-7.921s-6.233-3.497-7.921-1.809L0,26.16L9.84,36
	L19.389,26.341z"/>
<path fill="#FFAC33" d="M2.02,28.18l8.66-8.658l0.58,0.58L2.6,28.76L2.02,28.18z M3.76,29.92l8.66-8.659l0.58,0.58l-8.66,8.66
	L3.76,29.92z M5.5,31.66L14.158,23l0.58,0.58l-8.66,8.66L5.5,31.66z M7.24,33.4l8.659-8.66l0.58,0.58l-8.66,8.659L7.24,33.4z"/>
<path fill="#55ACEE" d="M9.875,16.43c-0.073,0.059-0.149,0.114-0.216,0.181L7.46,18.779l9.761,9.761l2.167-2.199
	c0.067-0.067,0.123-0.143,0.181-0.216L9.875,16.43z"/>
<path fill="#226699" d="M8.882,18.221l0.235-0.568l9.225,9.224l-0.572,0.232L8.882,18.221z"/>
</svg>
