<?xml version="1.0" encoding="utf-8"?>
<!-- Generator: Adobe Illustrator 25.2.1, SVG Export Plug-In . SVG Version: 6.00 Build 0)  -->
<svg version="1.1" id="Layer_1" xmlns="http://www.w3.org/2000/svg" xmlns:xlink="http://www.w3.org/1999/xlink" x="0px" y="0px"
	 width="36px" height="36px" viewBox="0 0 36 36" enable-background="new 0 0 36 36" xml:space="preserve">
<path fill="#99AAB5" d="M33.02,2.978c-3.422-3.422-8.217-4.173-13.35,0.96c-1.131,1.131-1.924,2.197-2.441,3.211
	c-0.26,0.509-0.29,1.085-0.126,1.607c-6.66,5.614-12.954,13.887-15.048,16.927C0.799,26.758,0,28.353,0,30.136
	C0,33.375,2.626,36,5.864,36c1.689,0,3.208-0.719,4.278-1.862c2.525-1.559,11.535-8.192,17.572-15.153
	c0.384,0.032,0.776-0.031,1.136-0.215c1.014-0.518,2.08-1.31,3.211-2.441C37.194,11.196,36.442,6.4,33.02,2.978z M5.864,34.325
	c-2.313,0-4.189-1.875-4.189-4.189c0-2.313,1.875-4.189,4.189-4.189c2.314,0,4.189,1.875,4.189,4.189
	C10.053,32.449,8.178,34.325,5.864,34.325z M11.632,31.165c0.059-0.335,0.096-0.677,0.096-1.029c0-3.239-2.625-5.864-5.864-5.864
	c-0.295,0-0.582,0.029-0.865,0.071c2.803-3.725,7.852-9.879,13.046-14.284l8.19,8.19C21.559,23.554,15.221,28.564,11.632,31.165z"/>
<path fill="#66757F" d="M30.544,9.849c-0.616,2.499-4.393,4.096-6.195,0.878c-1.848,2.601,0,5.214,1.182,6.816
	c-2.072-1.876-5.127-4.89-7.222-7.222c2.047,1.467,3.85,1.516,3.85,0.851c0-2.42,2.133-5.887,4.552-5.887S31.123,7.5,30.544,9.849z"
	/>
</svg>
