<?xml version="1.0" encoding="utf-8"?>
<!-- Generator: Adobe Illustrator 25.2.1, SVG Export Plug-In . SVG Version: 6.00 Build 0)  -->
<svg version="1.1" id="Layer_1" xmlns="http://www.w3.org/2000/svg" xmlns:xlink="http://www.w3.org/1999/xlink" x="0px" y="0px"
	 width="36px" height="36px" viewBox="0 0 36 36" enable-background="new 0 0 36 36" xml:space="preserve">
<path fill="#F4ABBA" d="M24.625,19.219L20,14.32V3c0-1.104-0.896-2-2-2s-2,0.896-2,2v11.32l-4.625,4.9l1.139,1.084
	c0.001,0,3.487-3.731,5.487-3.731s5.45,3.631,5.45,3.631L24.625,19.219z"/>
<path fill="#DD2E44" d="M1.717,32.489c0.633,1.762,6.119,2.911,10.158,0.416c1.691-1.044,2.792-2.257,2.495-3.98
	c-0.208-1.21-0.329-2.271-0.37-3.381C14,25.544,2.119,27.794,1.717,32.489z"/>
<path fill="#DD2E44" d="M34.211,33.142c-0.614,1.628-5.371,2.294-8.673,0.119c-2.128-1.401-3.455-3.863-3.03-6.772
	c0.244-1.667,0.352-2.952,0.373-4.044C22.881,22.445,34.487,27.78,34.211,33.142z"/>
<path fill="#EA596E" d="M34.33,21.617c-0.827-4.827-2.388-9.3-4.871-11.584C25.003,5.934,22.04,6.298,22,9.075
	c-0.076,5.329,0.342,7.732,0.628,9.927C21.521,17.895,19.418,16,18,16c-1.047,0-2.468,1.036-3.587,2.023
	c0.146-3.548-0.258-6.397-1.053-9c-0.811-2.656-3.881-3.427-8.079,2.139c-1.842,2.442-3.555,6.594-3.499,10.737
	c0.054,3.996-1.431,6.788-0.065,10.59c1.545-2.436,6,0.178,10.04-2.317c1.691-1.044,2.28-3.56,2.242-4.693
	c-0.049-1.464,0.041-3.017,0.253-5.109c0.045-0.446,0.075-0.872,0.104-1.297C15.484,18.071,16.935,17,18,17
	c1.475,0,3.695,2.055,4.76,3.134c0.072,0.713,0.12,1.452,0.12,2.311c0,2.142,2.717,1.132,2.598,4.34
	c-0.089,2.401,0.337,2.845,1.426,3.327c3.624,1.604,7.01-0.059,7.307,3.03C34.717,31.799,35.162,26.473,34.33,21.617z"/>
<path fill="#EA596E" d="M19.75,3.516c-0.128,0-0.255-0.052-0.348-0.155C19.39,3.348,18.958,2.91,18,2.91s-1.389,0.437-1.407,0.456
	c-0.177,0.185-0.471,0.196-0.658,0.022c-0.187-0.174-0.203-0.462-0.032-0.652c0.07-0.078,0.723-0.761,2.097-0.761
	s2.027,0.683,2.098,0.76c0.173,0.192,0.157,0.488-0.035,0.661C19.974,3.476,19.861,3.516,19.75,3.516z"/>
<path fill="#EA596E" d="M19.75,6.516c-0.128,0-0.255-0.052-0.348-0.155C19.39,6.348,18.958,5.91,18,5.91s-1.389,0.437-1.407,0.456
	c-0.177,0.185-0.471,0.196-0.658,0.022s-0.203-0.462-0.032-0.652c0.07-0.078,0.723-0.761,2.097-0.761s2.027,0.683,2.098,0.76
	c0.173,0.192,0.157,0.488-0.035,0.661C19.974,6.476,19.861,6.516,19.75,6.516z"/>
<path fill="#EA596E" d="M19.75,9.516c-0.128,0-0.255-0.052-0.348-0.155C19.39,9.348,18.958,8.91,18,8.91s-1.389,0.437-1.407,0.456
	c-0.177,0.184-0.471,0.196-0.658,0.022c-0.187-0.174-0.203-0.462-0.032-0.652c0.07-0.078,0.723-0.761,2.097-0.761
	s2.027,0.683,2.098,0.76c0.173,0.192,0.157,0.488-0.035,0.661C19.974,9.476,19.861,9.516,19.75,9.516z"/>
<path fill="#EA596E" d="M19.75,12.516c-0.128,0-0.255-0.052-0.348-0.155C19.39,12.348,18.958,11.91,18,11.91
	s-1.389,0.437-1.407,0.456c-0.177,0.185-0.471,0.196-0.658,0.022s-0.203-0.462-0.032-0.652c0.07-0.078,0.723-0.761,2.097-0.761
	s2.027,0.683,2.098,0.76c0.173,0.192,0.157,0.488-0.035,0.661C19.974,12.476,19.861,12.516,19.75,12.516z"/>
</svg>
