<?xml version="1.0" encoding="utf-8"?>
<!-- Generator: Adobe Illustrator 25.2.1, SVG Export Plug-In . SVG Version: 6.00 Build 0)  -->
<svg version="1.1" id="Layer_1" xmlns="http://www.w3.org/2000/svg" xmlns:xlink="http://www.w3.org/1999/xlink" x="0px" y="0px"
	 width="36px" height="36px" viewBox="0 0 36 36" enable-background="new 0 0 36 36" xml:space="preserve">
<path fill="#F4ABBA" d="M11.885,12.863c0.117-2.127,0.233-2.966,0.1-4.537c-0.147-1.44-0.397-2.495-0.75-3.522
	S7.922,4.178,8.276,5.942c0.353,1.764,0.593,6.809,0.451,8.45C10.275,13.408,11.885,12.863,11.885,12.863z"/>
<path fill="#BE1931" d="M10.275,13.408c0,0-2.028,12.45,9.97,19.305c0,0,5.783,2.714,9.283-0.053
	c1.07-2.139,0.414-13.672-2.795-17.95C24.419,11.625,15.153,10.969,10.275,13.408z"/>
<path fill="#A0041E" d="M10.275,13.408c-2.139,1.07-4.278,3.209-4.278,6.417c0,8.735,9.83,13.581,13.353,14.415
	c6.275,1.486,9.108,0.559,10.177-1.58c-1.783,1.113-9.316-0.614-13.309-4.172c-4.187-3.732-6.074-10.238-3.383-13.552
	c0.071-1.036-0.118-1.587-0.118-2.416C11.831,12.748,11.004,13.043,10.275,13.408z"/>
<path fill="#EA596E" d="M12.836,14.936c-1.413-2.139-2.156-6.05,0.648-9.015c2.65-2.802,7.77-2.842,10.224,0.973
	c0.26,0.404,0.462,0.857,0.617,1.342l-6.394,5.731C16.489,16.299,13.059,15.273,12.836,14.936z"/>
<path fill="#F4ABBA" d="M23.951,17.58c1.156-1.632,1.156-4.168,1.156-4.168s0.323-1.489,3.701-0.538
	c0.33,0.093,1.339-1.479,0.707-1.718c-2.296-0.869-3.93-0.309-3.93-0.309s1.129-0.835,2.772-1.033
	c0.652-0.079,0.123-1.37-0.525-1.357c-0.7,0.014-1.337,0.184-2.092,0.514c-0.353,0.154-0.72-0.109-0.852-0.24
	c-1.988-1.975-4.223-1.689-5.587-1.083c-1.455,0.647-2.06,2.478-1.165,3.718s0.013,2.178-0.543,3.169
	C16.693,16.137,22.424,19.736,23.951,17.58z"/>
<path fill="#EA596E" d="M15.252,6.673c-0.744-1.708-1.59-2.473-2.694-3.533s0.751-2.384,1.943-1.236s2.296,3.312,2.473,3.842
	S15.696,7.691,15.252,6.673z"/>
<path fill="#EA596E" d="M16.219,4.228c1.134-0.593,1.506-2.235,1.594-2.765s1.722-0.574,1.545,0.574s0.013,1.919,0.013,1.919
	s0.87-1.483,1.753-2.234s1.896,0.443,1.41,1.142s-0.579,1.98-0.35,2.433s-2.242,1.022-3.815,0.713
	C16.798,5.702,16.219,4.228,16.219,4.228z"/>
<path fill="#F4ABBA" d="M12.718,10.765l-0.031-0.001c-0.276-0.017-0.485-0.254-0.468-0.53c0.17-2.752,1.996-4.955,4.651-5.611
	c3.382-0.833,5.454,1.144,5.54,1.229c0.197,0.193,0.201,0.509,0.008,0.707c-0.191,0.196-0.508,0.201-0.705,0.009
	C21.642,6.5,19.935,4.897,17.11,5.594c-2.256,0.558-3.748,2.359-3.893,4.702C13.2,10.561,12.98,10.765,12.718,10.765z M15.242,4.634
	c-0.173,0-0.341-0.089-0.434-0.25c-0.006-0.011-0.649-1.11-1.576-1.705c-0.232-0.149-0.3-0.458-0.151-0.69
	c0.149-0.233,0.458-0.301,0.691-0.151c1.135,0.729,1.872,1.994,1.902,2.047c0.138,0.239,0.056,0.544-0.183,0.682
	C15.413,4.612,15.327,4.634,15.242,4.634z M18.119,3.924c-0.051,0-0.102-0.007-0.153-0.024c-0.263-0.084-0.407-0.365-0.324-0.628
	c0.001-0.005,0.174-0.555,0.278-1.513c0.03-0.275,0.281-0.474,0.551-0.443c0.275,0.03,0.473,0.276,0.443,0.551
	c-0.116,1.07-0.312,1.686-0.32,1.711C18.526,3.79,18.33,3.924,18.119,3.924z M20.562,4.101c-0.091,0-0.183-0.025-0.266-0.077
	c-0.233-0.147-0.304-0.455-0.157-0.688c0.022-0.035,0.542-0.854,1.407-1.481c0.223-0.161,0.536-0.112,0.698,0.111
	s0.113,0.536-0.11,0.698c-0.704,0.51-1.145,1.198-1.148,1.205C20.89,4.019,20.728,4.101,20.562,4.101z"/>
<path fill="#F7DAE2" d="M24.106,14.346c-0.028,0-0.057-0.002-0.086-0.007c-0.271-0.047-0.454-0.305-0.408-0.577l0.046-0.263
	c0.355-2.029,0.662-3.782-2.016-4.932c-0.254-0.109-0.371-0.403-0.262-0.657c0.108-0.254,0.403-0.372,0.656-0.262
	c3.404,1.461,2.962,3.991,2.606,6.023l-0.045,0.259C24.557,14.174,24.345,14.346,24.106,14.346z M25.804,10.024
	c-0.141,0-0.275-0.08-0.339-0.215c-0.089-0.188-0.009-0.411,0.179-0.499c0.049-0.023,1.217-0.571,2.091-0.594
	c0.208,0.029,0.379,0.159,0.385,0.365c0.005,0.207-0.158,0.379-0.365,0.385c-0.715,0.019-1.779,0.517-1.79,0.522
	C25.912,10.012,25.857,10.024,25.804,10.024z M28.744,12.195c-0.054,0-0.108-0.008-0.161-0.027c-1.156-0.395-2.344-0.11-2.355-0.107
	c-0.271,0.066-0.539-0.098-0.604-0.365c-0.066-0.268,0.096-0.538,0.363-0.605c0.06-0.015,1.477-0.361,2.919,0.131
	c0.262,0.089,0.401,0.373,0.312,0.635C29.146,12.064,28.952,12.195,28.744,12.195z M10.901,12.612c-0.276,0-0.5-0.224-0.5-0.5
	c0-0.043-0.009-4.348-0.731-6.565c-0.086-0.263,0.058-0.545,0.32-0.63c0.261-0.086,0.544,0.058,0.63,0.321
	c0.771,2.369,0.78,6.691,0.78,6.875C11.401,12.388,11.177,12.612,10.901,12.612z"/>
<g>
	<path fill="#D84864" d="M14.843,20.463c-0.694-0.295-1.357,0.068-1.941,0.385c-0.395,0.215-0.802,0.438-1.023,0.33
		c-0.73-0.392-0.892-0.986-0.923-1.307c-0.042-0.431,0.099-0.847,0.36-1.059c0.064-0.052,0.106-0.118,0.137-0.189
		c0.251-0.189,0.487-0.41,0.696-0.682c0.021,0.029,0.035,0.06,0.057,0.089c0.418,0.516,0.978,0.807,1.534,0.807
		c0.078,0,0.156-0.006,0.234-0.017c0.273-0.041,0.461-0.296,0.42-0.569c-0.041-0.273-0.288-0.455-0.569-0.42
		c-0.329,0.047-0.648-0.191-0.842-0.43c-0.15-0.185-0.242-0.398-0.272-0.583c0.112-0.359,0.2-0.762,0.239-1.253
		c0.022-0.276-0.183-0.517-0.458-0.539c-0.276-0.018-0.517,0.183-0.539,0.458c-0.016,0.204-0.043,0.385-0.073,0.556
		c-0.041,0.045-0.076,0.098-0.099,0.159c-0.059,0.157-0.08,0.328-0.08,0.503c-0.326,0.858-0.916,1.208-1.659,1.637
		c-0.86,0.497-1.836,1.061-2.497,2.53c-0.739,1.641-0.206,4.156-0.183,4.262c0.05,0.234,0.258,0.394,0.488,0.394
		c0.035,0,0.07-0.004,0.108-0.011c0.27-0.058,0.441-0.324,0.383-0.594c-0.002-0.012-0.115-0.555-0.164-1.26
		c0.303,0.309,0.678,0.562,1.133,0.694c0.508,0.149,1.722,1.483,1.555,2.149c-0.303,1.213,0.389,2.476,1.513,2.757
		c0.041,0.01,0.081,0.015,0.122,0.015c0.224,0,0.428-0.151,0.485-0.38c0.068-0.267-0.095-0.539-0.363-0.606
		c-0.522-0.13-0.974-0.797-0.787-1.544c0.331-1.324-1.323-3.082-2.245-3.352c-0.964-0.28-1.294-1.301-1.2-1.771
		c0.009-0.046,0.003-0.091,0-0.135c0.024-0.068,0.039-0.143,0.068-0.207c0.399-0.888,0.928-1.353,1.508-1.728
		c-0.01,0.137-0.02,0.275-0.006,0.416c0.086,0.886,0.616,1.652,1.455,2.099c1.493,0.797,1.914,1.299,1.665,1.989
		c-0.094,0.26,0.041,0.546,0.301,0.64c0.056,0.019,0.113,0.029,0.169,0.029c0.204,0,0.397-0.127,0.471-0.332
		c0.408-1.132-0.214-1.932-0.964-2.495c0.111-0.056,0.218-0.114,0.321-0.17c0.407-0.221,0.827-0.45,1.077-0.343
		c0.255,0.106,0.548-0.012,0.655-0.268C15.217,20.863,15.097,20.57,14.843,20.463z"/>
	<path fill="#D84864" d="M28.461,18.834c-0.488-1.187-1.227-1.923-2.027-2.02c-0.457-0.054-1.112,0.061-1.738,0.914
		c-0.365,0.498-1.594,0.648-2.519,0.502c-0.007-0.001-0.013,0.002-0.02,0.001c-0.006-0.001-0.011-0.004-0.017-0.005
		c-0.022-0.002-0.042,0.007-0.063,0.008c-0.042,0.002-0.082,0.003-0.121,0.015c-0.016,0.005-0.03,0.015-0.045,0.021
		c-0.044,0.019-0.087,0.039-0.124,0.069c-0.013,0.011-0.022,0.025-0.034,0.036c-0.033,0.033-0.064,0.066-0.087,0.107
		c-0.012,0.021-0.016,0.044-0.025,0.067c-0.012,0.032-0.03,0.061-0.036,0.097c-0.001,0.008,0.002,0.016,0.001,0.024
		c-0.001,0.005-0.004,0.009-0.004,0.014c-0.024,0.298-0.026,0.569-0.02,0.829c-0.043,0.068-0.075,0.144-0.081,0.229
		c-0.032,0.47-0.76,1.255-1.598,1.335c-0.612,0.058-1.102,0.433-1.348,1.031c-0.265,0.645-0.179,1.42,0.211,1.887
		c0.099,0.118,0.241,0.18,0.384,0.18c0.114,0,0.227-0.038,0.321-0.117c0.211-0.177,0.24-0.492,0.063-0.704
		c-0.132-0.158-0.191-0.534-0.054-0.866c0.105-0.253,0.279-0.393,0.518-0.415c0.68-0.066,1.351-0.443,1.831-0.942
		c0.157,0.529,0.362,0.965,0.549,1.353c0.447,0.928,0.743,1.541,0.116,2.935c-0.093,0.208-0.223,0.405-0.365,0.597
		c-0.079,0.052-0.15,0.12-0.19,0.214c-0.005,0.012-0.005,0.025-0.01,0.037c-0.784,0.916-1.901,1.567-1.917,1.576
		c-0.24,0.137-0.324,0.443-0.187,0.682c0.093,0.162,0.262,0.253,0.436,0.253c0.083,0,0.168-0.021,0.247-0.065
		c0.048-0.028,0.704-0.413,1.404-1.02c0.237,0.883,0.812,1.734,1.207,2.156c0,0,0.001,0.001,0.001,0.001
		c0.005,0.005,0.011,0.013,0.016,0.018c0.669,0.706,1.079,1.793,0.399,2.512c-0.189,0.201-0.18,0.518,0.02,0.707
		c0.097,0.092,0.221,0.137,0.344,0.137c0.133,0,0.265-0.053,0.363-0.158c0.755-0.8,0.81-1.95,0.227-3.02
		c0.091-0.021,0.181-0.042,0.268-0.064c0.365-0.093,0.71-0.182,1.049-0.08c0.389,0.117,0.615,0.469,0.697,0.759
		c0.07,0.248,0.038,0.457-0.025,0.528c-0.186,0.206-0.169,0.521,0.036,0.706c0.096,0.087,0.216,0.129,0.335,0.129
		c0.136,0,0.272-0.055,0.371-0.165c0.313-0.349,0.405-0.898,0.246-1.468c-0.199-0.708-0.712-1.248-1.373-1.446
		c-0.605-0.185-1.149-0.043-1.585,0.068c-0.341,0.087-0.56,0.125-0.728,0.07c-0.536-0.613-1.098-1.721-0.944-2.353
		c0.222-0.282,0.426-0.579,0.57-0.9c0.127-0.283,0.215-0.539,0.285-0.784c0.51,0.679,1.147,1.254,1.75,1.325
		c0.221,0.026,0.468,0.204,0.659,0.475c0.22,0.313,0.3,0.654,0.262,0.816c-0.063,0.269,0.105,0.538,0.375,0.6
		c0.037,0.009,0.075,0.013,0.112,0.013c0.227,0,0.433-0.156,0.488-0.388c0.109-0.474-0.051-1.094-0.419-1.616
		c-0.362-0.516-0.845-0.833-1.359-0.894c-0.531-0.061-1.683-1.577-1.869-2.456c-0.018-0.088-0.064-0.159-0.119-0.222
		c-0.089-0.219-0.189-0.433-0.293-0.648c-0.354-0.734-0.716-1.493-0.702-2.781c0.951,0.048,2.306-0.106,2.925-0.95
		c0.188-0.256,0.471-0.55,0.811-0.513c0.418,0.051,0.888,0.591,1.225,1.408c0.079,0.194,0.266,0.31,0.462,0.31
		c0.063,0,0.128-0.011,0.19-0.039C28.444,19.382,28.566,19.089,28.461,18.834z"/>
</g>
</svg>
