<?xml version="1.0" encoding="utf-8"?>
<!-- Generator: Adobe Illustrator 25.2.1, SVG Export Plug-In . SVG Version: 6.00 Build 0)  -->
<svg version="1.1" id="Layer_1" xmlns="http://www.w3.org/2000/svg" xmlns:xlink="http://www.w3.org/1999/xlink" x="0px" y="0px"
	 width="36px" height="36px" viewBox="0 0 36 36" enable-background="new 0 0 36 36" xml:space="preserve">
<path fill="#3E721D" d="M16,10c-1-3,0-8,4-9s6,1,6,2s-1,3-2,2s-3-1-4,1s0,4,0,4H16z"/>
<path fill="#5C913B" d="M28.055,8.931c-3.811,0-7.307,1.09-10.055,2.902c-2.748-1.812-6.244-2.902-10.055-2.902
	c-5.142,0-5.315,3.976-4.562,7.048c0.542,2.206,1.04,3.023,1.562,5.987C6.184,29,5.184,37,12.945,34
	c1.977-0.764,3.653-1.448,5.055-2.157c1.402,0.709,3.078,1.393,5.055,2.157c7.761,3,6.761-5,8-12.034
	c0.522-2.964,1.02-3.781,1.562-5.987C33.371,12.908,33.198,8.931,28.055,8.931z"/>
<path fill="#77B255" d="M24.971,22.431C24.971,29.887,24.05,35,18,35s-6.971-5.113-6.971-12.569S6.049,8,18,8
	S24.971,14.975,24.971,22.431z"/>
</svg>
