<?xml version="1.0" encoding="utf-8"?>
<!-- Generator: Adobe Illustrator 25.2.1, SVG Export Plug-In . SVG Version: 6.00 Build 0)  -->
<svg version="1.1" id="Layer_1" xmlns="http://www.w3.org/2000/svg" xmlns:xlink="http://www.w3.org/1999/xlink" x="0px" y="0px"
	 width="36px" height="36px" viewBox="0 0 36 36" enable-background="new 0 0 36 36" xml:space="preserve">
<ellipse fill="#226699" cx="17.5" cy="31.5" rx="8" ry="2"/>
<path fill="#3B88C3" d="M11.173,31.777c0,0,3.297,0.757,6.371,0.668c2.539-0.074,5.614-0.356,6.505-0.757
	c0,0-1.069,1.381-6.416,1.381S11.173,31.777,11.173,31.777z"/>
<ellipse fill="#226699" cx="17.5" cy="15.25" rx="8.5" ry="2.25"/>
<path fill="#3B88C3" d="M33.582,16.654c-0.999,0.057-1.513,0.734-2.408,2.783c-0.908,2.078-1.786,2.57-2.478,2.492
	C27.563,16.535,23.25,12,17.5,12c-4.222,0-7.674,2.445-9.66,5.88c-0.35-0.221-0.625-0.438-0.887-0.651
	c-0.702-0.567-1.365-1.104-2.911-1.104c-2.544,0-3.875,2.453-3.875,4.875c0,1.812,0.691,4.789,2.641,6.311
	c0.883,0.689,1.909,1.04,3.021,1.04c0.354,0,0.719-0.047,1.087-0.119C8.936,31.532,13.911,32,17.5,32
	c3.68,0,8.822-0.486,10.736-4.018c3.525-0.265,3.899-3.577,4.32-5.382c0.583-2.496,1.593-3.972,2.098-4.234
	C35.767,17.787,37.1,16.452,33.582,16.654z M3.884,25.611c-1.359-1.06-1.967-3.08-1.967-4.611c0-1.505,0.665-2.759,2.125-2.759
	c0.927,0,1.204,0.224,1.811,0.715c0.29,0.235,0.638,0.51,1.096,0.796C6.339,21.317,6,23.009,6,24.727
	c0,0.554,0.066,1.052,0.16,1.526C5.306,26.328,4.539,26.123,3.884,25.611z"/>
<path fill="#226699" d="M29.485,26.965c-0.489,0.039-1.069-0.757-1.069-0.757c-0.847,2.049-3.342,4.589-11.139,4.589
	c-6.995,0-9.579-2.139-10.96-3.965c0,0,0.33,1.202-1.782,0.757c-0.648-0.137-1.926-0.768-2.966-1.658
	c0.34,0.524,0.749,0.998,1.239,1.38c0.883,0.689,1.91,1.04,3.021,1.04c0.354,0,0.718-0.047,1.087-0.118
	c2.02,3.3,6.932,3.847,10.521,3.847c3.679,0,8.883-0.566,10.798-4.097c3.525-0.265,3.898-3.577,4.32-5.382
	c0.439-1.88,1.12-3.18,1.645-3.82c-0.03,0.013-0.051,0.016-0.082,0.031C32.292,19.703,32.247,26.742,29.485,26.965z M4.891,17.698
	c-0.64-0.362-1.96-0.223-2.629,0.891c-0.442,0.736-0.471,1.642-0.34,2.316c0.028-1.462,0.691-2.664,2.12-2.664
	c0.926,0,1.204,0.224,1.811,0.715c0.289,0.234,0.636,0.508,1.092,0.793l0.174-0.492C7.119,19.257,5.916,18.277,4.891,17.698z
	 M24.554,13.994C24.838,14.153,25,14.322,25,14.5c0,0.828-3.358,1.5-7.5,1.5S10,15.328,10,14.5c0-0.178,0.162-0.347,0.446-0.506
	C9.533,14.353,9,14.785,9,15.25c0,1.243,3.806,2.25,8.5,2.25s8.5-1.007,8.5-2.25C26,14.785,25.467,14.353,24.554,13.994z"/>
<ellipse fill="#226699" cx="17.5" cy="11" rx="2.8" ry="1.5"/>
<ellipse fill="#226699" cx="34.364" cy="17.141" rx="1.047" ry="0.334"/>
</svg>
