<?xml version="1.0" encoding="utf-8"?>
<!-- Generator: Adobe Illustrator 25.2.1, SVG Export Plug-In . SVG Version: 6.00 Build 0)  -->
<svg version="1.1" id="Layer_1" xmlns="http://www.w3.org/2000/svg" xmlns:xlink="http://www.w3.org/1999/xlink" x="0px" y="0px"
	 width="36px" height="36px" viewBox="0 0 36 36" enable-background="new 0 0 36 36" xml:space="preserve">
<path fill="#909B50" d="M13.241,23.993c1.274-1.617,4.455-0.891,6.416,0.535s3.089,4.337,1.901,5.941
	c-1.188,1.604-4.158,1.96-6.416,0.416C12.884,29.34,11.696,25.954,13.241,23.993z M17.696,3.201c2.802,0.342,3.208,2.97,2.792,5.703
	s-2.436,5.347-4.693,5.228s-3.149-3.446-2.792-6.238S15.261,2.904,17.696,3.201z"/>
<path fill="#C1694F" d="M23.607,15.324c-0.21-0.075-1.549-0.529-3.033-0.684c1.079-0.76,1.916-1.347,1.937-1.362l-0.717-1.024
	c-0.178,0.125-3.724,2.612-5.655,3.997c0.064-0.885,0.293-2.147,0.474-2.6c0.128-0.32-0.028-0.684-0.348-0.812
	c-0.319-0.129-0.684,0.027-0.812,0.348c-0.169,0.42-0.722,2.717-0.539,3.98c-0.438,0.374-0.906,0.855-1.434,1.402
	c-1.098,1.138-2.466,2.554-4.036,3.387c-0.002,0.001-0.003,0.002-0.005,0.003c-0.005,0.003-0.01,0.005-0.015,0.008
	c-0.423,0.225-0.873,0.492-1.338,0.798c-0.056-0.924-0.112-2.257-0.043-3.182l-1.247-0.091c-0.099,1.334,0.037,3.367,0.095,4.134
	c-2.156,1.694-4.479,4.324-6.167,8.385c-0.133,0.319,0.018,0.684,0.337,0.817C1.139,32.86,1.22,32.876,1.3,32.876
	c0.245,0,0.477-0.145,0.579-0.383c2.212-5.32,5.555-8.02,8.019-9.359c0.79,0.003,2.263,0.946,3.07,1.471l0.231,0.15
	c0.105,0.069,0.222,0.101,0.339,0.101c0.204,0,0.405-0.1,0.525-0.286c0.188-0.29,0.105-0.676-0.185-0.864l-0.228-0.148
	c-0.804-0.525-1.588-1.008-2.32-1.323c1.176-0.861,2.192-1.908,3.05-2.796c0.227-0.235,0.438-0.451,0.642-0.656
	c0.027-0.002,0.052,0.004,0.079-0.002c1.322-0.3,2.73,0.115,4.306,1.263l0.735-1.012c-1.245-0.905-2.426-1.414-3.571-1.552
	c0.58-0.418,1.373-0.982,2.197-1.565c1.402-0.265,3.427,0.236,4.423,0.588L23.607,15.324z"/>
<path fill="#3E721D" d="M34.449,2.845c2.5,1.136-1.426,5.406-3.624,6.653c-2.198,1.248-10.455,5.406-10.99,5.049
	s3.089-6.772,6.713-9.148S33.142,2.251,34.449,2.845z M18.944,18.587c1.344-0.504,6.772,1.366,9.386,3.149
	c2.614,1.782,4.04,4.634,2.911,5.584s-5.822,0.238-8.792-2.436S17.993,18.944,18.944,18.587z M9.617,2.964
	c2.225-0.384,2.851,4.218,2.139,7.782S7.954,21.38,7.419,21.498c-0.535,0.119-2.911-5.822-2.495-10.158
	C5.34,7.003,7.894,3.261,9.617,2.964z"/>
<path fill="#909B50" d="M32.341,19.492c-0.8,2.707-3.459,2.674-6.086,1.812s-4.871-3.285-4.381-5.492s3.918-2.536,6.613-1.724
	C31.182,14.901,33.036,17.139,32.341,19.492z"/>
<path fill="#C7CC62" d="M27.109,14.505c1.928,0.463,3.149,1.248,3.505,1.842c0.356,0.594-0.059,1.248-0.95,0.594
	c-0.891-0.653-3.03-1.485-4.099-1.663C24.495,15.099,25.624,14.148,27.109,14.505z M16,4.228c1.399-0.646,2.673,0,2.614,0.416
	s-1.842,0-2.673,0.891s-1.96,1.307-1.723,0.653S15.228,4.584,16,4.228z M17.544,24.247c1.432,0.102,2.97,2.198,2.436,2.614
	s-1.663-1.663-2.733-1.901C16.178,24.723,15.881,24.129,17.544,24.247z"/>
</svg>
