<?xml version="1.0" encoding="utf-8"?>
<!-- Generator: Adobe Illustrator 25.2.1, SVG Export Plug-In . SVG Version: 6.00 Build 0)  -->
<svg version="1.1" id="Layer_1" xmlns="http://www.w3.org/2000/svg" xmlns:xlink="http://www.w3.org/1999/xlink" x="0px" y="0px"
	 width="36px" height="36px" viewBox="0 0 36 36" enable-background="new 0 0 36 36" xml:space="preserve">
<path fill="#292F33" d="M12,31.001v1h0.014C12.167,33.625,17.468,34.93,24,34.93s11.833-1.305,11.986-2.929H36v-1H12z"/>
<ellipse fill="#66757F" cx="24" cy="31.018" rx="12" ry="3"/>
<path fill="#99AAB5" d="M18,27.52v3.481c0,0.828,2.686,1.5,6,1.5s6-0.672,6-1.5V27.52H18z"/>
<ellipse fill="#CCD6DD" cx="24" cy="27.5" rx="6" ry="1.5"/>
<ellipse fill="#FFAC33" cx="24" cy="27.5" rx="5" ry="1"/>
<path fill="#FFE8B6" d="M19.507,27.931C20.315,28.267,22.015,28.5,24,28.5s3.685-0.233,4.493-0.569
	c-0.807-0.335-2.507-0.569-4.493-0.569S20.315,27.596,19.507,27.931z"/>
<path fill="#292F33" d="M14,21.001c-0.376,0.827-0.839,9.111-0.839,9.762s0.434,0.521,2.257,0.477
	c0.738-0.018,0.608-0.651,0.738-3.993c0.056-1.437,0.304-4.297,0.521-5.078C16.893,21.388,14.492,19.919,14,21.001z M33.993,21.001
	c0.376,0.827,0.839,9.111,0.839,9.762s-0.434,0.521-2.257,0.477c-0.738-0.018-0.608-0.651-0.738-3.993
	c-0.056-1.437-0.304-4.297-0.521-5.078S33.501,19.919,33.993,21.001z M24,33.237c-0.37,0-0.673-0.303-0.673-0.673v-9.722h1.346
	v9.722C24.673,32.934,24.37,33.237,24,33.237z"/>
<ellipse fill="#292F33" cx="24" cy="22.001" rx="10" ry="2"/>
<ellipse fill="#66757F" cx="24" cy="21.001" rx="10" ry="2"/>
<ellipse fill="#292F33" cx="24" cy="20.401" rx="8" ry="1.4"/>
<path fill="#BE1931" d="M35.939,9.001H12.031c0,0.327-0.006,0.668-0.012,1.014c-0.036,0.799-1.103,0.444-1.994,0.289
	c-0.007-0.001-0.013,0.002-0.019,0.001c-0.035-0.007-0.067-0.022-0.103-0.027L2.47,9.08c-1.087-0.175-2.105,0.732-2.262,2.017
	l-0.143,1.168c-0.157,1.284,0.611,2.413,1.708,2.508l7.5,0.649c0.075,0.007,0.148-0.003,0.223-0.003
	c0.021,0.003,0.038,0.012,0.06,0.013c1.298,0.099,2.721,0.058,3.136,0.919c0.031,0.065,0.064,0.118,0.098,0.164
	c0.436,1.007,1.102,1.923,2.131,2.66c1.764,1.264,4.654,1.823,9.05,1.826h0.03c4.396-0.003,7.286-0.562,9.05-1.826
	C36.476,16.719,35.939,12.299,35.939,9.001z"/>
<ellipse fill="#EA596E" cx="24" cy="9.001" rx="11.969" ry="3"/>
<ellipse fill="#FFE8B6" cx="24" cy="9.001" rx="10.972" ry="2.25"/>
<ellipse fill="#FFAC33" cx="24" cy="9.934" rx="9.975" ry="1.317"/>
<path fill="#226699" d="M3.989,3.209C3.746,3.702,3.96,4.287,4.464,4.508l9.165,4.024c0.468,0.206,0.607,0.02,0.817-0.173
	c0.025-0.285,0.087-0.507-0.361-0.753L5.308,2.793C4.826,2.528,4.232,2.715,3.989,3.209z"/>
<path fill="#99AAB5" d="M18.588,10.956c0.843,0.099,1.755,0.175,2.72,0.225L13.63,7.4c-0.247-0.122-0.548-0.019-0.669,0.228
	s-0.019,0.548,0.228,0.669C13.189,8.297,18.588,10.956,18.588,10.956z"/>
<path fill="#226699" d="M10.334,1.589c-0.31,0.454-0.181,1.063,0.287,1.353l8.508,5.274c0.435,0.269,0.598,0.106,0.834-0.056
	c0.065-0.278,0.158-0.49-0.251-0.797l-8.012-6C11.258,1.033,10.644,1.135,10.334,1.589z"/>
<path fill="#99AAB5" d="M19.289,7.095c-0.227-0.155-0.54-0.096-0.695,0.131c-0.155,0.227-0.096,0.54,0.131,0.695l4.874,3.326
	c0.134,0.001,0.266,0.004,0.401,0.004c0.459,0,0.908-0.008,1.352-0.019C25.352,11.232,19.289,7.095,19.289,7.095z"/>
</svg>
