<?xml version="1.0" encoding="utf-8"?>
<!-- Generator: Adobe Illustrator 25.2.1, SVG Export Plug-In . SVG Version: 6.00 Build 0)  -->
<svg version="1.1" id="Layer_1" xmlns="http://www.w3.org/2000/svg" xmlns:xlink="http://www.w3.org/1999/xlink" x="0px" y="0px"
	 width="36px" height="36px" viewBox="0 0 36 36" enable-background="new 0 0 36 36" xml:space="preserve">
<path fill="#FFCC4D" d="M33.78,27.231c-1.291,1.871-4.5,5.347-6.505,6.817c-2.005,1.47-2.862,1.13-5.033-0.491
	c-0.893-0.667-2.386-1.98-4.591-4.677c-1.087-1.33-1.409-1.758-2.429-2.65C12.371,23.734,1.711,13.375,1.711,13.375
	c-1.211-1.367-0.454-3.368,0.586-5s2.905-3.26,4.57-4.805s3.527-2.54,5.469-1.094c1.22,0.909,7.031,6.671,12.044,11.522
	c0.566,0.547,1.367,1.37,2.361,2.05c3.52,2.406,5.168,4.411,5.881,5.391C34.035,23.381,35.071,25.36,33.78,27.231z"/>
<path fill="#FFAC33" d="M6.899,14.801c0,0,3.797,3.054,4.581,4.003c0.784,0.949,8.337,9.946,9.121,11.019
	c0.784,1.073,2.518,3.467,2.518,3.467s-7.14-8.419-8.172-9.657S6.899,14.801,6.899,14.801z M13.461,13.232
	c0,0,2.352,2.641,2.848,2.972c0.495,0.33,0.612-0.017,0.083-0.66C15.862,14.9,13.461,13.232,13.461,13.232z M17.464,18.226
	c0,0,4.664,4.375,5.407,5.448s4.457,5.283,4.953,6.067c0.495,0.784,0.619,2.064,0.619,2.064s-1.114-2.435-2.683-4.086
	s-4.829-4.994-5.448-5.695C19.693,21.322,17.464,18.226,17.464,18.226z M19.064,16.326c0,0,3.358,2.024,4.206,3.016
	s3.975,3.807,4.547,4.537s0.636,1.159,0.636,1.159s-1.166-1.479-2.893-2.963s-2.921-2.421-3.608-3.056S19.064,16.326,19.064,16.326z
	 M13.915,8.775c0,0,2.93,1.981,3.467,2.6c0.537,0.619,1.733,1.898,1.527,2.146s-1.321-1.156-1.981-1.692
	C16.267,11.293,13.915,8.775,13.915,8.775z"/>
<path fill="#FFE8B6" d="M6.008,13.141c2.422-1.523,5.049-4.117,6.289-6.797c0.977-2.109,0.65-3.813-1.055-4.57
	c-1.055-0.469-3.24,0.158-4.18,0.742C4.796,3.924,2.297,6.812,1.438,8.805c-0.63,1.461-0.791,2.941,0.039,4.219
	S4.74,13.938,6.008,13.141z"/>
<path fill="#F4900C" d="M24.992,34.054c-0.304,0-0.595-0.175-0.729-0.47c-0.575-1.271-1.422-2.395-2.102-3.297
	c-0.154-0.205-0.3-0.398-0.433-0.581c-1.5-2.052-3.386-4.594-3.769-5.006c-0.314-0.338-0.94-1.133-1.665-2.052
	c-0.499-0.634-1.013-1.287-1.413-1.772c-1.412-1.713-1.495-3.458-0.216-4.554c1.303-1.117,2.316-2.479,2.938-3.425
	c0.591-0.9,1.331-1.142,1.848-1.186c1.153-0.099,2.462,0.634,3.898,2.172c0.976,1.045,2.886,2.529,4.42,3.721l0.33,0.256
	c2.333,1.815,3.998,3.47,5.09,5.061c0.25,0.364,0.158,0.862-0.206,1.112c-0.366,0.253-0.863,0.157-1.112-0.206
	c-0.984-1.434-2.583-3.017-4.754-4.704l-0.329-0.256c-1.579-1.227-3.545-2.754-4.608-3.893c-1.022-1.096-1.992-1.721-2.593-1.67
	c-0.153,0.013-0.388,0.076-0.646,0.469c-0.678,1.033-1.789,2.523-3.234,3.762c-0.795,0.682,0.021,1.851,0.409,2.321
	c0.406,0.492,0.929,1.156,1.436,1.8c0.645,0.817,1.311,1.663,1.58,1.954c0.525,0.565,2.895,3.79,3.888,5.15
	c0.13,0.177,0.271,0.363,0.42,0.562c0.728,0.966,1.633,2.169,2.28,3.6c0.183,0.403,0.004,0.877-0.398,1.059
	C25.215,34.031,25.103,34.054,24.992,34.054z"/>
<path fill="#FFE8B6" d="M28.199,21.254l-3.515-1.174c1.527-3.01,1.199-5.873,1.182-6.015c-0.068-0.547-0.564-0.937-1.114-0.865
	c-0.547,0.067-0.935,0.566-0.87,1.113c0.004,0.031,0.327,2.982-1.468,5.709c-0.028,0.036-0.056,0.071-0.078,0.11
	c-0.091,0.134-0.183,0.269-0.285,0.401c-2.218,2.877-5.187,4.471-6.76,5.164c-0.505,0.222-0.734,0.813-0.511,1.318
	c0.166,0.374,0.532,0.597,0.916,0.597c0.135,0,0.272-0.027,0.402-0.086c1.524-0.672,4.234-2.11,6.553-4.613l0.698,3.322
	c0.099,0.472,0.515,0.795,0.978,0.795c0.069,0,0.138-0.007,0.205-0.022c0.541-0.114,0.886-0.644,0.773-1.184l-0.774-3.688
	l3.033,1.014c0.529,0.176,1.092-0.109,1.266-0.631C29.005,21.995,28.722,21.429,28.199,21.254z"/>
<path fill="#FFAC33" d="M7.805,3.297C9.758,2.32,11.04,2.743,11.36,3.063c0.43,0.43,0.625,1.758,0.039,3.047
	c-1.079,2.373-4.18,5.43-6.016,6.406c-1.13,0.601-2.984,0.535-3.359-0.117C1.282,11.11,2.135,9.377,2.883,8.024
	C3.898,6.188,6.318,4.04,7.805,3.297z"/>
<path fill="#C1694F" d="M11.398,6.109c0.586-1.289,0.391-2.617-0.039-3.047L11.356,3.06c-1.169-0.145-1.954,0.148-2.482,0.479
	C8.266,3.921,7.666,4.863,7.549,5.644S6.836,7.226,6.19,7.349C5.624,7.456,4.771,7.475,4.029,8.295s-0.326,2.072-0.326,2.072
	c-1.578,0.054-1.675,1.355-1.49,2.231c0.608,0.456,2.17,0.449,3.169-0.083C7.219,11.539,10.32,8.482,11.398,6.109z"/>
<circle fill="#D99E82" cx="9.008" cy="5.377" r="0.691"/>
<path fill="#D99E82" d="M5.383,12.516c1.836-0.977,4.937-4.033,6.016-6.406c0.51-1.122,0.428-2.272,0.115-2.835
	c-0.066-0.011-0.125-0.039-0.194-0.039c-0.681,0-1.232,0.552-1.232,1.232c0,0.429,0.232,0.788,0.565,1.009
	c-0.199,0.201-0.313,0.472-0.347,0.768c-0.169-0.05-0.344-0.086-0.529-0.086c-1.024,0-1.853,0.83-1.853,1.853
	c0,0.161,0.027,0.314,0.065,0.462c-0.363,0.188-0.65,0.498-0.802,0.881C7.042,9.247,6.882,9.163,6.709,9.102
	c0.204-0.153,0.345-0.386,0.345-0.66c0-0.464-0.376-0.84-0.84-0.84s-0.84,0.376-0.84,0.84c0,0.244,0.108,0.46,0.275,0.613
	c-0.786,0.203-1.37,0.911-1.37,1.76c0,0.125,0.013,0.247,0.037,0.364c-0.065-0.01-0.123-0.039-0.191-0.039
	c-0.734,0-1.328,0.595-1.328,1.328c0,0.139,0.039,0.265,0.079,0.391C3.617,13.01,4.65,12.906,5.383,12.516z"/>
<g>
	<circle fill="#FFD983" cx="3.318" cy="11.729" r="0.657"/>
	<path fill="#FFD983" d="M6.957,11.426c0.029-0.091,0.046-0.186,0.046-0.288c0-0.36-0.18-0.666-0.443-0.872
		c0.189-0.16,0.315-0.389,0.315-0.656c0-0.48-0.389-0.87-0.87-0.87s-0.87,0.389-0.87,0.87c0,0.213,0.086,0.402,0.213,0.553
		C5,10.355,4.754,10.712,4.754,11.138c0,0.598,0.47,1.075,1.059,1.111C6.172,12.023,6.552,11.757,6.957,11.426z M9.95,4.947
		c0.313,0.229,0.738,0.182,0.948-0.105s0.127-0.706-0.187-0.935c-0.313-0.229-0.738-0.182-0.948,0.105S9.636,4.717,9.95,4.947z
		 M11.421,6.051c-0.239-0.284-0.587-0.474-0.994-0.474c-0.736,0-1.332,0.585-1.332,1.306c0,0.621,0.456,1.108,1.049,1.237
		c0.52-0.684,0.964-1.372,1.254-2.012C11.407,6.09,11.412,6.071,11.421,6.051z M8.997,9.481C8.913,9.143,8.615,8.887,8.241,8.887
		c-0.438,0-0.792,0.345-0.792,0.77c0,0.377,0.284,0.676,0.652,0.742C8.405,10.106,8.704,9.8,8.997,9.481z"/>
	<circle fill="#FFD983" cx="7.848" cy="7.732" r="0.78"/>
</g>
<g>
	<ellipse fill="#FFE8B6" cx="5.735" cy="10.963" rx="0.684" ry="0.645"/>
	<circle fill="#FFE8B6" cx="10.47" cy="5.943" r="0.739"/>
	<circle fill="#FFE8B6" cx="8.55" cy="8.786" r="0.708"/>
	<circle fill="#FFE8B6" cx="2.882" cy="11.86" r="0.449"/>
	<circle fill="#FFE8B6" cx="6.547" cy="6.658" r="0.613"/>
	<circle fill="#FFE8B6" cx="3.428" cy="9.977" r="0.568"/>
	<circle fill="#FFE8B6" cx="9.164" cy="6.892" r="0.568"/>
</g>
<g>
	<ellipse fill="#FFAC33" cx="4.798" cy="8.875" rx="0.488" ry="0.469"/>
	<ellipse fill="#FFAC33" cx="8.184" cy="6.803" rx="0.547" ry="0.469"/>
	<ellipse fill="#FFAC33" cx="4.219" cy="12.016" rx="0.527" ry="0.488"/>
	<ellipse fill="#FFAC33" cx="9.32" cy="4.909" rx="0.43" ry="0.469"/>
</g>
<g>
	<circle fill="#DD2E44" cx="3.666" cy="12.187" r="0.371"/>
	<ellipse fill="#DD2E44" cx="6.728" cy="10.096" rx="0.488" ry="0.449"/>
	<circle fill="#DD2E44" cx="7.694" cy="5.177" r="0.41"/>
	<circle fill="#DD2E44" cx="8.952" cy="7.947" r="0.371"/>
	<circle fill="#DD2E44" cx="5.148" cy="7.188" r="0.511"/>
	<ellipse fill="#DD2E44" cx="10.88" cy="4.13" rx="0.391" ry="0.352"/>
</g>
</svg>
