<?xml version="1.0" encoding="utf-8"?>
<!-- Generator: Adobe Illustrator 25.2.1, SVG Export Plug-In . SVG Version: 6.00 Build 0)  -->
<svg version="1.1" id="Layer_1" xmlns="http://www.w3.org/2000/svg" xmlns:xlink="http://www.w3.org/1999/xlink" x="0px" y="0px"
	 width="36px" height="36px" viewBox="0 0 36 36" enable-background="new 0 0 36 36" xml:space="preserve">
<path fill="#FFAC33" d="M9.465,30.534l-1.618,3.28c-0.368,0.747-0.069,1.653,0.667,2.027C8.728,35.948,8.956,36,9.18,36
	c0.546,0,1.072-0.306,1.334-0.835l1.52-3.081L9.465,30.534z"/>
<path fill="#FFAC33" d="M28.394,33.814l-1.508-3.058l-2.565,1.554l1.408,2.855c0.368,0.746,1.263,1.048,1.999,0.676
	C28.464,35.467,28.762,34.561,28.394,33.814z"/>
<polygon fill="#58595B" points="28.967,9.811 32.729,5.997 31.324,4.573 27.553,8.397 "/>
<polygon fill="#58595B" points="7.274,9.812 8.689,8.398 4.916,4.574 3.512,5.998 "/>
<path fill="#FFCC4D" d="M20,4.278h-4V2.014C16,0.901,16.903,0,18,0s2,0.901,2,2.014V4.278z"/>
<path fill="#DD2E44" d="M34.015,19.385c0,8.898-7.115,16.111-15.894,16.111c-8.777,0-15.893-7.213-15.893-16.111
	c0-8.9,7.116-16.113,15.893-16.113C26.899,3.271,34.015,10.485,34.015,19.385z"/>
<path fill="#E6E7E8" d="M30.041,19.385c0,6.674-5.335,12.084-11.92,12.084c-6.583,0-11.919-5.41-11.919-12.084
	C6.202,12.71,11.538,7.3,18.121,7.3C24.706,7.299,30.041,12.71,30.041,19.385z"/>
<path fill="#FFCC4D" d="M30.04,1.257c-1.646,0-3.135,0.676-4.214,1.77l8.429,8.544C35.333,10.478,36,8.968,36,7.299
	C36,3.963,33.331,1.257,30.04,1.257z M5.96,1.257c1.645,0,3.135,0.676,4.214,1.77l-8.429,8.544C0.667,10.478,0,8.968,0,7.299
	C0,3.963,2.668,1.257,5.96,1.257z"/>
<path fill="#414042" d="M23,20h-5c-0.552,0-1-0.447-1-1v-9c0-0.552,0.448-1,1-1s1,0.448,1,1v8h4c0.553,0,1,0.448,1,1
	C24,19.553,23.553,20,23,20z"/>
</svg>
