<?xml version="1.0" encoding="utf-8"?>
<!-- Generator: Adobe Illustrator 25.2.1, SVG Export Plug-In . SVG Version: 6.00 Build 0)  -->
<svg version="1.1" id="Layer_1" xmlns="http://www.w3.org/2000/svg" xmlns:xlink="http://www.w3.org/1999/xlink" x="0px" y="0px"
	 width="36px" height="36px" viewBox="0 0 36 36" enable-background="new 0 0 36 36" xml:space="preserve">
<path fill="#292F33" d="M16,4.013h4V8h-4V4.013z"/>
<path fill="#8899A6" d="M22,1h-8c-1.1,0-2,0.9-2,2s0.9,2,2,2h8c1.1,0,2-0.9,2-2S23.1,1,22,1z M28.184,11.507l-1.504-1.318
	c-0.827-0.725-0.911-1.995-0.186-2.822c0.725-0.827,1.995-0.911,2.822-0.186l1.504,1.318c0.827,0.725,0.911,1.995,0.186,2.822
	C30.281,12.148,29.011,12.232,28.184,11.507z"/>
<circle fill="#66757F" cx="18" cy="21" r="14"/>
<circle fill="#F5F8FA" cx="18" cy="21" r="11"/>
<path fill="#292F33" d="M27,22H17c-0.552,0-1-0.447-1-1s0.448-1,1-1h10c0.553,0,1,0.447,1,1S27.553,22,27,22z"/>
<circle fill="#292F33" cx="18" cy="12" r="1"/>
<circle fill="#292F33" cx="18" cy="30" r="1"/>
<circle fill="#292F33" cx="12" cy="15" r="1"/>
<circle fill="#292F33" cx="24" cy="27" r="1"/>
<circle fill="#292F33" cx="9" cy="21" r="1"/>
<circle fill="#292F33" cx="24" cy="15" r="1"/>
<path fill="#DD2E44" d="M12,28c-0.256,0-0.512-0.098-0.707-0.293c-0.391-0.391-0.391-1.023,0-1.414l7-7
	c0.391-0.391,1.023-0.391,1.414,0s0.391,1.023,0,1.414l-7,7C12.512,27.902,12.256,28,12,28z"/>
</svg>
