<?xml version="1.0" encoding="utf-8"?>
<!-- Generator: Adobe Illustrator 25.2.1, SVG Export Plug-In . SVG Version: 6.00 Build 0)  -->
<svg version="1.1" id="Layer_1" xmlns="http://www.w3.org/2000/svg" xmlns:xlink="http://www.w3.org/1999/xlink" x="0px" y="0px"
	 width="36px" height="36px" viewBox="0 0 36 36" enable-background="new 0 0 36 36" xml:space="preserve">
<path fill="#3E721D" d="M28.636,27.634l-3.739-6.114c-0.274-0.479-0.167-1.079,0.312-1.354l4.958-3
	C30.323,17.077,30.663,17,30.831,17c0.348,0,0.672,0.198,0.856,0.521l2.855,4.707c0.19,0.688,0.308,1.287-0.08,1.785L28.636,27.634z
	"/>
<path fill="#3E721D" d="M20.19,4.924l-3.944,6.319c-0.303,0.463-0.886,0.639-1.348,0.336L9.974,8.525
	C9.824,8.426,9.6,8.158,9.524,8.009c-0.158-0.31-0.129-0.688,0.075-1l2.897-4.681c0.599-0.61,1.068-0.958,1.82-0.951L20.19,4.924z"
	/>
<path fill="#3E721D" d="M5.247,24.063l7.171,0.005c0.553,0.017,1.009,0.42,0.995,0.972l-0.014,5.795
	c-0.005,0.18-0.116,0.512-0.203,0.654c-0.181,0.297-0.519,0.472-0.891,0.461l-5.523-0.007c-0.77-0.108-1.324-0.597-1.47-1.02
	L5.247,24.063z"/>
<path fill="#77B255" d="M34.925,22.87c-0.048-0.089-0.383-0.642-0.383-0.642S34.85,24,33,24H23v-2c0-0.404-0.243-0.77-0.617-0.924
	C22.259,21.024,22.129,21,22,21c-0.26,0-0.516,0.102-0.707,0.293l-6,6c-0.391,0.391-0.391,1.023,0,1.414l6,6
	C21.484,34.898,21.74,35,22,35c0.129,0,0.259-0.024,0.383-0.076C22.757,34.77,23,34.404,23,34v-2h8c0.379,0,0.725-0.214,0.87-0.503
	l3.089-6.122C35.469,24.422,35.252,23.484,34.925,22.87z"/>
<path fill="#77B255" d="M29.571,7.705c-0.058-0.115-0.139-0.221-0.242-0.307c-0.308-0.264-0.743-0.314-1.103-0.13l-1.782,0.908
	c0,0,0-0.001,0-0.001l-3.631-7.128C22.64,0.709,22.293,0.5,21.969,0.5L15.11,0.528c-1.081-0.021-1.817,0.597-2.216,1.167
	c-0.058,0.084-0.398,0.633-0.398,0.633s1.439-1.079,2.278,0.57l4.542,8.91l0,0l-1.782,0.908c-0.36,0.183-0.576,0.565-0.544,0.969
	c0.011,0.134,0.048,0.262,0.107,0.376c0.119,0.231,0.325,0.413,0.583,0.496l8.07,2.623c0.526,0.17,1.09-0.117,1.26-0.642
	l2.621-8.071C29.714,8.21,29.689,7.936,29.571,7.705z"/>
<path fill="#77B255" d="M14.485,21.107l-2.007-8.244c-0.131-0.537-0.671-0.866-1.208-0.734l-8.245,2.006
	c-0.263,0.066-0.482,0.23-0.618,0.454c-0.067,0.11-0.113,0.232-0.133,0.366c-0.062,0.399,0.123,0.797,0.469,1.008l1.708,1.039l0,0
	l-4.158,6.834c-0.197,0.324-0.194,0.731-0.023,1.006l3.626,5.82c0.55,0.93,1.472,1.243,2.168,1.281h0.718c0,0-1.653-0.66-0.693-2.24
	l5.197-8.543c0,0,0,0,0,0l1.707,1.038c0.346,0.21,0.784,0.192,1.11-0.046c0.109-0.08,0.198-0.179,0.264-0.288
	C14.502,21.641,14.549,21.371,14.485,21.107z"/>
</svg>
