<?xml version="1.0" encoding="utf-8"?>
<!-- Generator: Adobe Illustrator 25.2.1, SVG Export Plug-In . SVG Version: 6.00 Build 0)  -->
<svg version="1.1" id="Layer_1" xmlns="http://www.w3.org/2000/svg" xmlns:xlink="http://www.w3.org/1999/xlink" x="0px" y="0px"
	 width="36px" height="36px" viewBox="0 0 36 36" enable-background="new 0 0 36 36" xml:space="preserve">
<path fill="#CCD6DD" d="M24.576,27.258l3.848-3.834l-6.655-6.655L20.5,20.5L24.576,27.258z"/>
<polygon fill="#CCD6DD" points="30,1 17.996,13.004 6,1 1,1 13,18 7.535,23.465 11.372,27.302 35,1 "/>
<path fill="#9AAAB4" d="M1,1v5l12,12l2.499-2.501L1,1z"/>
<polygon fill="#9AAAB4" points="35,1 10.004,25.996 13.256,27.744 18,23 22.744,27.744 25.919,25.919 20.5,20.5 35,6 "/>
<path fill="#D99E82" d="M33.28,31.043l-4.567-5.398l-0.701-0.702l-3.066,3.064l0.741,0.741l5.355,4.532L33.28,31.043z"/>
<path fill="#D99E82" d="M2.72,31.043l4.567-5.398l0.701-0.702l3.065,3.064l-0.741,0.741L4.958,33.28L2.72,31.043z"/>
<path fill="#BF6952" d="M30.114,27.302l-0.888,4.441l1.26,1.066l0.82-4.1L30.114,27.302z M28.713,25.645l-0.701-0.702l-0.463,0.463
	l-0.841,4.205l1.26,1.066l0.957-4.783C28.925,25.894,28.713,25.645,28.713,25.645z M24.946,28.007l0.596,0.596l0.298-1.49
	L24.946,28.007z"/>
<path fill="#BF6952" d="M5.886,27.302l0.888,4.441l-1.26,1.066l-0.82-4.1L5.886,27.302z M7.287,25.645l0.701-0.702l0.463,0.463
	l0.841,4.205l-1.26,1.066l-0.957-4.783C7.075,25.894,7.287,25.645,7.287,25.645z M11.053,28.008l-0.596,0.596l-0.298-1.491
	L11.053,28.008z"/>
<path fill="#8A4633" d="M33.25,30.5c1.519,0,2.75,1.231,2.75,2.75S34.769,36,33.25,36s-2.75-1.231-2.75-2.75L33.25,30.5z"/>
<path fill="#8A4633" d="M2.75,30.5l2.75,2.75C5.5,34.769,4.269,36,2.75,36S0,34.769,0,33.25S1.231,30.5,2.75,30.5z"/>
<path fill="#FFAC33" d="M33.903,29.342c0.298,0.298,0.298,0.781,0,1.078l-3.476,3.475c-0.298,0.298-0.78,0.298-1.078,0
	c-0.298-0.298-0.298-0.78,0-1.078l3.476-3.475C33.122,29.044,33.605,29.044,33.903,29.342z"/>
<path fill="#FFAC33" d="M2.097,29.342c-0.298,0.298-0.298,0.781,0,1.078l3.476,3.475c0.298,0.298,0.78,0.298,1.078,0
	c0.298-0.298,0.298-0.78,0-1.078l-3.476-3.475C2.878,29.044,2.395,29.044,2.097,29.342z"/>
<path fill="#FFAC33" d="M13.928,28.127c-0.09,0-0.176,0.013-0.263,0.026l-5.568-5.568c0.013-0.086,0.026-0.173,0.026-0.263
	c0-0.966-0.784-1.75-1.75-1.75s-1.75,0.784-1.75,1.75s0.784,1.75,1.75,1.75c0.089,0,0.175-0.013,0.261-0.026l5.57,5.57
	c-0.013,0.086-0.026,0.171-0.026,0.261c0,0.966,0.784,1.75,1.75,1.75s1.75-0.784,1.75-1.75S14.894,28.127,13.928,28.127z"/>
<path fill="#FFAC33" d="M29.626,20.573c-0.966,0-1.75,0.784-1.75,1.75c0,0.09,0.013,0.176,0.026,0.263l-5.568,5.568
	c-0.086-0.013-0.173-0.026-0.263-0.026c-0.966,0-1.75,0.784-1.75,1.75s0.784,1.75,1.75,1.75s1.75-0.784,1.75-1.75
	c0-0.089-0.013-0.175-0.026-0.261l5.57-5.57c0.086,0.013,0.171,0.026,0.261,0.026c0.966,0,1.75-0.784,1.75-1.75
	S30.592,20.573,29.626,20.573z"/>
<circle fill="#FFCC4D" cx="22.072" cy="29.877" r="1"/>
<circle fill="#FFCC4D" cx="29.626" cy="22.323" r="1"/>
<circle fill="#FFCC4D" cx="13.928" cy="29.877" r="1"/>
<circle fill="#FFCC4D" cx="6.374" cy="22.323" r="1"/>
</svg>
