<?xml version="1.0" encoding="utf-8"?>
<!-- Generator: Adobe Illustrator 25.2.1, SVG Export Plug-In . SVG Version: 6.00 Build 0)  -->
<svg version="1.1" id="Layer_1" xmlns="http://www.w3.org/2000/svg" xmlns:xlink="http://www.w3.org/1999/xlink" x="0px" y="0px"
	 width="36px" height="36px" viewBox="0 0 36 36" enable-background="new 0 0 36 36" xml:space="preserve">
<path fill="#9266CC" d="M36,32c0,2.209-1.791,4-4,4H4c-2.209,0-4-1.791-4-4V4c0-2.209,1.791-4,4-4h28c2.209,0,4,1.791,4,4V32z"/>
<path fill="#FFFFFF" d="M28.8,5.5h-7.175c-0.663,0-1.2,0.537-1.2,1.2c0,0.663,0.537,1.2,1.2,1.2h4.278l-4.064,3.993
	C20.746,11.142,19.424,10.7,18,10.7s-2.746,0.442-3.839,1.193l-0.836-0.821l0.281-0.281c0.469-0.469,0.469-1.229,0-1.697
	c-0.468-0.468-1.228-0.469-1.697,0L11.613,9.39L10.097,7.9h4.278c0.663,0,1.2-0.537,1.2-1.2c0-0.663-0.537-1.2-1.2-1.2H7.2
	C6.537,5.5,6,6.037,6,6.7v7.2c0,0.662,0.537,1.2,1.2,1.2c0.663,0,1.2-0.538,1.2-1.2V9.597l1.516,1.49l-0.322,0.322
	c-0.469,0.469-0.468,1.229,0,1.697c0.468,0.468,1.228,0.469,1.697,0l0.337-0.337l0.825,0.811c-0.786,1.109-1.253,2.46-1.253,3.92
	c0,3.339,2.422,6.118,5.6,6.687V25.9h-2.7c-0.663,0-1.2,0.537-1.2,1.2c0,0.663,0.537,1.2,1.2,1.2h2.7v2c0,0.662,0.537,1.2,1.2,1.2
	s1.2-0.538,1.2-1.2v-2h2.7c0.663,0,1.2-0.538,1.2-1.2c0-0.662-0.537-1.2-1.2-1.2h-2.7v-1.713c3.178-0.569,5.6-3.348,5.6-6.687
	c0-1.46-0.467-2.811-1.253-3.92L27.6,9.597V13.9c0,0.662,0.538,1.2,1.2,1.2c0.663,0,1.2-0.538,1.2-1.2V6.7
	C30,6.037,29.462,5.5,28.8,5.5z M18,21.9c-2.426,0-4.4-1.974-4.4-4.4s1.974-4.4,4.4-4.4s4.4,1.974,4.4,4.4S20.426,21.9,18,21.9z"/>
</svg>
