<?xml version="1.0" encoding="utf-8"?>
<!-- Generator: Adobe Illustrator 25.2.1, SVG Export Plug-In . SVG Version: 6.00 Build 0)  -->
<svg version="1.1" id="Layer_1" xmlns="http://www.w3.org/2000/svg" xmlns:xlink="http://www.w3.org/1999/xlink" x="0px" y="0px"
	 width="36px" height="36px" viewBox="0 0 36 36" enable-background="new 0 0 36 36" xml:space="preserve">
<path fill="#99AAB5" d="M33,29c-1,1-1,4-4,4h-3c-3,0-3-3-3-3h-3c0,0,0,3-3,3h-5c-3,0-3-3-3-3H6c0,0,0,3-3,3H1c-1.104,0-0.104,3,1,3
	h28C35,36,38,32,33,29z"/>
<path fill="#E6E7E8" d="M21,20c-6.5-3-5-11-5-13S3,4.721,3,7c0,6.734-1.845,11.627-1.986,20H1v1c0,1.104,0.896,2,2,2h8
	c2.333,0,0.398-2.041,3-1c5,2,20,1,20,1c1.104,0,2-0.896,2-2C36,22,27.268,22.893,21,20z"/>
<path fill="#DD2E44" d="M16.312,20.75c-0.25,0-0.5-0.093-0.694-0.28c-0.398-0.383-0.409-1.017-0.025-1.414l1.688-1.75
	c0.384-0.396,1.017-0.408,1.414-0.025c0.398,0.383,0.409,1.016,0.025,1.414l-1.688,1.75C16.836,20.647,16.574,20.75,16.312,20.75z
	 M19.999,23c-0.15,0-0.303-0.034-0.446-0.105c-0.494-0.247-0.694-0.848-0.447-1.342l1-2c0.248-0.494,0.848-0.692,1.342-0.447
	c0.494,0.247,0.694,0.848,0.447,1.342l-1,2C20.719,22.798,20.366,23,19.999,23z M24.001,24c-0.047,0-0.095-0.003-0.143-0.01
	c-0.547-0.079-0.927-0.585-0.849-1.132l0.209-1.458c0.079-0.547,0.587-0.923,1.132-0.849c0.547,0.079,0.927,0.585,0.849,1.132
	l-0.209,1.458C24.918,23.641,24.49,24,24.001,24z"/>
</svg>
