<?xml version="1.0" encoding="utf-8"?>
<!-- Generator: Adobe Illustrator 25.2.1, SVG Export Plug-In . SVG Version: 6.00 Build 0)  -->
<svg version="1.1" id="Layer_1" xmlns="http://www.w3.org/2000/svg" xmlns:xlink="http://www.w3.org/1999/xlink" x="0px" y="0px"
	 width="36px" height="36px" viewBox="0 0 36 36" enable-background="new 0 0 36 36" xml:space="preserve">
<path fill="#3B88C3" d="M32,0H4C1.791,0,0,1.791,0,4v28c0,2.209,1.791,4,4,4h28c2.209,0,4-1.791,4-4V4C36,1.791,34.209,0,32,0z"/>
<path fill="#FFFFFF" d="M27.441,21.856L21.621,18l5.82-3.857c0.46-0.305,0.586-0.926,0.281-1.386l-1.105-1.667
	c-0.305-0.46-0.925-0.586-1.386-0.28L20,14.276V8c0-0.552-0.447-1-1-1h-2c-0.552,0-1,0.448-1,1v6.275l-5.231-3.466
	c-0.461-0.305-1.081-0.179-1.386,0.281l-1.105,1.667c-0.305,0.46-0.179,1.081,0.281,1.386L14.38,18l-5.821,3.857
	c-0.461,0.305-0.586,0.925-0.281,1.386l1.105,1.667c0.305,0.46,0.925,0.586,1.386,0.281L16,21.725V28c0,0.553,0.448,1,1,1h2
	c0.553,0,1-0.447,1-1v-6.276l5.231,3.466c0.461,0.305,1.081,0.179,1.386-0.281l1.105-1.667
	C28.027,22.781,27.902,22.161,27.441,21.856z"/>
</svg>
