<?xml version="1.0" encoding="utf-8"?>
<!-- Generator: Adobe Illustrator 25.2.1, SVG Export Plug-In . SVG Version: 6.00 Build 0)  -->
<svg version="1.1" id="Layer_1" xmlns="http://www.w3.org/2000/svg" xmlns:xlink="http://www.w3.org/1999/xlink" x="0px" y="0px"
	 width="36px" height="36px" viewBox="0 0 36 36" enable-background="new 0 0 36 36" xml:space="preserve">
<path fill="#99AAB5" d="M5,22.66L0,26v8c0,1.104,0.896,2,2,2h32c1.104,0,2-0.896,2-2v-7.989l-5-3.358L5,22.66z"/>
<path fill="#66757F" d="M0,33h36v1H0V33z M0,30h36v1H0V30z M0,27h36v1H0V27z M1.497,25h32.998l-1.489-1H2.994L1.497,25z"/>
<path fill="#E1E8ED" d="M18,0C10.82,0,5,1.343,5,3v33h26V3C31,1.343,25.18,0,18,0z"/>
<path fill="#CCD6DD" d="M18,13c7.18,0,13,1.344,13,3v-2c0-1.657-5.82-3-13-3S5,12.343,5,14v2C5,14.344,10.82,13,18,13z M18,25
	c7.18,0,13,1.344,13,3v-2c0-1.656-5.82-3-13-3S5,24.344,5,26v2C5,26.344,10.82,25,18,25z M18,31c7.18,0,13,1.344,13,3v-2
	c0-1.656-5.82-3-13-3S5,30.344,5,32v2C5,32.344,10.82,31,18,31z M18,7c7.18,0,13,1.344,13,3V8c0-1.657-5.82-3-13-3S5,6.343,5,8v2
	C5,8.344,10.82,7,18,7z"/>
<path fill="#CCD6DD" d="M14,0.146V36h2V0.039C15.315,0.063,14.646,0.098,14,0.146z M8,1.084V36h2V0.639
	C9.268,0.771,8.594,0.919,8,1.084z M20,0.039V36h2V0.146C21.354,0.098,20.685,0.063,20,0.039z M26,0.639V36h2V1.084
	C27.406,0.919,26.731,0.771,26,0.639z"/>
<path fill="#292F33" d="M18,19c7.18,0,13,1.344,13,3v-2c0-1.657-5.82-3-13-3S5,18.343,5,20v2C5,20.344,10.82,19,18,19z"/>
<path fill="#BE1931" d="M11.13,5.583h-0.708c-0.576,0-0.815-0.42-0.815-0.828c0-0.419,0.3-0.827,0.815-0.827h1.703
	c0.516,0,0.804,0.372,0.804,0.851v6.825c0,0.6-0.384,0.935-0.899,0.935s-0.899-0.335-0.899-0.935L11.13,5.583L11.13,5.583z
	 M14.01,7.73c0-1.955,0.756-4.414,3.179-4.414s3.178,2.459,3.178,4.414s-0.755,4.414-3.178,4.414S14.01,9.685,14.01,7.73z
	 M18.495,7.73c0-0.912-0.084-2.783-1.307-2.783c-1.224,0-1.308,1.871-1.308,2.783c0,0.852,0.084,2.782,1.308,2.782
	C18.411,10.513,18.495,8.582,18.495,7.73z M27.087,6.758c0,1.811-1.835,4.353-3.046,5.481c-0.096,0.096-0.24,0.192-0.384,0.288
	c-0.132,0.084-0.264,0.084-0.36,0.084c-0.335,0-0.852-0.444-0.852-0.875c0-0.168,0.108-0.312,0.252-0.492
	c0.48-0.588,1.26-1.356,1.655-1.919l-0.023-0.024c-0.216,0.096-0.492,0.144-0.756,0.144c-1.439,0-2.507-1.271-2.507-2.687
	c0-1.559,1.235-2.974,3.011-2.974C25.924,3.784,27.087,5.163,27.087,6.758z M25.216,6.758c0-0.671-0.419-1.247-1.139-1.247
	c-0.684,0-1.14,0.552-1.14,1.247c0,0.636,0.384,1.248,1.14,1.248C24.761,8.005,25.216,7.465,25.216,6.758z"/>
</svg>
